<?xml version="1.0" standalone="no"?>
<!DOCTYPE svg PUBLIC "-//W3C//DTD SVG 20010904//EN"
 "http://www.w3.org/TR/2001/REC-SVG-20010904/DTD/svg10.dtd">
<svg version="1.0" xmlns="http://www.w3.org/2000/svg"
 width="135.000000pt" height="135.000000pt" viewBox="0 0 135.000000 135.000000"
 preserveAspectRatio="xMidYMid meet">
<metadata>
Created by potrace 1.14, written by Peter Selinger 2001-2017
</metadata>
<g transform="translate(0.000000,135.000000) scale(0.100000,-0.100000)"
fill="#000000" stroke="none">
<path d="M180 1209 c0 -6 -9 -61 -20 -122 -10 -62 -22 -128 -25 -147 -3 -19
-10 -60 -15 -90 -5 -30 -12 -68 -14 -85 -3 -16 -26 -154 -52 -305 -25 -151
-48 -285 -49 -297 -3 -23 -3 -23 135 -23 l138 0 7 48 c4 26 9 56 10 67 2 11 5
36 9 55 7 49 12 83 36 255 12 83 24 158 28 168 5 13 44 -74 128 -285 l121
-303 58 0 57 0 54 130 c30 72 58 139 63 150 20 42 114 270 124 299 9 27 11 28
18 10 4 -11 10 -49 14 -85 4 -35 8 -71 10 -80 2 -8 6 -40 9 -70 9 -82 15 -128
36 -274 5 -38 10 -73 10 -77 0 -5 63 -8 140 -8 l139 0 -4 33 c-3 17 -23 154
-45 302 -23 149 -43 286 -46 305 -2 19 -8 60 -14 90 -5 30 -11 71 -14 90 -2
19 -10 71 -17 115 -14 93 -17 115 -18 133 -1 10 -33 12 -143 10 l-141 -3 -112
-277 c-61 -153 -113 -280 -116 -282 -2 -3 -31 66 -63 152 -32 86 -81 214 -108
285 l-50 127 -139 0 c-93 0 -139 -4 -139 -11z"/>
</g>
</svg>
