<svg width="126" height="46" viewBox="0 0 126 46" fill="none" xmlns="http://www.w3.org/2000/svg">
<g clip-path="url(#clip0_10_142)">
<path fill-rule="evenodd" clip-rule="evenodd" d="M77.9587 36.9185C70.7104 42.3021 60.2227 45.1389 51.1783 45.1389C38.5097 45.1389 27.092 40.4324 18.4324 32.5988C17.7589 31.9863 18.3683 31.1482 19.1701 31.6317C28.5031 37.0797 40.0171 40.3679 51.916 40.3679C59.9341 40.3679 68.786 38.6916 76.9004 35.2422C78.1512 34.6942 79.1775 36.0481 77.9587 36.9185ZM80.9735 33.4692C80.0434 32.2764 74.8477 32.9212 72.5064 33.1791C71.8008 33.2758 71.6726 32.631 72.314 32.212C76.4513 29.2784 83.2507 30.1166 84.0525 31.1159C84.8543 32.1153 83.8601 38.9495 79.9472 42.2054C79.3379 42.7212 78.7926 42.431 79.0492 41.7863C79.9472 39.5942 81.9036 34.662 80.9735 33.4692Z" fill="#FF9900"/>
<path fill-rule="evenodd" clip-rule="evenodd" d="M72.6666 11.516V8.67912C72.6666 8.26004 72.9873 7.96991 73.3722 7.96991H86.0729C86.4898 7.96991 86.8105 8.26004 86.8105 8.67912V11.1291C86.8105 11.5482 86.4577 12.064 85.8484 12.9344L79.2735 22.3798C81.711 22.3153 84.3089 22.6699 86.5219 23.9271C87.035 24.2173 87.1633 24.6364 87.1954 25.0232V28.0535C87.1954 28.4725 86.7464 28.9561 86.2653 28.6982C82.3525 26.635 77.1888 26.4094 72.8591 28.7304C72.41 28.9561 71.961 28.5048 71.961 28.0857V25.1844C71.961 24.7331 71.961 23.9271 72.4421 23.2179L80.0433 12.2252H73.4043C73.0194 12.2252 72.6666 11.935 72.6666 11.516ZM26.3862 29.2785H22.5375C22.1526 29.2462 21.864 28.9883 21.864 28.6337V8.71136C21.864 8.32452 22.1847 8.00215 22.6017 8.00215H26.1938C26.5786 8.03439 26.8673 8.29228 26.8994 8.67912V11.2903H26.9635C27.8936 8.77583 29.6576 7.61531 32.0309 7.61531C34.4364 7.61531 35.9438 8.77583 37.0342 11.2903C37.9643 8.77583 40.0811 7.61531 42.3582 7.61531C43.9619 7.61531 45.7579 8.29228 46.8163 9.80741C48.035 11.4837 47.7785 13.9015 47.7785 16.0614V28.6337C47.7785 29.0206 47.4577 29.3429 47.0408 29.3429H43.1921C42.8072 29.3107 42.4865 29.0206 42.4865 28.6337V18.0923C42.4865 17.2541 42.5507 15.1587 42.3903 14.3528C42.1017 13.0311 41.2357 12.6443 40.1132 12.6443C39.1831 12.6443 38.1888 13.2568 37.804 14.2883C37.4191 15.2877 37.4512 16.964 37.4512 18.0923V28.6337C37.4512 29.0206 37.1304 29.3429 36.7135 29.3429H32.8648C32.4799 29.3107 32.1592 29.0206 32.1592 28.6337V18.0923C32.1592 15.8679 32.512 12.612 29.7859 12.612C27.0276 12.612 27.1239 15.8035 27.1239 18.0923V28.6337C27.1559 28.9561 26.8031 29.2785 26.3862 29.2785ZM97.7472 7.58307C103.488 7.58307 106.567 12.5153 106.567 18.8015C106.567 24.862 103.135 29.6975 97.7472 29.6975C92.1345 29.6975 89.0556 24.7653 89.0556 18.6081C89.0556 12.3864 92.1666 7.58307 97.7472 7.58307ZM97.7793 11.6449C94.9248 11.6449 94.7645 15.5456 94.7645 17.9633C94.7645 20.3811 94.7324 25.6035 97.7472 25.6035C100.73 25.6035 100.89 21.4127 100.89 18.866C100.89 17.1896 100.826 15.191 100.313 13.5791C99.864 12.1929 98.998 11.6449 97.7793 11.6449ZM113.976 29.2785H110.127C109.742 29.2462 109.422 28.9561 109.422 28.5693V8.64689C109.454 8.29228 109.774 8.00215 110.159 8.00215H113.751C114.072 8.03439 114.361 8.26004 114.425 8.55017V11.5804H114.489C115.579 8.87254 117.087 7.55083 119.749 7.55083C121.481 7.55083 123.181 8.16333 124.239 9.90412C125.233 11.4837 125.233 14.1916 125.233 16.0936V28.6337C125.201 28.9883 124.88 29.2462 124.496 29.2462H120.679C120.326 29.214 120.037 28.9561 120.005 28.6337V17.8344C120.005 15.6423 120.262 12.4831 117.6 12.4831C116.67 12.4831 115.804 13.1278 115.355 14.0627C114.81 15.2877 114.746 16.4804 114.746 17.8344V28.5693C114.746 28.9561 114.393 29.2785 113.976 29.2785ZM62.5638 19.7686C62.5638 21.2837 62.5959 22.541 61.8262 23.8949C61.2168 24.991 60.2225 25.6679 59.1642 25.6679C57.6888 25.6679 56.8229 24.5396 56.8229 22.8633C56.8229 19.5429 59.7735 18.9627 62.5638 18.9627V19.7686ZM66.4446 29.2462C66.188 29.4719 65.8352 29.5041 65.5466 29.3429C64.2637 28.2791 64.0392 27.7633 63.3336 26.764C61.2168 28.9239 59.7094 29.6008 56.9832 29.6008C53.7439 29.6008 51.2102 27.6021 51.2102 23.5403C51.2102 20.3811 52.91 18.2535 55.3155 17.1896C57.4002 16.2548 60.3508 16.0936 62.5638 15.8357V15.3199C62.5638 14.385 62.628 13.3212 62.0827 12.5153C61.6017 11.8061 60.7036 11.516 59.9018 11.516C58.4265 11.516 57.1115 12.2896 56.7908 13.837C56.7267 14.1916 56.4701 14.514 56.1173 14.5462L52.3648 14.1271C52.0441 14.0627 51.6913 13.8048 51.7875 13.3212C52.6535 8.7436 56.7587 7.38965 60.415 7.38965C62.3072 7.38965 64.7447 7.90544 66.2201 9.32386C68.1123 11.0969 67.9199 13.4502 67.9199 15.9969V22.0574C67.9199 23.8627 68.6576 24.6686 69.3632 25.6679C69.6197 26.0225 69.6518 26.4416 69.3311 26.6995C68.6255 27.3443 67.2464 28.5693 66.4446 29.2462ZM11.9536 19.7686C11.9536 21.2837 11.9857 22.541 11.216 23.8949C10.6066 24.991 9.64442 25.6679 8.55396 25.6679C7.07863 25.6679 6.21267 24.5396 6.21267 22.8633C6.21267 19.5429 9.16333 18.9627 11.9536 18.9627V19.7686ZM15.8665 29.2462C15.6099 29.4719 15.2571 29.5041 14.9684 29.3429C13.6855 28.2791 13.461 27.7633 12.7554 26.764C10.6387 28.9239 9.13126 29.6008 6.40511 29.6008C3.1658 29.6008 0.63208 27.6021 0.63208 23.5403C0.63208 20.3811 2.33192 18.2535 4.73734 17.1896C6.82205 16.2548 9.7727 16.0936 11.9857 15.8357V15.3199C11.9857 14.385 12.0498 13.3212 11.5046 12.5153C11.0235 11.8061 10.1255 11.516 9.32369 11.516C7.84836 11.516 6.5334 12.2896 6.21267 13.837C6.14853 14.1916 5.89195 14.514 5.53915 14.5462L1.78669 14.1271C1.46596 14.0627 1.11317 13.8048 1.20938 13.3212C2.07534 8.7436 6.1806 7.38965 9.83685 7.38965C11.7291 7.38965 14.1666 7.90544 15.6419 9.32386C17.5342 11.0969 17.3418 13.4502 17.3418 15.9969V22.0574C17.3418 23.8627 18.0794 24.6686 18.785 25.6679C19.0416 26.0225 19.0737 26.4416 18.785 26.6995C18.0474 27.3443 16.6362 28.5693 15.8665 29.2462Z" fill="black"/>
</g>
<defs>
<clipPath id="clip0_10_142">
<rect width="125.25" height="45" fill="white" transform="translate(0.375 0.13916)"/>
</clipPath>
</defs>
</svg>
