<svg width="217" height="60" viewBox="0 0 217 60" fill="none" xmlns="http://www.w3.org/2000/svg">
<rect x="1.11914" y="0.5" width="215" height="59" rx="4.5" fill="white" stroke="#DADADA"/>
<path fill-rule="evenodd" clip-rule="evenodd" d="M51.393 45.0772C50.987 46.1132 50.049 47.5692 48.705 48.6052C47.935 49.1932 47.011 49.7672 45.751 50.1452C44.407 50.5512 42.741 50.6772 40.669 50.6772H21.769C19.697 50.6772 18.045 50.5372 16.687 50.1452C15.427 49.7672 14.503 49.2072 13.733 48.6052C12.403 47.5832 11.451 46.1132 11.045 45.0772C10.233 42.9912 10.219 40.6252 10.219 39.1272V20.2272C10.219 18.7292 10.233 16.3632 11.045 14.2772C11.451 13.2412 12.389 11.7852 13.733 10.7492C14.503 10.1612 15.427 9.58725 16.687 9.20925C18.045 8.81725 19.697 8.67725 21.769 8.67725H40.669C42.741 8.67725 44.393 8.81725 45.751 9.20925C47.011 9.58725 47.935 10.1472 48.705 10.7492C50.035 11.7712 50.987 13.2412 51.393 14.2772C52.219 16.3632 52.219 18.7432 52.219 20.2272V39.1272C52.219 40.6252 52.205 42.9912 51.393 45.0772Z" fill="url(#paint0_linear_105_135)"/>
<path d="M34.8167 34.0314C34.7607 33.5274 34.5927 33.1634 34.2567 32.8274C33.6267 32.1694 32.5207 31.7354 31.2187 31.7354C29.9167 31.7354 28.8107 32.1554 28.1807 32.8274C27.8587 33.1774 27.6767 33.5274 27.6207 34.0314C27.5087 35.0114 27.5787 35.8514 27.6907 37.2094C27.8027 38.4974 28.0127 40.2194 28.2787 41.9554C28.4747 43.2014 28.6287 43.8734 28.7687 44.3494C29.0067 45.1334 29.8607 45.8054 31.2187 45.8054C32.5767 45.8054 33.4447 45.1194 33.6687 44.3494C33.8087 43.8734 33.9627 43.2014 34.1587 41.9554C34.4247 40.2054 34.6347 38.4974 34.7467 37.2094C34.8727 35.8514 34.9287 35.0114 34.8167 34.0314Z" fill="white"/>
<path d="M34.6629 26.8913C34.6629 28.7953 33.1229 30.3353 31.2189 30.3353C29.3149 30.3353 27.7749 28.7953 27.7749 26.8913C27.7749 24.9873 29.3149 23.4473 31.2189 23.4473C33.1229 23.4473 34.6629 25.0013 34.6629 26.8913Z" fill="white"/>
<path d="M31.1768 13.3252C23.1408 13.3532 16.5608 19.8772 16.4488 27.9132C16.3648 34.4232 20.5228 39.9952 26.3328 42.0392C26.4728 42.0952 26.6128 41.9692 26.5988 41.8292C26.5288 41.3252 26.4448 40.8212 26.3888 40.3172C26.3608 40.1352 26.2488 39.9952 26.0948 39.9112C21.5028 37.9092 18.2968 33.3032 18.3528 27.9692C18.4228 20.9692 24.1348 15.2712 31.1208 15.2152C38.2748 15.1592 44.1128 20.9552 44.1128 28.0952C44.1128 33.3732 40.9208 37.9092 36.3708 39.9112C36.2028 39.9812 36.0908 40.1352 36.0768 40.3172C36.0068 40.8212 35.9368 41.3252 35.8668 41.8292C35.8388 41.9832 35.9928 42.0952 36.1328 42.0392C41.8868 40.0232 46.0168 34.5352 46.0168 28.0952C45.9888 19.9472 39.3388 13.3112 31.1768 13.3252Z" fill="white"/>
<path d="M30.841 18.2253C25.605 18.4213 21.405 22.7473 21.335 27.9833C21.293 31.4273 23.015 34.4793 25.661 36.2853C25.787 36.3693 25.969 36.2713 25.969 36.1173C25.927 35.5153 25.927 34.9833 25.955 34.4233C25.969 34.2413 25.899 34.0733 25.759 33.9473C24.149 32.4353 23.169 30.2793 23.225 27.8993C23.337 23.6993 26.711 20.2833 30.911 20.1153C35.475 19.9333 39.227 23.6013 39.227 28.1093C39.227 30.4053 38.247 32.4773 36.693 33.9473C36.567 34.0733 36.497 34.2413 36.497 34.4233C36.525 34.9693 36.511 35.5013 36.483 36.1033C36.469 36.2573 36.651 36.3693 36.791 36.2713C39.395 34.4933 41.117 31.4833 41.117 28.0953C41.131 22.5233 36.469 18.0013 30.841 18.2253Z" fill="white"/>
<path d="M197.692 35.2699C199.974 35.2699 201.609 36.533 201.66 38.3553H199.671C199.582 37.4448 198.81 36.8858 197.633 36.8858C196.489 36.8858 195.723 37.4142 195.723 38.2186C195.723 38.8349 196.232 39.2475 197.299 39.511L199.033 39.9126C201.11 40.4117 201.894 41.1757 201.894 42.6856C201.894 44.5469 200.13 45.8198 197.612 45.8198C195.182 45.8198 193.547 44.5762 193.391 42.694H195.487C195.635 43.6825 196.429 44.2123 197.711 44.2123C198.974 44.2123 199.77 43.6923 199.77 42.8711C199.77 42.2325 199.377 41.8909 198.301 41.6163L196.459 41.166C194.597 40.7142 193.657 39.7648 193.657 38.3343C193.655 36.5163 195.291 35.2699 197.692 35.2699ZM190.057 32.9499V35.3884H192.016V37.0628H190.057V42.7456C190.057 43.6281 190.45 44.0394 191.312 44.0394C191.527 44.0394 191.87 44.0087 192.006 43.9892V45.6539C191.772 45.7138 191.301 45.7515 190.832 45.7515C188.745 45.7515 187.932 44.9679 187.932 42.9701V37.0628H186.432V35.387H187.932V32.9485H190.057V32.9499ZM181.175 35.2699C183.457 35.2699 185.092 36.533 185.143 38.3553H183.153C183.064 37.4448 182.291 36.8858 181.115 36.8858C179.97 36.8858 179.206 37.4142 179.206 38.2186C179.206 38.8349 179.715 39.2475 180.781 39.511L182.516 39.9126C184.592 40.4117 185.377 41.1757 185.377 42.6856C185.377 44.5469 183.613 45.8198 181.095 45.8198C178.665 45.8198 177.03 44.5762 176.873 42.694H178.969C179.117 43.6825 179.911 44.2123 181.193 44.2123C182.457 44.2123 183.252 43.6923 183.252 42.8711C183.252 42.2325 182.86 41.8909 181.782 41.6163L179.941 41.166C178.079 40.7142 177.138 39.7648 177.138 38.3343C177.138 36.5163 178.774 35.2699 181.175 35.2699ZM172.881 41.8352V41.0405L170.411 41.198C169.041 41.2761 168.316 41.8045 168.316 42.6968C168.316 43.5584 169.07 44.1663 170.247 44.1663C171.744 44.1663 172.881 43.168 172.881 41.8352ZM166.191 42.7456C166.191 40.9443 167.573 39.8861 170.14 39.7285L172.882 39.5724V38.7889C172.882 37.6233 172.108 36.9973 170.764 36.9973C169.657 36.9973 168.844 37.5647 168.677 38.4459H166.699C166.757 36.6041 168.482 35.2629 170.824 35.2629C173.35 35.2629 174.986 36.5846 174.986 38.6327V45.6957H172.96V44.0018H172.91C172.333 45.1088 171.047 45.8435 169.657 45.8435C167.61 45.8421 166.191 44.5776 166.191 42.7456ZM162.813 38.9352C162.628 37.8478 161.774 37.0336 160.384 37.0336C158.757 37.0336 157.68 38.3957 157.68 40.5414C157.68 42.7358 158.767 44.0575 160.402 44.0575C161.717 44.0575 162.579 43.4009 162.813 42.2074H164.851C164.616 44.3726 162.883 45.8212 160.384 45.8212C157.445 45.8212 155.525 43.8136 155.525 40.5414C155.525 37.3375 157.445 35.2601 160.365 35.2601C163.01 35.2601 164.655 36.9248 164.833 38.9338H162.814V38.9352H162.813ZM146.088 40.5428C146.088 42.6592 147.166 44.0115 148.811 44.0115C150.438 44.0115 151.524 42.6396 151.524 40.5428C151.524 38.4654 150.437 37.0837 148.811 37.0837C147.164 37.0823 146.088 38.4445 146.088 40.5428ZM143.924 40.5428C143.924 37.3584 145.677 35.2824 148.234 35.2824C149.713 35.2824 150.879 35.967 151.467 37.1033H151.505V31.5585H153.629V45.6943H151.573V43.9418H151.534C150.926 45.1171 149.751 45.8031 148.252 45.8031C145.677 45.8031 143.924 43.7257 143.924 40.5428ZM140.304 40.5428C140.304 38.3176 139.284 37.0057 137.57 37.0057C135.855 37.0057 134.837 38.3288 134.837 40.5428C134.837 42.7749 135.856 44.0785 137.57 44.0785C139.284 44.0785 140.304 42.7749 140.304 40.5428ZM132.681 40.5428C132.681 37.2998 134.592 35.2615 137.57 35.2615C140.557 35.2615 142.458 37.2984 142.458 40.5428C142.458 43.7954 140.567 45.824 137.57 45.824C134.572 45.824 132.681 43.794 132.681 40.5428ZM123.93 39.0231H126.448C128.358 39.0231 129.446 37.9942 129.446 36.2124C129.446 34.4292 128.358 33.41 126.459 33.41H123.931V39.0231H123.93ZM127.036 31.5585C129.779 31.5585 131.69 33.4491 131.69 36.2012C131.69 38.9645 129.74 40.8634 126.968 40.8634H123.931V45.6929H121.736V31.5571H127.036V31.5585ZM107.706 39.5919H112.857C112.81 38.0137 111.799 36.9764 110.331 36.9764C108.87 36.9764 107.812 38.0332 107.706 39.5919ZM114.857 42.6675C114.574 44.5385 112.75 45.8226 110.417 45.8226C107.42 45.8226 105.559 43.8136 105.559 40.5916C105.559 37.3584 107.431 35.2615 110.33 35.2615C113.181 35.2615 114.972 37.2204 114.972 40.3462V41.0712H107.693V41.198C107.693 42.9603 108.8 44.1175 110.465 44.1175C111.64 44.1175 112.56 43.5584 112.846 42.6675H114.857ZM101.292 31.5585H103.409V45.6943H101.292V31.5585ZM97.3245 40.5428C97.3245 38.4556 96.2468 37.0837 94.6017 37.0837C92.9858 37.0837 91.8983 38.4849 91.8983 40.5428C91.8983 42.6187 92.9858 44.0115 94.6017 44.0115C96.2468 44.0101 97.3245 42.6466 97.3245 40.5428ZM99.5009 40.5428C99.5009 43.7452 97.786 45.8031 95.1998 45.8031C93.7289 45.8031 92.5647 45.1464 91.9569 43.999H91.9081V49.1032H89.7917V35.387H91.8398V37.1019H91.8774C92.4644 35.9949 93.7191 35.281 95.1594 35.281C97.7749 35.281 99.5009 37.3486 99.5009 40.5428ZM85.9019 40.5428C85.9019 38.4556 84.8241 37.0837 83.179 37.0837C81.5631 37.0837 80.4756 38.4849 80.4756 40.5428C80.4756 42.6187 81.5631 44.0115 83.179 44.0115C84.8241 44.0101 85.9019 42.6466 85.9019 40.5428ZM88.0768 40.5428C88.0768 43.7452 86.3605 45.8031 83.7757 45.8031C82.3048 45.8031 81.1407 45.1464 80.5328 43.999H80.484V49.1032H78.3676V35.387H80.4143V37.1019H80.4519C81.0403 35.9949 82.2951 35.281 83.7353 35.281C86.3522 35.281 88.0768 37.3486 88.0768 40.5428ZM68.353 40.1106H72.6249L70.5182 33.9091H70.4597L68.353 40.1106ZM73.184 41.8742H67.7954L66.5015 45.6943H64.2192L69.3234 31.5585H71.6936L76.7977 45.6943H74.475L73.184 41.8742Z" fill="black"/>
<path d="M65.6365 20.9297L66.7087 20.8359C66.7595 21.2656 66.8767 21.6191 67.0603 21.8965C67.2478 22.1699 67.5369 22.3926 67.9275 22.5645C68.3181 22.7324 68.7576 22.8164 69.2458 22.8164C69.6794 22.8164 70.0623 22.752 70.3943 22.623C70.7263 22.4941 70.9724 22.3184 71.1326 22.0957C71.2966 21.8691 71.3787 21.623 71.3787 21.3574C71.3787 21.0879 71.3005 20.8535 71.1443 20.6543C70.988 20.4512 70.7302 20.2812 70.3708 20.1445C70.1404 20.0547 69.6306 19.916 68.8416 19.7285C68.0525 19.5371 67.4998 19.3574 67.1833 19.1895C66.7732 18.9746 66.4666 18.709 66.2634 18.3926C66.0642 18.0723 65.9646 17.7148 65.9646 17.3203C65.9646 16.8867 66.0876 16.4824 66.3337 16.1074C66.5798 15.7285 66.9392 15.4414 67.4119 15.2461C67.8845 15.0508 68.4099 14.9531 68.988 14.9531C69.6248 14.9531 70.1853 15.0566 70.6697 15.2637C71.158 15.4668 71.533 15.7676 71.7947 16.166C72.0564 16.5645 72.197 17.0156 72.2166 17.5195L71.1267 17.6016C71.0681 17.0586 70.8689 16.6484 70.5291 16.3711C70.1931 16.0938 69.6951 15.9551 69.0349 15.9551C68.3474 15.9551 67.8455 16.082 67.5291 16.3359C67.2166 16.5859 67.0603 16.8887 67.0603 17.2441C67.0603 17.5527 67.1716 17.8066 67.3943 18.0059C67.613 18.2051 68.1833 18.4102 69.1052 18.6211C70.031 18.8281 70.6658 19.0098 71.0095 19.166C71.5095 19.3965 71.8787 19.6895 72.1169 20.0449C72.3552 20.3965 72.4744 20.8027 72.4744 21.2637C72.4744 21.7207 72.3435 22.1523 72.0818 22.5586C71.8201 22.9609 71.4431 23.2754 70.9509 23.502C70.4626 23.7246 69.9119 23.8359 69.2986 23.8359C68.5212 23.8359 67.8689 23.7227 67.3416 23.4961C66.8181 23.2695 66.406 22.9297 66.1052 22.4766C65.8083 22.0195 65.6521 21.5039 65.6365 20.9297ZM73.4998 20.5781C73.4998 19.4258 73.8201 18.5723 74.4607 18.0176C74.9958 17.5566 75.6482 17.3262 76.4177 17.3262C77.2732 17.3262 77.9724 17.6074 78.5154 18.1699C79.0583 18.7285 79.3298 19.502 79.3298 20.4902C79.3298 21.291 79.2087 21.9219 78.9666 22.3828C78.7283 22.8398 78.3787 23.1953 77.9177 23.4492C77.4607 23.7031 76.9607 23.8301 76.4177 23.8301C75.5466 23.8301 74.8416 23.5508 74.3025 22.9922C73.7673 22.4336 73.4998 21.6289 73.4998 20.5781ZM74.5837 20.5781C74.5837 21.375 74.7576 21.9727 75.1052 22.3711C75.4529 22.7656 75.8904 22.9629 76.4177 22.9629C76.9412 22.9629 77.3767 22.7637 77.7244 22.3652C78.072 21.9668 78.2458 21.3594 78.2458 20.543C78.2458 19.7734 78.0701 19.1914 77.7185 18.7969C77.3708 18.3984 76.9373 18.1992 76.4177 18.1992C75.8904 18.1992 75.4529 18.3965 75.1052 18.791C74.7576 19.1855 74.5837 19.7812 74.5837 20.5781ZM80.1794 20.5781C80.1794 19.4258 80.4998 18.5723 81.1404 18.0176C81.6755 17.5566 82.3279 17.3262 83.0974 17.3262C83.9529 17.3262 84.6521 17.6074 85.1951 18.1699C85.738 18.7285 86.0095 19.502 86.0095 20.4902C86.0095 21.291 85.8884 21.9219 85.6462 22.3828C85.408 22.8398 85.0583 23.1953 84.5974 23.4492C84.1404 23.7031 83.6404 23.8301 83.0974 23.8301C82.2263 23.8301 81.5212 23.5508 80.9822 22.9922C80.447 22.4336 80.1794 21.6289 80.1794 20.5781ZM81.2634 20.5781C81.2634 21.375 81.4373 21.9727 81.7849 22.3711C82.1326 22.7656 82.5701 22.9629 83.0974 22.9629C83.6208 22.9629 84.0564 22.7637 84.4041 22.3652C84.7517 21.9668 84.9255 21.3594 84.9255 20.543C84.9255 19.7734 84.7498 19.1914 84.3982 18.7969C84.0505 18.3984 83.6169 18.1992 83.0974 18.1992C82.5701 18.1992 82.1326 18.3965 81.7849 18.791C81.4373 19.1855 81.2634 19.7812 81.2634 20.5781ZM87.2517 23.6895V17.4668H88.2009V18.3516C88.658 17.668 89.3181 17.3262 90.1814 17.3262C90.5564 17.3262 90.9001 17.3945 91.2126 17.5312C91.5291 17.6641 91.7654 17.8398 91.9216 18.0586C92.0779 18.2773 92.1873 18.5371 92.2498 18.8379C92.2888 19.0332 92.3083 19.375 92.3083 19.8633V23.6895H91.2537V19.9043C91.2537 19.4746 91.2126 19.1543 91.1306 18.9434C91.0486 18.7285 90.9021 18.5586 90.6912 18.4336C90.4841 18.3047 90.24 18.2402 89.9587 18.2402C89.5095 18.2402 89.1208 18.3828 88.7927 18.668C88.4685 18.9531 88.3064 19.4941 88.3064 20.291V23.6895H87.2517ZM96.8787 20.5781C96.8787 19.4258 97.199 18.5723 97.8396 18.0176C98.3748 17.5566 99.0271 17.3262 99.7966 17.3262C100.652 17.3262 101.351 17.6074 101.894 18.1699C102.437 18.7285 102.709 19.502 102.709 20.4902C102.709 21.291 102.588 21.9219 102.345 22.3828C102.107 22.8398 101.758 23.1953 101.297 23.4492C100.84 23.7031 100.34 23.8301 99.7966 23.8301C98.9255 23.8301 98.2205 23.5508 97.6814 22.9922C97.1462 22.4336 96.8787 21.6289 96.8787 20.5781ZM97.9626 20.5781C97.9626 21.375 98.1365 21.9727 98.4841 22.3711C98.8318 22.7656 99.2693 22.9629 99.7966 22.9629C100.32 22.9629 100.756 22.7637 101.103 22.3652C101.451 21.9668 101.625 21.3594 101.625 20.543C101.625 19.7734 101.449 19.1914 101.097 18.7969C100.75 18.3984 100.316 18.1992 99.7966 18.1992C99.2693 18.1992 98.8318 18.3965 98.4841 18.791C98.1365 19.1855 97.9626 19.7812 97.9626 20.5781ZM103.951 23.6895V17.4668H104.9V18.3516C105.357 17.668 106.017 17.3262 106.881 17.3262C107.256 17.3262 107.599 17.3945 107.912 17.5312C108.228 17.6641 108.465 17.8398 108.621 18.0586C108.777 18.2773 108.886 18.5371 108.949 18.8379C108.988 19.0332 109.008 19.375 109.008 19.8633V23.6895H107.953V19.9043C107.953 19.4746 107.912 19.1543 107.83 18.9434C107.748 18.7285 107.601 18.5586 107.39 18.4336C107.183 18.3047 106.939 18.2402 106.658 18.2402C106.209 18.2402 105.82 18.3828 105.492 18.668C105.168 18.9531 105.006 19.4941 105.006 20.291V23.6895H103.951Z" fill="#737373"/>
<defs>
<linearGradient id="paint0_linear_105_135" x1="31.219" y1="8.67725" x2="31.219" y2="50.6772" gradientUnits="userSpaceOnUse">
<stop stop-color="#F452FF"/>
<stop offset="1" stop-color="#832BC1"/>
</linearGradient>
</defs>
</svg>
