<svg width="217" height="60" viewBox="0 0 217 60" fill="none" xmlns="http://www.w3.org/2000/svg">
<rect x="1.11914" y="0.5" width="215" height="59" rx="4.5" fill="white" stroke="#DADADA"/>
<path fill-rule="evenodd" clip-rule="evenodd" d="M51.393 45.0772C50.987 46.1132 50.049 47.5692 48.705 48.6052C47.935 49.1932 47.011 49.7672 45.751 50.1452C44.407 50.5512 42.741 50.6772 40.669 50.6772H21.769C19.697 50.6772 18.045 50.5372 16.687 50.1452C15.427 49.7672 14.503 49.2072 13.733 48.6052C12.403 47.5832 11.451 46.1132 11.045 45.0772C10.233 42.9912 10.219 40.6252 10.219 39.1272V20.2272C10.219 18.7292 10.233 16.3632 11.045 14.2772C11.451 13.2412 12.389 11.7852 13.733 10.7492C14.503 10.1612 15.427 9.58725 16.687 9.20925C18.045 8.81725 19.697 8.67725 21.769 8.67725H40.669C42.741 8.67725 44.393 8.81725 45.751 9.20925C47.011 9.58725 47.935 10.1472 48.705 10.7492C50.035 11.7712 50.987 13.2412 51.393 14.2772C52.219 16.3632 52.219 18.7432 52.219 20.2272V39.1272C52.219 40.6252 52.205 42.9912 51.393 45.0772Z" fill="url(#paint0_linear_105_135)"/>
<path d="M34.8167 34.0314C34.7607 33.5274 34.5927 33.1634 34.2567 32.8274C33.6267 32.1694 32.5207 31.7354 31.2187 31.7354C29.9167 31.7354 28.8107 32.1554 28.1807 32.8274C27.8587 33.1774 27.6767 33.5274 27.6207 34.0314C27.5087 35.0114 27.5787 35.8514 27.6907 37.2094C27.8027 38.4974 28.0127 40.2194 28.2787 41.9554C28.4747 43.2014 28.6287 43.8734 28.7687 44.3494C29.0067 45.1334 29.8607 45.8054 31.2187 45.8054C32.5767 45.8054 33.4447 45.1194 33.6687 44.3494C33.8087 43.8734 33.9627 43.2014 34.1587 41.9554C34.4247 40.2054 34.6347 38.4974 34.7467 37.2094C34.8727 35.8514 34.9287 35.0114 34.8167 34.0314Z" fill="white"/>
<path d="M34.6629 26.8913C34.6629 28.7953 33.1229 30.3353 31.2189 30.3353C29.3149 30.3353 27.7749 28.7953 27.7749 26.8913C27.7749 24.9873 29.3149 23.4473 31.2189 23.4473C33.1229 23.4473 34.6629 25.0013 34.6629 26.8913Z" fill="white"/>
<path d="M31.1768 13.3252C23.1408 13.3532 16.5608 19.8772 16.4488 27.9132C16.3648 34.4232 20.5228 39.9952 26.3328 42.0392C26.4728 42.0952 26.6128 41.9692 26.5988 41.8292C26.5288 41.3252 26.4448 40.8212 26.3888 40.3172C26.3608 40.1352 26.2488 39.9952 26.0948 39.9112C21.5028 37.9092 18.2968 33.3032 18.3528 27.9692C18.4228 20.9692 24.1348 15.2712 31.1208 15.2152C38.2748 15.1592 44.1128 20.9552 44.1128 28.0952C44.1128 33.3732 40.9208 37.9092 36.3708 39.9112C36.2028 39.9812 36.0908 40.1352 36.0768 40.3172C36.0068 40.8212 35.9368 41.3252 35.8668 41.8292C35.8388 41.9832 35.9928 42.0952 36.1328 42.0392C41.8868 40.0232 46.0168 34.5352 46.0168 28.0952C45.9888 19.9472 39.3388 13.3112 31.1768 13.3252Z" fill="white"/>
<path d="M30.841 18.2253C25.605 18.4213 21.405 22.7473 21.335 27.9833C21.293 31.4273 23.015 34.4793 25.661 36.2853C25.787 36.3693 25.969 36.2713 25.969 36.1173C25.927 35.5153 25.927 34.9833 25.955 34.4233C25.969 34.2413 25.899 34.0733 25.759 33.9473C24.149 32.4353 23.169 30.2793 23.225 27.8993C23.337 23.6993 26.711 20.2833 30.911 20.1153C35.475 19.9333 39.227 23.6013 39.227 28.1093C39.227 30.4053 38.247 32.4773 36.693 33.9473C36.567 34.0733 36.497 34.2413 36.497 34.4233C36.525 34.9693 36.511 35.5013 36.483 36.1033C36.469 36.2573 36.651 36.3693 36.791 36.2713C39.395 34.4933 41.117 31.4833 41.117 28.0953C41.131 22.5233 36.469 18.0013 30.841 18.2253Z" fill="white"/>
<path d="M197.692 35.2699C199.974 35.2699 201.609 36.533 201.66 38.3553H199.671C199.582 37.4448 198.81 36.8858 197.633 36.8858C196.489 36.8858 195.723 37.4142 195.723 38.2186C195.723 38.8349 196.232 39.2475 197.299 39.511L199.033 39.9126C201.11 40.4117 201.894 41.1757 201.894 42.6856C201.894 44.5469 200.13 45.8198 197.612 45.8198C195.182 45.8198 193.547 44.5762 193.391 42.694H195.487C195.635 43.6825 196.429 44.2123 197.711 44.2123C198.974 44.2123 199.77 43.6923 199.77 42.8711C199.77 42.2325 199.377 41.8909 198.301 41.6163L196.459 41.166C194.597 40.7142 193.657 39.7648 193.657 38.3343C193.655 36.5163 195.291 35.2699 197.692 35.2699ZM190.057 32.9499V35.3884H192.016V37.0628H190.057V42.7456C190.057 43.6281 190.45 44.0394 191.312 44.0394C191.527 44.0394 191.87 44.0087 192.006 43.9892V45.6539C191.772 45.7138 191.301 45.7515 190.832 45.7515C188.745 45.7515 187.932 44.9679 187.932 42.9701V37.0628H186.432V35.387H187.932V32.9485H190.057V32.9499ZM181.175 35.2699C183.457 35.2699 185.092 36.533 185.142 38.3553H183.153C183.064 37.4448 182.291 36.8858 181.115 36.8858C179.97 36.8858 179.206 37.4142 179.206 38.2186C179.206 38.8349 179.715 39.2475 180.781 39.511L182.516 39.9126C184.592 40.4117 185.377 41.1757 185.377 42.6856C185.377 44.5469 183.613 45.8198 181.095 45.8198C178.665 45.8198 177.03 44.5762 176.873 42.694H178.969C179.117 43.6825 179.911 44.2123 181.193 44.2123C182.457 44.2123 183.252 43.6923 183.252 42.8711C183.252 42.2325 182.86 41.8909 181.782 41.6163L179.941 41.166C178.079 40.7142 177.138 39.7648 177.138 38.3343C177.138 36.5163 178.774 35.2699 181.175 35.2699ZM172.88 41.8352V41.0405L170.411 41.198C169.041 41.2761 168.316 41.8045 168.316 42.6968C168.316 43.5584 169.07 44.1663 170.247 44.1663C171.744 44.1663 172.88 43.168 172.88 41.8352ZM166.191 42.7456C166.191 40.9443 167.573 39.8861 170.139 39.7285L172.882 39.5724V38.7889C172.882 37.6233 172.108 36.9973 170.764 36.9973C169.657 36.9973 168.844 37.5647 168.677 38.4459H166.699C166.757 36.6041 168.482 35.2629 170.824 35.2629C173.35 35.2629 174.986 36.5846 174.986 38.6327V45.6957H172.96V44.0018H172.91C172.333 45.1088 171.047 45.8435 169.657 45.8435C167.61 45.8421 166.191 44.5776 166.191 42.7456ZM162.813 38.9352C162.628 37.8478 161.774 37.0336 160.384 37.0336C158.757 37.0336 157.68 38.3957 157.68 40.5414C157.68 42.7358 158.767 44.0575 160.402 44.0575C161.717 44.0575 162.579 43.4009 162.813 42.2074H164.851C164.616 44.3726 162.883 45.8212 160.384 45.8212C157.445 45.8212 155.525 43.8136 155.525 40.5414C155.525 37.3375 157.445 35.2601 160.365 35.2601C163.01 35.2601 164.655 36.9248 164.833 38.9338H162.814V38.9352H162.813ZM146.088 40.5428C146.088 42.6592 147.166 44.0115 148.811 44.0115C150.438 44.0115 151.524 42.6396 151.524 40.5428C151.524 38.4654 150.437 37.0837 148.811 37.0837C147.164 37.0823 146.088 38.4445 146.088 40.5428ZM143.924 40.5428C143.924 37.3584 145.677 35.2824 148.234 35.2824C149.713 35.2824 150.879 35.967 151.467 37.1033H151.505V31.5585H153.629V45.6943H151.573V43.9418H151.534C150.926 45.1171 149.751 45.8031 148.252 45.8031C145.677 45.8031 143.924 43.7257 143.924 40.5428ZM140.304 40.5428C140.304 38.3176 139.284 37.0057 137.57 37.0057C135.855 37.0057 134.837 38.3288 134.837 40.5428C134.837 42.7749 135.856 44.0784 137.57 44.0784C139.284 44.0784 140.304 42.7749 140.304 40.5428ZM132.681 40.5428C132.681 37.2998 134.592 35.2615 137.57 35.2615C140.557 35.2615 142.458 37.2984 142.458 40.5428C142.458 43.7954 140.567 45.824 137.57 45.824C134.572 45.824 132.681 43.794 132.681 40.5428ZM123.93 39.0231H126.448C128.358 39.0231 129.446 37.9942 129.446 36.2124C129.446 34.4292 128.358 33.41 126.459 33.41H123.931V39.0231H123.93ZM127.036 31.5585C129.779 31.5585 131.69 33.4491 131.69 36.2012C131.69 38.9645 129.74 40.8634 126.968 40.8634H123.931V45.6929H121.736V31.5571H127.036V31.5585ZM107.706 39.5919H112.857C112.81 38.0137 111.799 36.9764 110.331 36.9764C108.87 36.9764 107.812 38.0332 107.706 39.5919ZM114.857 42.6675C114.574 44.5385 112.75 45.8226 110.417 45.8226C107.42 45.8226 105.559 43.8136 105.559 40.5916C105.559 37.3584 107.431 35.2615 110.33 35.2615C113.181 35.2615 114.972 37.2204 114.972 40.3462V41.0712H107.693V41.198C107.693 42.9603 108.8 44.1175 110.465 44.1175C111.64 44.1175 112.56 43.5584 112.846 42.6675H114.857ZM101.292 31.5585H103.409V45.6943H101.292V31.5585ZM97.3245 40.5428C97.3245 38.4556 96.2468 37.0837 94.6017 37.0837C92.9858 37.0837 91.8983 38.4849 91.8983 40.5428C91.8983 42.6187 92.9858 44.0115 94.6017 44.0115C96.2468 44.0101 97.3245 42.6466 97.3245 40.5428ZM99.5009 40.5428C99.5009 43.7452 97.786 45.8031 95.1998 45.8031C93.7289 45.8031 92.5647 45.1464 91.9569 43.999H91.9081V49.1032H89.7917V35.387H91.8398V37.1019H91.8774C92.4644 35.9949 93.7191 35.281 95.1594 35.281C97.7749 35.281 99.5009 37.3486 99.5009 40.5428ZM85.9019 40.5428C85.9019 38.4556 84.8241 37.0837 83.179 37.0837C81.5631 37.0837 80.4756 38.4849 80.4756 40.5428C80.4756 42.6187 81.5631 44.0115 83.179 44.0115C84.8241 44.0101 85.9019 42.6466 85.9019 40.5428ZM88.0768 40.5428C88.0768 43.7452 86.3605 45.8031 83.7757 45.8031C82.3048 45.8031 81.1407 45.1464 80.5328 43.999H80.484V49.1032H78.3676V35.387H80.4143V37.1019H80.4519C81.0403 35.9949 82.2951 35.281 83.7353 35.281C86.3522 35.281 88.0768 37.3486 88.0768 40.5428ZM68.353 40.1106H72.6249L70.5182 33.9091H70.4597L68.353 40.1106ZM73.184 41.8742H67.7954L66.5015 45.6943H64.2192L69.3234 31.5585H71.6936L76.7977 45.6943H74.475L73.184 41.8742Z" fill="black"/>
<path d="M72.1521 20.6777L73.2888 20.9648C73.0505 21.8984 72.6208 22.6113 71.9998 23.1035C71.3826 23.5918 70.6267 23.8359 69.7322 23.8359C68.8064 23.8359 68.0525 23.6484 67.4705 23.2734C66.8923 22.8945 66.4509 22.3477 66.1462 21.6328C65.8455 20.918 65.6951 20.1504 65.6951 19.3301C65.6951 18.4355 65.865 17.6562 66.2048 16.9922C66.5486 16.3242 67.0349 15.8184 67.6638 15.4746C68.2966 15.127 68.9919 14.9531 69.7498 14.9531C70.6091 14.9531 71.3318 15.1719 71.9177 15.6094C72.5037 16.0469 72.9119 16.6621 73.1423 17.4551L72.0232 17.7188C71.824 17.0938 71.5349 16.6387 71.156 16.3535C70.7771 16.0684 70.3005 15.9258 69.7263 15.9258C69.0662 15.9258 68.5134 16.084 68.0681 16.4004C67.6267 16.7168 67.3162 17.1426 67.1365 17.6777C66.9568 18.209 66.8669 18.7578 66.8669 19.3242C66.8669 20.0547 66.9724 20.6934 67.1833 21.2402C67.3982 21.7832 67.7302 22.1895 68.1794 22.459C68.6287 22.7285 69.115 22.8633 69.6384 22.8633C70.2751 22.8633 70.8142 22.6797 71.2556 22.3125C71.697 21.9453 71.9958 21.4004 72.1521 20.6777ZM74.5544 17.4668H75.6091V20.1562C75.9451 20.1562 76.1794 20.0918 76.3123 19.9629C76.449 19.834 76.6482 19.459 76.9099 18.8379C77.1169 18.3457 77.2849 18.0215 77.4138 17.8652C77.5427 17.709 77.6912 17.6035 77.8591 17.5488C78.0271 17.4941 78.2966 17.4668 78.6677 17.4668H78.8787V18.3398L78.5857 18.334C78.3083 18.334 78.1306 18.375 78.0525 18.457C77.9705 18.543 77.8455 18.7988 77.6775 19.2246C77.5173 19.6309 77.3708 19.9121 77.238 20.0684C77.1052 20.2246 76.9001 20.3672 76.6228 20.4961C77.0759 20.6172 77.5212 21.0391 77.9587 21.7617L79.113 23.6895H77.9529L76.8279 21.7617C76.5974 21.375 76.3962 21.1211 76.2244 21C76.0525 20.875 75.8474 20.8125 75.6091 20.8125V23.6895H74.5544V17.4668ZM79.5583 20.5781C79.5583 19.4258 79.8787 18.5723 80.5193 18.0176C81.0544 17.5566 81.7068 17.3262 82.4763 17.3262C83.3318 17.3262 84.031 17.6074 84.574 18.1699C85.1169 18.7285 85.3884 19.502 85.3884 20.4902C85.3884 21.291 85.2673 21.9219 85.0251 22.3828C84.7869 22.8398 84.4373 23.1953 83.9763 23.4492C83.5193 23.7031 83.0193 23.8301 82.4763 23.8301C81.6052 23.8301 80.9001 23.5508 80.3611 22.9922C79.8259 22.4336 79.5583 21.6289 79.5583 20.5781ZM80.6423 20.5781C80.6423 21.375 80.8162 21.9727 81.1638 22.3711C81.5115 22.7656 81.949 22.9629 82.4763 22.9629C82.9998 22.9629 83.4353 22.7637 83.783 22.3652C84.1306 21.9668 84.3044 21.3594 84.3044 20.543C84.3044 19.7734 84.1287 19.1914 83.7771 18.7969C83.4294 18.3984 82.9958 18.1992 82.4763 18.1992C81.949 18.1992 81.5115 18.3965 81.1638 18.791C80.8162 19.1855 80.6423 19.7812 80.6423 20.5781ZM86.6306 26.0742V17.4668H87.5916V18.2754C87.8181 17.959 88.074 17.7227 88.3591 17.5664C88.6443 17.4062 88.99 17.3262 89.3962 17.3262C89.9275 17.3262 90.3962 17.4629 90.8025 17.7363C91.2087 18.0098 91.5154 18.3965 91.7224 18.8965C91.9294 19.3926 92.033 19.9375 92.033 20.5312C92.033 21.168 91.9177 21.7422 91.6873 22.2539C91.4607 22.7617 91.1287 23.1523 90.6912 23.4258C90.2576 23.6953 89.8005 23.8301 89.3201 23.8301C88.9685 23.8301 88.6521 23.7559 88.3708 23.6074C88.0935 23.459 87.865 23.2715 87.6853 23.0449V26.0742H86.6306ZM87.5857 20.6133C87.5857 21.4141 87.7478 22.0059 88.072 22.3887C88.3962 22.7715 88.7888 22.9629 89.2498 22.9629C89.7185 22.9629 90.1189 22.7656 90.4509 22.3711C90.7869 21.9727 90.9548 21.3574 90.9548 20.5254C90.9548 19.7324 90.7908 19.1387 90.4626 18.7441C90.1384 18.3496 89.7498 18.1523 89.2966 18.1523C88.8474 18.1523 88.449 18.3633 88.1013 18.7852C87.7576 19.2031 87.5857 19.8125 87.5857 20.6133ZM92.9177 20.5781C92.9177 19.4258 93.238 18.5723 93.8787 18.0176C94.4138 17.5566 95.0662 17.3262 95.8357 17.3262C96.6912 17.3262 97.3904 17.6074 97.9333 18.1699C98.4763 18.7285 98.7478 19.502 98.7478 20.4902C98.7478 21.291 98.6267 21.9219 98.3845 22.3828C98.1462 22.8398 97.7966 23.1953 97.3357 23.4492C96.8787 23.7031 96.3787 23.8301 95.8357 23.8301C94.9646 23.8301 94.2595 23.5508 93.7205 22.9922C93.1853 22.4336 92.9177 21.6289 92.9177 20.5781ZM94.0017 20.5781C94.0017 21.375 94.1755 21.9727 94.5232 22.3711C94.8708 22.7656 95.3083 22.9629 95.8357 22.9629C96.3591 22.9629 96.7947 22.7637 97.1423 22.3652C97.49 21.9668 97.6638 21.3594 97.6638 20.543C97.6638 19.7734 97.488 19.1914 97.1365 18.7969C96.7888 18.3984 96.3552 18.1992 95.8357 18.1992C95.3083 18.1992 94.8708 18.3965 94.5232 18.791C94.1755 19.1855 94.0017 19.7812 94.0017 20.5781ZM103.336 17.4668H104.39V20.0566H107.314V17.4668H108.369V23.6895H107.314V20.9297H104.39V23.6895H103.336V17.4668ZM114.023 22.9219C113.633 23.2539 113.256 23.4883 112.892 23.625C112.533 23.7617 112.146 23.8301 111.732 23.8301C111.049 23.8301 110.523 23.6641 110.156 23.332C109.789 22.9961 109.605 22.5684 109.605 22.0488C109.605 21.7441 109.674 21.4668 109.81 21.2168C109.951 20.9629 110.133 20.7598 110.355 20.6074C110.582 20.4551 110.836 20.3398 111.117 20.2617C111.324 20.207 111.636 20.1543 112.054 20.1035C112.906 20.002 113.533 19.8809 113.935 19.7402C113.939 19.5957 113.941 19.5039 113.941 19.4648C113.941 19.0352 113.842 18.7324 113.642 18.5566C113.373 18.3184 112.972 18.1992 112.441 18.1992C111.945 18.1992 111.578 18.2871 111.34 18.4629C111.105 18.6348 110.931 18.9414 110.818 19.3828L109.787 19.2422C109.881 18.8008 110.035 18.4453 110.25 18.1758C110.465 17.9023 110.775 17.6934 111.181 17.5488C111.588 17.4004 112.058 17.3262 112.594 17.3262C113.125 17.3262 113.556 17.3887 113.888 17.5137C114.22 17.6387 114.465 17.7969 114.621 17.9883C114.777 18.1758 114.886 18.4141 114.949 18.7031C114.984 18.8828 115.002 19.207 115.002 19.6758V21.082C115.002 22.0625 115.023 22.6836 115.066 22.9453C115.113 23.2031 115.203 23.4512 115.336 23.6895H114.234C114.125 23.4707 114.054 23.2148 114.023 22.9219ZM113.935 20.5664C113.552 20.7227 112.978 20.8555 112.213 20.9648C111.779 21.0273 111.472 21.0977 111.293 21.1758C111.113 21.2539 110.974 21.3691 110.877 21.5215C110.779 21.6699 110.73 21.8359 110.73 22.0195C110.73 22.3008 110.836 22.5352 111.047 22.7227C111.261 22.9102 111.574 23.0039 111.984 23.0039C112.39 23.0039 112.752 22.916 113.068 22.7402C113.385 22.5605 113.617 22.3164 113.765 22.0078C113.879 21.7695 113.935 21.418 113.935 20.9531V20.5664Z" fill="#737373"/>
<defs>
<linearGradient id="paint0_linear_105_135" x1="31.219" y1="8.67725" x2="31.219" y2="50.6772" gradientUnits="userSpaceOnUse">
<stop stop-color="#F452FF"/>
<stop offset="1" stop-color="#832BC1"/>
</linearGradient>
</defs>
</svg>
