<svg width="46" height="46" viewBox="0 0 46 46" fill="none" xmlns="http://www.w3.org/2000/svg">
<g clip-path="url(#clip0_10_146)">
<path d="M29.8782 7.33617C31.4855 5.39123 32.2917 3.29018 32.2917 1.03941C32.2917 0.741087 32.2783 0.439985 32.2453 0.13916C31.1259 0.198325 29.9354 0.544148 28.6765 1.16969C27.4152 1.80467 26.3753 2.60048 25.5575 3.55767C23.9191 5.44817 22.9969 7.76033 22.9969 9.92082C22.9969 10.2194 23.0157 10.5036 23.0482 10.7733C25.5924 10.9844 27.9385 9.64833 29.8782 7.33617Z" fill="#666666"/>
<path d="M38.5306 31.0779C36.523 29.1807 35.5014 26.7908 35.4715 23.9197C35.4388 20.2335 37.0813 17.3599 40.4024 15.3083C38.5472 12.6195 35.7575 11.1271 32.0443 10.8215C30.674 10.7029 29.0013 11.004 27.0194 11.7312C24.9239 12.5153 23.6873 12.9087 23.3228 12.9087C22.8346 12.9087 21.722 12.5723 19.9888 11.909C18.2508 11.2479 16.8521 10.9115 15.7856 10.9115C13.8363 10.9446 12.0263 11.4612 10.3512 12.4751C8.676 13.4889 7.33756 14.87 6.33149 16.6208C5.05135 18.8004 4.41223 21.4015 4.41223 24.4172C4.41223 27.0502 4.88626 29.7693 5.83185 32.5773C6.71479 35.1775 7.84183 37.4577 9.21269 39.4243C10.4904 41.2662 11.5569 42.5661 12.4096 43.3245C13.7456 44.5908 15.0841 45.1936 16.4269 45.1355C17.3098 45.1052 18.4646 44.7964 19.8981 44.205C21.3295 43.6158 22.6676 43.3245 23.9151 43.3245C25.1048 43.3245 26.4062 43.6158 27.822 44.205C29.2331 44.7964 30.4455 45.0883 31.4504 45.0883C32.851 45.0547 34.1584 44.4689 35.3788 43.3245C36.1664 42.627 37.188 41.3715 38.4358 39.5576C39.3508 38.2271 40.1412 36.7799 40.8086 35.2077C41.0838 34.5411 41.3426 33.8467 41.5878 33.1217C40.4566 32.6387 39.4405 31.9584 38.5306 31.0779Z" fill="#666666"/>
</g>
<defs>
<clipPath id="clip0_10_146">
<rect width="45" height="45" fill="white" transform="translate(0.5 0.13916)"/>
</clipPath>
</defs>
</svg>
