<svg width="136" height="46" viewBox="0 0 136 46" fill="none" xmlns="http://www.w3.org/2000/svg">
<g clip-path="url(#clip0_10_150)">
<path d="M33.7339 15.888H17.9606V20.5975H29.1472C28.5946 27.2011 23.1338 30.0176 17.9795 30.0176C11.385 30.0176 5.63029 24.7971 5.63029 17.4797C5.63029 10.3516 11.1158 4.86203 17.9941 4.86203C23.3005 4.86203 26.4274 8.26544 26.4274 8.26544L29.7049 4.8508C29.7049 4.8508 25.4984 0.13916 17.8266 0.13916C8.05747 0.13916 0.5 8.43489 0.5 17.3955C0.5 26.1759 7.60902 34.7375 18.0756 34.7375C27.2811 34.7375 34.0195 28.3927 34.0195 19.0099C34.0195 17.0307 33.7339 15.8865 33.7339 15.8865V15.888Z" fill="#4885ED"/>
<path d="M46.6549 12.4775C40.1826 12.4775 35.5443 17.5689 35.5443 23.5064C35.5443 29.5319 40.0434 34.7177 46.7309 34.7177C52.785 34.7177 57.7449 30.062 57.7449 23.6361C57.7449 16.2706 51.9754 12.4775 46.6549 12.4775ZM46.7192 16.8454C49.9018 16.8454 52.918 19.4345 52.918 23.6063C52.918 27.6897 49.9147 30.3526 46.7047 30.3526C43.1772 30.3526 40.3945 27.51 40.3945 23.5738C40.3945 19.7221 43.1427 16.8454 46.7192 16.8454Z" fill="#DB3236"/>
<path d="M70.8188 12.4775C64.3465 12.4775 59.7081 17.5689 59.7081 23.5064C59.7081 29.5319 64.2072 34.7177 70.8947 34.7177C76.9489 34.7177 81.9086 30.062 81.9086 23.6361C81.9088 16.2706 76.1393 12.4775 70.8188 12.4775ZM70.8831 16.8454C74.0662 16.8454 77.0821 19.4345 77.0821 23.6063C77.0821 27.6897 74.0788 30.3526 70.8685 30.3526C67.3413 30.3526 64.5586 27.51 64.5586 23.5738C64.5586 19.7221 67.3066 16.8454 70.8831 16.8454Z" fill="#F4C20D"/>
<path d="M94.5198 12.4893C88.579 12.4893 83.9093 17.7244 83.9093 23.6004C83.9093 30.2937 89.323 34.7322 94.4174 34.7322C97.5673 34.7322 99.2422 33.4742 100.479 32.0302V34.2228C100.479 38.0591 98.1637 40.357 94.6693 40.357C91.2933 40.357 89.6002 37.8313 89.0117 36.3981L84.7642 38.1849C86.271 41.3908 89.3043 44.7339 94.7047 44.7339C100.611 44.7339 105.113 40.9906 105.113 33.1397V13.158H100.479V15.0418C99.0543 13.4969 97.1057 12.4895 94.5198 12.4893ZM94.9498 16.8486C97.8623 16.8486 100.853 19.351 100.853 23.6241C100.853 27.9678 97.8689 30.3616 94.8855 30.3616C91.7182 30.3616 88.7714 27.7742 88.7714 23.6654C88.7714 19.3962 91.832 16.8486 94.9498 16.8486Z" fill="#4885ED"/>
<path d="M125.716 12.4624C120.112 12.4624 115.407 16.9484 115.407 23.5677C115.407 30.5721 120.652 34.7261 126.255 34.7261C130.931 34.7261 133.801 32.1521 135.513 29.8459L131.693 27.2881C130.701 28.8361 129.044 30.3492 126.278 30.3492C123.17 30.3492 121.742 28.6373 120.857 26.979L135.676 20.7921L134.907 18.9789C133.475 15.4283 130.136 12.4629 125.717 12.4629L125.716 12.4624ZM125.909 16.7392C127.929 16.7392 129.382 17.8194 129.999 19.1144L120.103 23.2764C119.676 20.0542 122.71 16.7392 125.909 16.7392Z" fill="#DB3236"/>
<path d="M108.342 34.066H113.21V1.28906H108.342V34.066Z" fill="#3CBA54"/>
</g>
<defs>
<clipPath id="clip0_10_150">
<rect width="135" height="45" fill="white" transform="translate(0.5 0.13916)"/>
</clipPath>
</defs>
</svg>
