<svg width="146" height="60" viewBox="0 0 146 60" fill="none" xmlns="http://www.w3.org/2000/svg">
<rect x="1.46997" y="0.5" width="143.507" height="59" rx="4.5" fill="white" stroke="#DADADA"/>
<g clip-path="url(#clip0_105_134)">
<path d="M25.5926 24.8867H18.8176V34.3012H25.5926V24.8867Z" fill="#EFE9DA"/>
<mask id="mask0_105_134" style="mask-type:alpha" maskUnits="userSpaceOnUse" x="17" y="24" width="10" height="27">
<path d="M26.7708 49.6003C26.7708 49.6003 25.8202 50.7913 22.3524 50.7771C18.5901 50.7626 17.6442 49.5875 17.6394 49.6003V24.628C17.6394 24.4462 17.7839 24.2988 17.9676 24.2988H18.4894C18.6707 24.2988 18.8177 24.4467 18.8177 24.6229V33.7133C19.5944 34.02 20.6547 34.2809 22.647 34.3017C23.7555 34.2932 24.8158 34.0341 25.5926 33.7133V24.6229C25.5926 24.4439 25.7371 24.2988 25.9208 24.2988H26.4426C26.6239 24.2988 26.7708 24.4474 26.7708 24.628V49.6003Z" fill="white"/>
</mask>
<g mask="url(#mask0_105_134)">
<path d="M26.7708 49.6003C26.7708 49.6003 25.8202 50.7913 22.3524 50.7771C18.5901 50.7626 17.6442 49.5875 17.6394 49.6003V24.628C17.6394 24.4462 17.7839 24.2988 17.9676 24.2988H18.4894C18.6707 24.2988 18.8177 24.4467 18.8177 24.6229V33.7133C19.5944 34.02 20.6547 34.2809 22.647 34.3017C23.7555 34.2932 24.8158 34.0341 25.5926 33.7133V24.6229C25.5926 24.4439 25.7371 24.2988 25.9208 24.2988H26.4426C26.6239 24.2988 26.7708 24.4474 26.7708 24.628V49.6003Z" fill="#CDCDCD"/>
<path d="M22.2053 24.0049H17.345V52.2484H22.2053V24.0049Z" fill="white" fill-opacity="0.2"/>
</g>
<path d="M34.7239 24.8867H27.949V34.3012H34.7239V24.8867Z" fill="#EFE9DA"/>
<mask id="mask1_105_134" style="mask-type:alpha" maskUnits="userSpaceOnUse" x="26" y="24" width="10" height="27">
<path d="M35.9022 49.6003C35.9022 49.6003 34.9515 50.7913 31.4838 50.7771C27.7214 50.7626 26.7755 49.5875 26.7708 49.6003V24.628C26.7708 24.4462 26.9152 24.2988 27.099 24.2988H27.6208C27.8021 24.2988 27.949 24.4467 27.949 24.6229V33.7133C28.7258 34.02 29.7861 34.2809 31.7783 34.3017C32.8868 34.2932 33.9472 34.0341 34.7239 33.7133V24.6229C34.7239 24.4439 34.8684 24.2988 35.0522 24.2988H35.574C35.7552 24.2988 35.9022 24.4474 35.9022 24.628V49.6003Z" fill="white"/>
</mask>
<g mask="url(#mask1_105_134)">
<path d="M35.9022 49.6003C35.9022 49.6003 34.9515 50.7913 31.4838 50.7771C27.7214 50.7626 26.7755 49.5875 26.7708 49.6003V24.628C26.7708 24.4462 26.9152 24.2988 27.099 24.2988H27.6208C27.8021 24.2988 27.949 24.4467 27.949 24.6229V33.7133C28.7258 34.02 29.7861 34.2809 31.7783 34.3017C32.8868 34.2932 33.9472 34.0341 34.7239 33.7133V24.6229C34.7239 24.4439 34.8684 24.2988 35.0522 24.2988H35.574C35.7552 24.2988 35.9022 24.4474 35.9022 24.628V49.6003Z" fill="#3B393F"/>
<path d="M31.3366 24.0049H26.4763V52.2484H31.3366V24.0049Z" fill="white" fill-opacity="0.05"/>
</g>
<path d="M43.8555 24.8867H37.0806V34.3012H43.8555V24.8867Z" fill="#EFE9DA"/>
<mask id="mask2_105_134" style="mask-type:alpha" maskUnits="userSpaceOnUse" x="35" y="24" width="11" height="27">
<path d="M45.0335 49.6003C45.0335 49.6003 44.0829 50.7913 40.6151 50.7771C36.8528 50.7626 35.9069 49.5875 35.9021 49.6003V24.628C35.9021 24.4462 36.0466 24.2988 36.2303 24.2988H36.7521C36.9334 24.2988 37.0804 24.4467 37.0804 24.6229V33.7133C37.8571 34.02 38.9174 34.2809 40.9097 34.3017C42.0182 34.2932 43.0785 34.0341 43.8553 33.7133V24.6229C43.8553 24.4439 43.9998 24.2988 44.1835 24.2988H44.7053C44.8866 24.2988 45.0335 24.4474 45.0335 24.628V49.6003Z" fill="white"/>
</mask>
<g mask="url(#mask2_105_134)">
<path d="M45.0335 49.6003C45.0335 49.6003 44.0829 50.7913 40.6151 50.7771C36.8528 50.7626 35.9069 49.5875 35.9021 49.6003V24.628C35.9021 24.4462 36.0466 24.2988 36.2303 24.2988H36.7521C36.9334 24.2988 37.0804 24.4467 37.0804 24.6229V33.7133C37.8571 34.02 38.9174 34.2809 40.9097 34.3017C42.0182 34.2932 43.0785 34.0341 43.8553 33.7133V24.6229C43.8553 24.4439 43.9998 24.2988 44.1835 24.2988H44.7053C44.8866 24.2988 45.0335 24.4474 45.0335 24.628V49.6003Z" fill="#FF4C00"/>
<path d="M40.4679 24.0049H35.6077V52.2484H40.4679V24.0049Z" fill="white" fill-opacity="0.1"/>
</g>
<path fill-rule="evenodd" clip-rule="evenodd" d="M19.9958 33.1245H24.4143V41.9506L22.2051 40.7738L19.9958 41.9506V33.1245Z" fill="#FF4C00"/>
<path d="M49.1431 27.591C48.9413 17.9272 41.0318 10.181 31.3365 10.181C21.6213 10.181 13.7025 17.9579 13.5289 27.6445C13.5282 27.6827 13.5262 33.9486 13.5262 33.9486L49.1473 33.801C49.1467 33.7273 49.144 27.6354 49.1431 27.591ZM12.3435 33.9486C12.3435 33.8748 12.3445 27.7386 12.3466 27.6234C12.5316 17.3065 20.9628 9 31.3365 9C41.6911 9 50.1104 17.2759 50.3253 27.5664C50.3281 27.7005 50.3295 33.7272 50.3295 33.801L12.3435 33.9486Z" fill="#3B393F"/>
<path fill-rule="evenodd" clip-rule="evenodd" d="M15.8909 18.7502L18.1805 18.121C19.0465 17.883 19.8407 17.4312 20.4936 16.8063C23.3225 14.0987 27.1355 12.4391 31.331 12.4391C35.5261 12.4391 39.3391 14.0987 42.1684 16.8063C42.8209 17.4312 43.6151 17.883 44.4811 18.121L46.7707 18.7502C43.564 13.5173 37.8487 10.0332 31.331 10.0332C24.8129 10.0332 19.0976 13.5173 15.8909 18.7502Z" fill="black"/>
<path d="M14.3495 33.1245H11.5032C10.9877 33.1245 10.5698 33.5424 10.5698 34.0578V43.3709C10.5698 43.8864 10.9877 44.3042 11.5032 44.3042H14.3495C14.865 44.3042 15.2828 43.8864 15.2828 43.3709V34.0578C15.2828 33.5424 14.865 33.1245 14.3495 33.1245Z" fill="black"/>
<path d="M16.1168 30.771H13.2705C12.755 30.771 12.3372 31.1889 12.3372 31.7043V45.1362C12.3372 45.6517 12.755 46.0695 13.2705 46.0695H16.1168C16.6323 46.0695 17.0502 45.6517 17.0502 45.1362V31.7043C17.0502 31.1889 16.6323 30.771 16.1168 30.771Z" fill="#3B393F"/>
<path d="M51.1698 33.1245H48.3235C47.808 33.1245 47.3901 33.5424 47.3901 34.0578V43.3709C47.3901 43.8864 47.808 44.3042 48.3235 44.3042H51.1698C51.6853 44.3042 52.1031 43.8864 52.1031 43.3709V34.0578C52.1031 33.5424 51.6853 33.1245 51.1698 33.1245Z" fill="black"/>
<path d="M49.4025 30.771H46.5561C46.0407 30.771 45.6228 31.1889 45.6228 31.7043V45.1362C45.6228 45.6517 46.0407 46.0695 46.5561 46.0695H49.4025C49.9179 46.0695 50.3358 45.6517 50.3358 45.1362V31.7043C50.3358 31.1889 49.9179 30.771 49.4025 30.771Z" fill="#3B393F"/>
</g>
<path fill-rule="evenodd" clip-rule="evenodd" d="M69.7957 33.3654C69.7433 34.61 69.6842 35.7431 69.6188 36.7654C69.553 37.7872 69.4648 38.7081 69.3541 39.5265C69.2427 40.3452 69.0954 41.0693 68.9122 41.698C68.7291 42.327 68.4935 42.8705 68.2056 43.3292C68.0224 43.6309 67.816 43.8797 67.5872 44.0761C67.3584 44.2722 67.1193 44.4295 66.8711 44.5478C66.6222 44.6658 66.3768 44.7474 66.135 44.7935C65.8927 44.8393 65.6671 44.8622 65.4579 44.8622C65.157 44.8622 64.9049 44.8393 64.7021 44.7935C64.4992 44.7474 64.3003 44.6788 64.1038 44.5869L64.398 42.2683C64.4764 42.2947 64.5547 42.314 64.6335 42.327C64.7119 42.34 64.7907 42.3468 64.8691 42.3468C65.0782 42.3468 65.2846 42.2947 65.4871 42.189C65.6899 42.0849 65.8632 41.9078 66.0078 41.6585C66.2035 41.371 66.3737 40.9486 66.5178 40.3914C66.6616 39.8345 66.7892 39.1238 66.9003 38.2589C67.0114 37.394 67.1 36.3627 67.1654 35.1638C67.2304 33.9648 67.276 32.5667 67.3028 30.9683H75.4088V44.7245H72.7198V33.3654H69.7957Z" fill="black"/>
<path fill-rule="evenodd" clip-rule="evenodd" d="M83.4665 38.8481H83.4078L82.5638 40.2825L79.0701 44.7241H77.4607V34.8979H80.0122V39.575L79.8945 40.9116H79.9728L80.7779 39.5162L84.3106 34.8979H85.92V44.7241H83.3688V40.2431L83.4665 38.8481Z" fill="black"/>
<path fill-rule="evenodd" clip-rule="evenodd" d="M92.8469 37.1582V44.7241H90.217V37.1582H87.4106V34.8979H95.5753V37.1582H92.8469Z" fill="black"/>
<path fill-rule="evenodd" clip-rule="evenodd" d="M101.254 33.09C100.992 33.09 100.743 33.0999 100.508 33.1196C100.272 33.1389 100.083 33.1622 99.9388 33.1886V37.6495C99.9907 37.6625 100.069 37.6759 100.174 37.6886C100.279 37.702 100.391 37.7118 100.508 37.7181C100.625 37.7248 100.74 37.728 100.851 37.728H101.096C101.45 37.728 101.8 37.6957 102.146 37.6298C102.493 37.5647 102.804 37.4433 103.079 37.2666C103.354 37.0895 103.573 36.8438 103.737 36.5291C103.9 36.2147 103.982 35.8022 103.982 35.2915C103.982 34.8588 103.904 34.5019 103.746 34.2199C103.59 33.9387 103.383 33.7123 103.128 33.5424C102.873 33.372 102.581 33.2537 102.255 33.1886C101.928 33.1227 101.593 33.09 101.254 33.09ZM99.0655 30.8597C99.7257 30.8006 100.383 30.771 101.038 30.771C101.718 30.771 102.402 30.827 103.089 30.9382C103.776 31.0494 104.394 31.2723 104.943 31.6063C105.493 31.9404 105.941 32.4053 106.288 33.0013C106.634 33.598 106.808 34.3741 106.808 35.3301C106.808 36.195 106.658 36.9258 106.356 37.5217C106.055 38.1181 105.657 38.6055 105.159 38.9857C104.662 39.3659 104.096 39.6412 103.462 39.8112C102.827 39.9819 102.169 40.0667 101.49 40.0667H101.175C101.031 40.0667 100.881 40.0632 100.723 40.0569C100.567 40.0502 100.413 40.0407 100.262 40.0277C100.112 40.0147 100.003 40.0013 99.9384 39.9882V44.7244H97.2498V31.105C97.7988 31.0005 98.4046 30.9185 99.0655 30.8597Z" fill="#FF4C00"/>
<path fill-rule="evenodd" clip-rule="evenodd" d="M111.926 36.6265C111.128 36.6498 110.756 36.8509 110.423 37.243C110.092 37.633 109.901 38.1654 109.837 38.8335L113.501 38.8678C113.553 38.1607 113.49 37.6145 113.223 37.2347C112.957 36.8545 112.499 36.6096 111.926 36.6265ZM113.962 44.6752C113.289 44.8917 112.572 44.9998 111.813 44.9998C110.23 44.9998 109.072 44.538 108.339 43.6139C107.606 42.6903 107.24 41.4227 107.24 39.8112C107.24 38.0822 107.652 36.7847 108.476 35.9202C109.301 35.0553 110.459 34.623 111.95 34.623C112.448 34.623 112.932 34.6885 113.403 34.8195C113.874 34.9504 114.292 35.1669 114.659 35.4678C115.026 35.7695 115.32 36.1758 115.542 36.6865C115.765 37.1972 115.876 37.8334 115.876 38.5934C115.876 38.8678 115.86 39.1628 115.827 39.4772C115.794 39.7915 115.745 40.1188 115.68 40.46H109.764C109.804 41.2854 110.062 41.9074 110.447 42.3266C110.831 42.7463 111.455 42.9553 112.315 42.9553C112.849 42.9553 113.321 42.8512 113.752 42.71C114.29 42.5341 114.797 42.2943 114.797 42.2943L115.562 43.8793C115.169 44.1937 114.636 44.4591 113.962 44.6752Z" fill="#FF4C00"/>
<path fill-rule="evenodd" clip-rule="evenodd" d="M124.17 36.7968C124.17 36.7968 123.389 36.6379 122.774 36.6379C121.022 36.6379 119.885 37.642 119.885 39.8581C119.885 41.9369 120.752 42.9639 122.581 42.9639C123.178 42.9639 124.327 42.8041 124.327 42.8041L124.679 44.5801C124.198 44.7335 123.254 44.9654 122.119 44.9654C118.558 44.9654 117.249 42.3636 117.249 39.7232C117.249 37.0638 118.789 34.6738 122.331 34.6738C122.985 34.6738 123.792 34.7507 124.544 34.9436L124.17 36.7968Z" fill="#FF4C00"/>
<path fill-rule="evenodd" clip-rule="evenodd" d="M128.201 37.6997C127.401 37.6997 126.753 37.051 126.753 36.25C126.753 35.449 127.401 34.7998 128.201 34.7998C129 34.7998 129.649 35.449 129.649 36.25C129.649 37.051 129 37.6997 128.201 37.6997Z" fill="#FF4C00"/>
<path fill-rule="evenodd" clip-rule="evenodd" d="M129.649 43.4203C129.649 44.2209 129 44.8701 128.201 44.8701C127.401 44.8701 126.753 44.2209 126.753 43.4203C126.753 42.6189 127.401 41.9697 128.201 41.9697C129 41.9697 129.649 42.6193 129.649 43.4203Z" fill="#FF4C00"/>
<path d="M71.1584 20.6777L72.2952 20.9648C72.0569 21.8984 71.6272 22.6113 71.0061 23.1035C70.3889 23.5918 69.6331 23.8359 68.7385 23.8359C67.8127 23.8359 67.0588 23.6484 66.4768 23.2734C65.8987 22.8945 65.4573 22.3477 65.1526 21.6328C64.8518 20.918 64.7014 20.1504 64.7014 19.3301C64.7014 18.4355 64.8713 17.6562 65.2112 16.9922C65.5549 16.3242 66.0413 15.8184 66.6702 15.4746C67.303 15.127 67.9983 14.9531 68.7561 14.9531C69.6155 14.9531 70.3381 15.1719 70.9241 15.6094C71.51 16.0469 71.9182 16.6621 72.1487 17.4551L71.0295 17.7188C70.8303 17.0938 70.5413 16.6387 70.1624 16.3535C69.7834 16.0684 69.3069 15.9258 68.7327 15.9258C68.0725 15.9258 67.5198 16.084 67.0745 16.4004C66.6331 16.7168 66.3225 17.1426 66.1428 17.6777C65.9631 18.209 65.8733 18.7578 65.8733 19.3242C65.8733 20.0547 65.9788 20.6934 66.1897 21.2402C66.4045 21.7832 66.7366 22.1895 67.1858 22.459C67.635 22.7285 68.1213 22.8633 68.6448 22.8633C69.2815 22.8633 69.8206 22.6797 70.262 22.3125C70.7034 21.9453 71.0022 21.4004 71.1584 20.6777ZM73.5608 17.4668H74.6155V20.1562C74.9514 20.1562 75.1858 20.0918 75.3186 19.9629C75.4553 19.834 75.6545 19.459 75.9163 18.8379C76.1233 18.3457 76.2913 18.0215 76.4202 17.8652C76.5491 17.709 76.6975 17.6035 76.8655 17.5488C77.0334 17.4941 77.303 17.4668 77.6741 17.4668H77.885V18.3398L77.592 18.334C77.3147 18.334 77.137 18.375 77.0588 18.457C76.9768 18.543 76.8518 18.7988 76.6838 19.2246C76.5237 19.6309 76.3772 19.9121 76.2444 20.0684C76.1116 20.2246 75.9065 20.3672 75.6292 20.4961C76.0823 20.6172 76.5276 21.0391 76.9651 21.7617L78.1194 23.6895H76.9592L75.8342 21.7617C75.6038 21.375 75.4026 21.1211 75.2307 21C75.0588 20.875 74.8538 20.8125 74.6155 20.8125V23.6895H73.5608V17.4668ZM78.5647 20.5781C78.5647 19.4258 78.885 18.5723 79.5256 18.0176C80.0608 17.5566 80.7131 17.3262 81.4827 17.3262C82.3381 17.3262 83.0374 17.6074 83.5803 18.1699C84.1233 18.7285 84.3948 19.502 84.3948 20.4902C84.3948 21.291 84.2737 21.9219 84.0315 22.3828C83.7932 22.8398 83.4436 23.1953 82.9827 23.4492C82.5256 23.7031 82.0256 23.8301 81.4827 23.8301C80.6116 23.8301 79.9065 23.5508 79.3674 22.9922C78.8323 22.4336 78.5647 21.6289 78.5647 20.5781ZM79.6487 20.5781C79.6487 21.375 79.8225 21.9727 80.1702 22.3711C80.5178 22.7656 80.9553 22.9629 81.4827 22.9629C82.0061 22.9629 82.4417 22.7637 82.7893 22.3652C83.137 21.9668 83.3108 21.3594 83.3108 20.543C83.3108 19.7734 83.135 19.1914 82.7834 18.7969C82.4358 18.3984 82.0022 18.1992 81.4827 18.1992C80.9553 18.1992 80.5178 18.3965 80.1702 18.791C79.8225 19.1855 79.6487 19.7812 79.6487 20.5781ZM85.637 26.0742V17.4668H86.5979V18.2754C86.8245 17.959 87.0803 17.7227 87.3655 17.5664C87.6506 17.4062 87.9963 17.3262 88.4026 17.3262C88.9338 17.3262 89.4026 17.4629 89.8088 17.7363C90.2151 18.0098 90.5217 18.3965 90.7288 18.8965C90.9358 19.3926 91.0393 19.9375 91.0393 20.5312C91.0393 21.168 90.9241 21.7422 90.6936 22.2539C90.467 22.7617 90.135 23.1523 89.6975 23.4258C89.2639 23.6953 88.8069 23.8301 88.3264 23.8301C87.9749 23.8301 87.6584 23.7559 87.3772 23.6074C87.0999 23.459 86.8713 23.2715 86.6917 23.0449V26.0742H85.637ZM86.592 20.6133C86.592 21.4141 86.7542 22.0059 87.0784 22.3887C87.4026 22.7715 87.7952 22.9629 88.2561 22.9629C88.7249 22.9629 89.1252 22.7656 89.4573 22.3711C89.7932 21.9727 89.9612 21.3574 89.9612 20.5254C89.9612 19.7324 89.7971 19.1387 89.469 18.7441C89.1448 18.3496 88.7561 18.1523 88.303 18.1523C87.8538 18.1523 87.4553 18.3633 87.1077 18.7852C86.7639 19.2031 86.592 19.8125 86.592 20.6133ZM91.9241 20.5781C91.9241 19.4258 92.2444 18.5723 92.885 18.0176C93.4202 17.5566 94.0725 17.3262 94.842 17.3262C95.6975 17.3262 96.3967 17.6074 96.9397 18.1699C97.4827 18.7285 97.7542 19.502 97.7542 20.4902C97.7542 21.291 97.6331 21.9219 97.3909 22.3828C97.1526 22.8398 96.803 23.1953 96.342 23.4492C95.885 23.7031 95.385 23.8301 94.842 23.8301C93.9709 23.8301 93.2659 23.5508 92.7268 22.9922C92.1917 22.4336 91.9241 21.6289 91.9241 20.5781ZM93.0081 20.5781C93.0081 21.375 93.1819 21.9727 93.5295 22.3711C93.8772 22.7656 94.3147 22.9629 94.842 22.9629C95.3655 22.9629 95.801 22.7637 96.1487 22.3652C96.4963 21.9668 96.6702 21.3594 96.6702 20.543C96.6702 19.7734 96.4944 19.1914 96.1428 18.7969C95.7952 18.3984 95.3616 18.1992 94.842 18.1992C94.3147 18.1992 93.8772 18.3965 93.5295 18.791C93.1819 19.1855 93.0081 19.7812 93.0081 20.5781ZM102.342 17.4668H103.397V20.0566H106.321V17.4668H107.375V23.6895H106.321V20.9297H103.397V23.6895H102.342V17.4668ZM113.03 22.9219C112.639 23.2539 112.262 23.4883 111.899 23.625C111.539 23.7617 111.153 23.8301 110.739 23.8301C110.055 23.8301 109.53 23.6641 109.162 23.332C108.795 22.9961 108.612 22.5684 108.612 22.0488C108.612 21.7441 108.68 21.4668 108.817 21.2168C108.957 20.9629 109.139 20.7598 109.362 20.6074C109.588 20.4551 109.842 20.3398 110.123 20.2617C110.33 20.207 110.643 20.1543 111.061 20.1035C111.912 20.002 112.539 19.8809 112.942 19.7402C112.946 19.5957 112.948 19.5039 112.948 19.4648C112.948 19.0352 112.848 18.7324 112.649 18.5566C112.379 18.3184 111.979 18.1992 111.448 18.1992C110.951 18.1992 110.584 18.2871 110.346 18.4629C110.112 18.6348 109.938 18.9414 109.824 19.3828L108.793 19.2422C108.887 18.8008 109.041 18.4453 109.256 18.1758C109.471 17.9023 109.781 17.6934 110.188 17.5488C110.594 17.4004 111.065 17.3262 111.6 17.3262C112.131 17.3262 112.563 17.3887 112.895 17.5137C113.227 17.6387 113.471 17.7969 113.627 17.9883C113.783 18.1758 113.893 18.4141 113.955 18.7031C113.99 18.8828 114.008 19.207 114.008 19.6758V21.082C114.008 22.0625 114.03 22.6836 114.073 22.9453C114.119 23.2031 114.209 23.4512 114.342 23.6895H113.24C113.131 23.4707 113.061 23.2148 113.03 22.9219ZM112.942 20.5664C112.559 20.7227 111.985 20.8555 111.219 20.9648C110.785 21.0273 110.479 21.0977 110.299 21.1758C110.119 21.2539 109.981 21.3691 109.883 21.5215C109.785 21.6699 109.737 21.8359 109.737 22.0195C109.737 22.3008 109.842 22.5352 110.053 22.7227C110.268 22.9102 110.58 23.0039 110.99 23.0039C111.397 23.0039 111.758 22.916 112.074 22.7402C112.391 22.5605 112.623 22.3164 112.772 22.0078C112.885 21.7695 112.942 21.418 112.942 20.9531V20.5664Z" fill="#737373"/>
<defs>
<clipPath id="clip0_105_134">
<rect width="41.5333" height="42" fill="white" transform="translate(10.5698 9)"/>
</clipPath>
</defs>
</svg>
