<svg width="146" height="60" viewBox="0 0 146 60" fill="none" xmlns="http://www.w3.org/2000/svg">
<rect x="1.46997" y="0.5" width="143.507" height="59" rx="4.5" fill="white" stroke="#DADADA"/>
<g clip-path="url(#clip0_105_134)">
<path d="M25.5926 24.8867H18.8176V34.3012H25.5926V24.8867Z" fill="#EFE9DA"/>
<mask id="mask0_105_134" style="mask-type:alpha" maskUnits="userSpaceOnUse" x="17" y="24" width="10" height="27">
<path d="M26.7708 49.6003C26.7708 49.6003 25.8202 50.7913 22.3524 50.7771C18.5901 50.7626 17.6442 49.5875 17.6394 49.6003V24.628C17.6394 24.4462 17.7839 24.2988 17.9676 24.2988H18.4894C18.6707 24.2988 18.8177 24.4467 18.8177 24.6229V33.7133C19.5944 34.02 20.6547 34.2809 22.647 34.3017C23.7555 34.2932 24.8158 34.0341 25.5926 33.7133V24.6229C25.5926 24.4439 25.7371 24.2988 25.9208 24.2988H26.4426C26.6239 24.2988 26.7708 24.4474 26.7708 24.628V49.6003Z" fill="white"/>
</mask>
<g mask="url(#mask0_105_134)">
<path d="M26.7708 49.6003C26.7708 49.6003 25.8202 50.7913 22.3524 50.7771C18.5901 50.7626 17.6442 49.5875 17.6394 49.6003V24.628C17.6394 24.4462 17.7839 24.2988 17.9676 24.2988H18.4894C18.6707 24.2988 18.8177 24.4467 18.8177 24.6229V33.7133C19.5944 34.02 20.6547 34.2809 22.647 34.3017C23.7555 34.2932 24.8158 34.0341 25.5926 33.7133V24.6229C25.5926 24.4439 25.7371 24.2988 25.9208 24.2988H26.4426C26.6239 24.2988 26.7708 24.4474 26.7708 24.628V49.6003Z" fill="#CDCDCD"/>
<path d="M22.2053 24.0049H17.345V52.2484H22.2053V24.0049Z" fill="white" fill-opacity="0.2"/>
</g>
<path d="M34.7239 24.8867H27.949V34.3012H34.7239V24.8867Z" fill="#EFE9DA"/>
<mask id="mask1_105_134" style="mask-type:alpha" maskUnits="userSpaceOnUse" x="26" y="24" width="10" height="27">
<path d="M35.9022 49.6003C35.9022 49.6003 34.9515 50.7913 31.4838 50.7771C27.7214 50.7626 26.7755 49.5875 26.7708 49.6003V24.628C26.7708 24.4462 26.9152 24.2988 27.099 24.2988H27.6208C27.8021 24.2988 27.949 24.4467 27.949 24.6229V33.7133C28.7258 34.02 29.7861 34.2809 31.7783 34.3017C32.8868 34.2932 33.9472 34.0341 34.7239 33.7133V24.6229C34.7239 24.4439 34.8684 24.2988 35.0522 24.2988H35.574C35.7552 24.2988 35.9022 24.4474 35.9022 24.628V49.6003Z" fill="white"/>
</mask>
<g mask="url(#mask1_105_134)">
<path d="M35.9022 49.6003C35.9022 49.6003 34.9515 50.7913 31.4838 50.7771C27.7214 50.7626 26.7755 49.5875 26.7708 49.6003V24.628C26.7708 24.4462 26.9152 24.2988 27.099 24.2988H27.6208C27.8021 24.2988 27.949 24.4467 27.949 24.6229V33.7133C28.7258 34.02 29.7861 34.2809 31.7783 34.3017C32.8868 34.2932 33.9472 34.0341 34.7239 33.7133V24.6229C34.7239 24.4439 34.8684 24.2988 35.0522 24.2988H35.574C35.7552 24.2988 35.9022 24.4474 35.9022 24.628V49.6003Z" fill="#3B393F"/>
<path d="M31.3366 24.0049H26.4763V52.2484H31.3366V24.0049Z" fill="white" fill-opacity="0.05"/>
</g>
<path d="M43.8555 24.8867H37.0806V34.3012H43.8555V24.8867Z" fill="#EFE9DA"/>
<mask id="mask2_105_134" style="mask-type:alpha" maskUnits="userSpaceOnUse" x="35" y="24" width="11" height="27">
<path d="M45.0335 49.6003C45.0335 49.6003 44.0829 50.7913 40.6151 50.7771C36.8528 50.7626 35.9069 49.5875 35.9021 49.6003V24.628C35.9021 24.4462 36.0466 24.2988 36.2303 24.2988H36.7521C36.9334 24.2988 37.0804 24.4467 37.0804 24.6229V33.7133C37.8571 34.02 38.9174 34.2809 40.9097 34.3017C42.0182 34.2932 43.0785 34.0341 43.8553 33.7133V24.6229C43.8553 24.4439 43.9998 24.2988 44.1835 24.2988H44.7053C44.8866 24.2988 45.0335 24.4474 45.0335 24.628V49.6003Z" fill="white"/>
</mask>
<g mask="url(#mask2_105_134)">
<path d="M45.0335 49.6003C45.0335 49.6003 44.0829 50.7913 40.6151 50.7771C36.8528 50.7626 35.9069 49.5875 35.9021 49.6003V24.628C35.9021 24.4462 36.0466 24.2988 36.2303 24.2988H36.7521C36.9334 24.2988 37.0804 24.4467 37.0804 24.6229V33.7133C37.8571 34.02 38.9174 34.2809 40.9097 34.3017C42.0182 34.2932 43.0785 34.0341 43.8553 33.7133V24.6229C43.8553 24.4439 43.9998 24.2988 44.1835 24.2988H44.7053C44.8866 24.2988 45.0335 24.4474 45.0335 24.628V49.6003Z" fill="#FF4C00"/>
<path d="M40.4679 24.0049H35.6077V52.2484H40.4679V24.0049Z" fill="white" fill-opacity="0.1"/>
</g>
<path fill-rule="evenodd" clip-rule="evenodd" d="M19.9958 33.1245H24.4143V41.9506L22.2051 40.7738L19.9958 41.9506V33.1245Z" fill="#FF4C00"/>
<path d="M49.1431 27.591C48.9413 17.9272 41.0318 10.181 31.3365 10.181C21.6213 10.181 13.7025 17.9579 13.5289 27.6445C13.5282 27.6827 13.5262 33.9486 13.5262 33.9486L49.1473 33.801C49.1467 33.7273 49.144 27.6354 49.1431 27.591ZM12.3435 33.9486C12.3435 33.8748 12.3445 27.7386 12.3466 27.6234C12.5316 17.3065 20.9628 9 31.3365 9C41.6911 9 50.1104 17.2759 50.3253 27.5664C50.3281 27.7005 50.3295 33.7272 50.3295 33.801L12.3435 33.9486Z" fill="#3B393F"/>
<path fill-rule="evenodd" clip-rule="evenodd" d="M15.8909 18.7502L18.1805 18.121C19.0465 17.883 19.8407 17.4312 20.4936 16.8063C23.3225 14.0987 27.1355 12.4391 31.331 12.4391C35.5261 12.4391 39.3391 14.0987 42.1684 16.8063C42.8209 17.4312 43.6151 17.883 44.4811 18.121L46.7707 18.7502C43.564 13.5173 37.8487 10.0332 31.331 10.0332C24.8129 10.0332 19.0976 13.5173 15.8909 18.7502Z" fill="black"/>
<path d="M14.3495 33.1245H11.5032C10.9877 33.1245 10.5698 33.5424 10.5698 34.0578V43.3709C10.5698 43.8864 10.9877 44.3042 11.5032 44.3042H14.3495C14.865 44.3042 15.2828 43.8864 15.2828 43.3709V34.0578C15.2828 33.5424 14.865 33.1245 14.3495 33.1245Z" fill="black"/>
<path d="M16.1168 30.771H13.2705C12.755 30.771 12.3372 31.1889 12.3372 31.7043V45.1362C12.3372 45.6517 12.755 46.0695 13.2705 46.0695H16.1168C16.6323 46.0695 17.0502 45.6517 17.0502 45.1362V31.7043C17.0502 31.1889 16.6323 30.771 16.1168 30.771Z" fill="#3B393F"/>
<path d="M51.1698 33.1245H48.3235C47.808 33.1245 47.3901 33.5424 47.3901 34.0578V43.3709C47.3901 43.8864 47.808 44.3042 48.3235 44.3042H51.1698C51.6853 44.3042 52.1031 43.8864 52.1031 43.3709V34.0578C52.1031 33.5424 51.6853 33.1245 51.1698 33.1245Z" fill="black"/>
<path d="M49.4025 30.771H46.5561C46.0407 30.771 45.6228 31.1889 45.6228 31.7043V45.1362C45.6228 45.6517 46.0407 46.0695 46.5561 46.0695H49.4025C49.9179 46.0695 50.3358 45.6517 50.3358 45.1362V31.7043C50.3358 31.1889 49.9179 30.771 49.4025 30.771Z" fill="#3B393F"/>
</g>
<path fill-rule="evenodd" clip-rule="evenodd" d="M69.7957 33.3654C69.7433 34.61 69.6842 35.7431 69.6188 36.7654C69.553 37.7872 69.4648 38.7081 69.3541 39.5265C69.2427 40.3452 69.0954 41.0693 68.9122 41.698C68.7291 42.327 68.4935 42.8705 68.2056 43.3292C68.0224 43.6309 67.816 43.8797 67.5872 44.0761C67.3584 44.2722 67.1193 44.4295 66.8711 44.5478C66.6222 44.6658 66.3768 44.7474 66.135 44.7935C65.8927 44.8393 65.6671 44.8622 65.4579 44.8622C65.157 44.8622 64.9049 44.8393 64.7021 44.7935C64.4992 44.7474 64.3003 44.6788 64.1038 44.5869L64.398 42.2683C64.4764 42.2947 64.5547 42.314 64.6335 42.327C64.7119 42.34 64.7907 42.3468 64.8691 42.3468C65.0782 42.3468 65.2846 42.2947 65.4871 42.189C65.6899 42.0849 65.8632 41.9078 66.0078 41.6585C66.2035 41.371 66.3737 40.9486 66.5178 40.3914C66.6616 39.8345 66.7892 39.1238 66.9003 38.2589C67.0114 37.394 67.1 36.3627 67.1654 35.1638C67.2304 33.9648 67.276 32.5667 67.3028 30.9683H75.4088V44.7245H72.7198V33.3654H69.7957Z" fill="black"/>
<path fill-rule="evenodd" clip-rule="evenodd" d="M83.4665 38.8481H83.4078L82.5638 40.2825L79.0701 44.7241H77.4607V34.8979H80.0122V39.575L79.8945 40.9116H79.9728L80.7779 39.5162L84.3106 34.8979H85.92V44.7241H83.3688V40.2431L83.4665 38.8481Z" fill="black"/>
<path fill-rule="evenodd" clip-rule="evenodd" d="M92.8469 37.1582V44.7241H90.217V37.1582H87.4106V34.8979H95.5753V37.1582H92.8469Z" fill="black"/>
<path fill-rule="evenodd" clip-rule="evenodd" d="M101.254 33.09C100.992 33.09 100.743 33.0999 100.508 33.1196C100.272 33.1389 100.083 33.1622 99.9388 33.1886V37.6495C99.9907 37.6625 100.069 37.6759 100.174 37.6886C100.279 37.702 100.391 37.7118 100.508 37.7181C100.625 37.7248 100.74 37.728 100.851 37.728H101.096C101.45 37.728 101.8 37.6957 102.146 37.6298C102.493 37.5647 102.804 37.4433 103.079 37.2666C103.354 37.0895 103.573 36.8438 103.737 36.5291C103.9 36.2147 103.982 35.8022 103.982 35.2915C103.982 34.8588 103.904 34.5019 103.746 34.2199C103.59 33.9387 103.383 33.7123 103.128 33.5424C102.873 33.372 102.581 33.2537 102.255 33.1886C101.928 33.1227 101.593 33.09 101.254 33.09ZM99.0655 30.8597C99.7257 30.8006 100.383 30.771 101.038 30.771C101.718 30.771 102.402 30.827 103.089 30.9382C103.776 31.0494 104.394 31.2723 104.943 31.6063C105.493 31.9404 105.941 32.4053 106.288 33.0013C106.634 33.598 106.808 34.3741 106.808 35.3301C106.808 36.195 106.658 36.9258 106.356 37.5217C106.055 38.1181 105.657 38.6055 105.159 38.9857C104.662 39.3659 104.096 39.6412 103.462 39.8112C102.827 39.9819 102.169 40.0667 101.49 40.0667H101.175C101.031 40.0667 100.881 40.0632 100.723 40.0569C100.567 40.0502 100.413 40.0407 100.262 40.0277C100.112 40.0147 100.003 40.0013 99.9384 39.9882V44.7244H97.2498V31.105C97.7988 31.0005 98.4046 30.9185 99.0655 30.8597Z" fill="#FF4C00"/>
<path fill-rule="evenodd" clip-rule="evenodd" d="M111.926 36.6265C111.128 36.6498 110.756 36.8509 110.423 37.243C110.092 37.633 109.901 38.1654 109.837 38.8335L113.501 38.8678C113.553 38.1607 113.49 37.6145 113.223 37.2347C112.957 36.8545 112.499 36.6096 111.926 36.6265ZM113.962 44.6752C113.289 44.8917 112.572 44.9998 111.813 44.9998C110.23 44.9998 109.072 44.538 108.339 43.6139C107.606 42.6903 107.24 41.4227 107.24 39.8112C107.24 38.0822 107.652 36.7847 108.476 35.9202C109.301 35.0553 110.459 34.623 111.95 34.623C112.448 34.623 112.932 34.6885 113.403 34.8195C113.874 34.9504 114.292 35.1669 114.659 35.4678C115.026 35.7695 115.32 36.1758 115.542 36.6865C115.765 37.1972 115.876 37.8334 115.876 38.5934C115.876 38.8678 115.86 39.1628 115.827 39.4772C115.794 39.7915 115.745 40.1188 115.68 40.46H109.764C109.804 41.2854 110.062 41.9074 110.447 42.3266C110.831 42.7463 111.455 42.9553 112.315 42.9553C112.849 42.9553 113.321 42.8512 113.752 42.71C114.29 42.5341 114.797 42.2943 114.797 42.2943L115.562 43.8793C115.169 44.1937 114.636 44.4591 113.962 44.6752Z" fill="#FF4C00"/>
<path fill-rule="evenodd" clip-rule="evenodd" d="M124.17 36.7968C124.17 36.7968 123.389 36.6379 122.774 36.6379C121.022 36.6379 119.885 37.642 119.885 39.8581C119.885 41.9369 120.752 42.9639 122.581 42.9639C123.178 42.9639 124.327 42.8041 124.327 42.8041L124.679 44.5801C124.198 44.7335 123.254 44.9654 122.119 44.9654C118.558 44.9654 117.249 42.3636 117.249 39.7232C117.249 37.0638 118.789 34.6738 122.331 34.6738C122.985 34.6738 123.792 34.7507 124.544 34.9436L124.17 36.7968Z" fill="#FF4C00"/>
<path fill-rule="evenodd" clip-rule="evenodd" d="M128.201 37.6997C127.401 37.6997 126.753 37.051 126.753 36.25C126.753 35.449 127.401 34.7998 128.201 34.7998C129 34.7998 129.649 35.449 129.649 36.25C129.649 37.051 129 37.6997 128.201 37.6997Z" fill="#FF4C00"/>
<path fill-rule="evenodd" clip-rule="evenodd" d="M129.649 43.4203C129.649 44.2209 129 44.8701 128.201 44.8701C127.401 44.8701 126.753 44.2209 126.753 43.4203C126.753 42.6189 127.401 41.9697 128.201 41.9697C129 41.9697 129.649 42.6193 129.649 43.4203Z" fill="#FF4C00"/>
<path d="M64.6428 20.9297L65.7151 20.8359C65.7659 21.2656 65.8831 21.6191 66.0667 21.8965C66.2542 22.1699 66.5432 22.3926 66.9338 22.5645C67.3245 22.7324 67.7639 22.8164 68.2522 22.8164C68.6858 22.8164 69.0686 22.752 69.4006 22.623C69.7327 22.4941 69.9788 22.3184 70.1389 22.0957C70.303 21.8691 70.385 21.623 70.385 21.3574C70.385 21.0879 70.3069 20.8535 70.1506 20.6543C69.9944 20.4512 69.7366 20.2812 69.3772 20.1445C69.1467 20.0547 68.637 19.916 67.8479 19.7285C67.0588 19.5371 66.5061 19.3574 66.1897 19.1895C65.7795 18.9746 65.4729 18.709 65.2698 18.3926C65.0706 18.0723 64.9709 17.7148 64.9709 17.3203C64.9709 16.8867 65.094 16.4824 65.3401 16.1074C65.5862 15.7285 65.9456 15.4414 66.4182 15.2461C66.8909 15.0508 67.4163 14.9531 67.9944 14.9531C68.6311 14.9531 69.1917 15.0566 69.676 15.2637C70.1643 15.4668 70.5393 15.7676 70.801 16.166C71.0627 16.5645 71.2034 17.0156 71.2229 17.5195L70.1331 17.6016C70.0745 17.0586 69.8752 16.6484 69.5354 16.3711C69.1995 16.0938 68.7014 15.9551 68.0413 15.9551C67.3538 15.9551 66.8518 16.082 66.5354 16.3359C66.2229 16.5859 66.0667 16.8887 66.0667 17.2441C66.0667 17.5527 66.178 17.8066 66.4006 18.0059C66.6194 18.2051 67.1897 18.4102 68.1116 18.6211C69.0374 18.8281 69.6721 19.0098 70.0159 19.166C70.5159 19.3965 70.885 19.6895 71.1233 20.0449C71.3616 20.3965 71.4807 20.8027 71.4807 21.2637C71.4807 21.7207 71.3499 22.1523 71.0881 22.5586C70.8264 22.9609 70.4495 23.2754 69.9573 23.502C69.469 23.7246 68.9182 23.8359 68.3049 23.8359C67.5276 23.8359 66.8752 23.7227 66.3479 23.4961C65.8245 23.2695 65.4124 22.9297 65.1116 22.4766C64.8147 22.0195 64.6584 21.5039 64.6428 20.9297ZM72.5061 20.5781C72.5061 19.4258 72.8264 18.5723 73.467 18.0176C74.0022 17.5566 74.6545 17.3262 75.4241 17.3262C76.2795 17.3262 76.9788 17.6074 77.5217 18.1699C78.0647 18.7285 78.3362 19.502 78.3362 20.4902C78.3362 21.291 78.2151 21.9219 77.9729 22.3828C77.7346 22.8398 77.385 23.1953 76.9241 23.4492C76.467 23.7031 75.967 23.8301 75.4241 23.8301C74.553 23.8301 73.8479 23.5508 73.3088 22.9922C72.7737 22.4336 72.5061 21.6289 72.5061 20.5781ZM73.5901 20.5781C73.5901 21.375 73.7639 21.9727 74.1116 22.3711C74.4592 22.7656 74.8967 22.9629 75.4241 22.9629C75.9475 22.9629 76.3831 22.7637 76.7307 22.3652C77.0784 21.9668 77.2522 21.3594 77.2522 20.543C77.2522 19.7734 77.0764 19.1914 76.7249 18.7969C76.3772 18.3984 75.9436 18.1992 75.4241 18.1992C74.8967 18.1992 74.4592 18.3965 74.1116 18.791C73.7639 19.1855 73.5901 19.7812 73.5901 20.5781ZM79.1858 20.5781C79.1858 19.4258 79.5061 18.5723 80.1467 18.0176C80.6819 17.5566 81.3342 17.3262 82.1038 17.3262C82.9592 17.3262 83.6584 17.6074 84.2014 18.1699C84.7444 18.7285 85.0159 19.502 85.0159 20.4902C85.0159 21.291 84.8948 21.9219 84.6526 22.3828C84.4143 22.8398 84.0647 23.1953 83.6038 23.4492C83.1467 23.7031 82.6467 23.8301 82.1038 23.8301C81.2327 23.8301 80.5276 23.5508 79.9885 22.9922C79.4534 22.4336 79.1858 21.6289 79.1858 20.5781ZM80.2698 20.5781C80.2698 21.375 80.4436 21.9727 80.7913 22.3711C81.1389 22.7656 81.5764 22.9629 82.1038 22.9629C82.6272 22.9629 83.0627 22.7637 83.4104 22.3652C83.7581 21.9668 83.9319 21.3594 83.9319 20.543C83.9319 19.7734 83.7561 19.1914 83.4045 18.7969C83.0569 18.3984 82.6233 18.1992 82.1038 18.1992C81.5764 18.1992 81.1389 18.3965 80.7913 18.791C80.4436 19.1855 80.2698 19.7812 80.2698 20.5781ZM86.2581 23.6895V17.4668H87.2073V18.3516C87.6643 17.668 88.3245 17.3262 89.1877 17.3262C89.5627 17.3262 89.9065 17.3945 90.219 17.5312C90.5354 17.6641 90.7717 17.8398 90.928 18.0586C91.0842 18.2773 91.1936 18.5371 91.2561 18.8379C91.2952 19.0332 91.3147 19.375 91.3147 19.8633V23.6895H90.26V19.9043C90.26 19.4746 90.219 19.1543 90.137 18.9434C90.0549 18.7285 89.9084 18.5586 89.6975 18.4336C89.4905 18.3047 89.2463 18.2402 88.9651 18.2402C88.5159 18.2402 88.1272 18.3828 87.7991 18.668C87.4749 18.9531 87.3127 19.4941 87.3127 20.291V23.6895H86.2581ZM95.885 20.5781C95.885 19.4258 96.2053 18.5723 96.8459 18.0176C97.3811 17.5566 98.0334 17.3262 98.803 17.3262C99.6584 17.3262 100.358 17.6074 100.901 18.1699C101.444 18.7285 101.715 19.502 101.715 20.4902C101.715 21.291 101.594 21.9219 101.352 22.3828C101.114 22.8398 100.764 23.1953 100.303 23.4492C99.8459 23.7031 99.3459 23.8301 98.803 23.8301C97.9319 23.8301 97.2268 23.5508 96.6877 22.9922C96.1526 22.4336 95.885 21.6289 95.885 20.5781ZM96.969 20.5781C96.969 21.375 97.1428 21.9727 97.4905 22.3711C97.8381 22.7656 98.2756 22.9629 98.803 22.9629C99.3264 22.9629 99.762 22.7637 100.11 22.3652C100.457 21.9668 100.631 21.3594 100.631 20.543C100.631 19.7734 100.455 19.1914 100.104 18.7969C99.7561 18.3984 99.3225 18.1992 98.803 18.1992C98.2756 18.1992 97.8381 18.3965 97.4905 18.791C97.1428 19.1855 96.969 19.7812 96.969 20.5781ZM102.957 23.6895V17.4668H103.906V18.3516C104.364 17.668 105.024 17.3262 105.887 17.3262C106.262 17.3262 106.606 17.3945 106.918 17.5312C107.235 17.6641 107.471 17.8398 107.627 18.0586C107.783 18.2773 107.893 18.5371 107.955 18.8379C107.994 19.0332 108.014 19.375 108.014 19.8633V23.6895H106.959V19.9043C106.959 19.4746 106.918 19.1543 106.836 18.9434C106.754 18.7285 106.608 18.5586 106.397 18.4336C106.19 18.3047 105.946 18.2402 105.664 18.2402C105.215 18.2402 104.826 18.3828 104.498 18.668C104.174 18.9531 104.012 19.4941 104.012 20.291V23.6895H102.957Z" fill="#737373"/>
<defs>
<clipPath id="clip0_105_134">
<rect width="41.5333" height="42" fill="white" transform="translate(10.5698 9)"/>
</clipPath>
</defs>
</svg>
