<svg width="146" height="60" viewBox="0 0 146 60" fill="none" xmlns="http://www.w3.org/2000/svg">
<rect x="1.46997" y="0.5" width="143.507" height="59" rx="4.5" fill="white" stroke="#DADADA"/>
<g clip-path="url(#clip0_501_2)">
<path d="M25.5926 24.8867H18.8176V34.3012H25.5926V24.8867Z" fill="#EFE9DA"/>
<mask id="mask0_501_2" style="mask-type:alpha" maskUnits="userSpaceOnUse" x="17" y="24" width="10" height="27">
<path d="M26.7707 49.6003C26.7707 49.6003 25.82 50.7913 22.3523 50.7771C18.59 50.7626 17.644 49.5875 17.6393 49.6003V24.628C17.6393 24.4462 17.7838 24.2988 17.9675 24.2988H18.4893C18.6706 24.2988 18.8175 24.4467 18.8175 24.6229V33.7133C19.5943 34.02 20.6546 34.2809 22.6468 34.3017C23.7554 34.2932 24.8157 34.0341 25.5925 33.7133V24.6229C25.5925 24.4439 25.737 24.2988 25.9207 24.2988H26.4425C26.6238 24.2988 26.7707 24.4474 26.7707 24.628V49.6003Z" fill="white"/>
</mask>
<g mask="url(#mask0_501_2)">
<path d="M26.7707 49.6003C26.7707 49.6003 25.82 50.7913 22.3523 50.7771C18.59 50.7626 17.644 49.5875 17.6393 49.6003V24.628C17.6393 24.4462 17.7838 24.2988 17.9675 24.2988H18.4893C18.6706 24.2988 18.8175 24.4467 18.8175 24.6229V33.7133C19.5943 34.02 20.6546 34.2809 22.6468 34.3017C23.7554 34.2932 24.8157 34.0341 25.5925 33.7133V24.6229C25.5925 24.4439 25.737 24.2988 25.9207 24.2988H26.4425C26.6238 24.2988 26.7707 24.4474 26.7707 24.628V49.6003Z" fill="#CDCDCD"/>
<path d="M22.205 24.0049H17.3447V52.2484H22.205V24.0049Z" fill="white" fill-opacity="0.2"/>
</g>
<path d="M34.7239 24.8867H27.949V34.3012H34.7239V24.8867Z" fill="#EFE9DA"/>
<mask id="mask1_501_2" style="mask-type:alpha" maskUnits="userSpaceOnUse" x="26" y="24" width="10" height="27">
<path d="M35.9022 49.6003C35.9022 49.6003 34.9515 50.7913 31.4838 50.7771C27.7214 50.7626 26.7755 49.5875 26.7708 49.6003V24.628C26.7708 24.4462 26.9152 24.2988 27.099 24.2988H27.6208C27.8021 24.2988 27.949 24.4467 27.949 24.6229V33.7133C28.7258 34.02 29.7861 34.2809 31.7783 34.3017C32.8868 34.2932 33.9472 34.0341 34.7239 33.7133V24.6229C34.7239 24.4439 34.8684 24.2988 35.0522 24.2988H35.574C35.7552 24.2988 35.9022 24.4474 35.9022 24.628V49.6003Z" fill="white"/>
</mask>
<g mask="url(#mask1_501_2)">
<path d="M35.9022 49.6003C35.9022 49.6003 34.9515 50.7913 31.4838 50.7771C27.7214 50.7626 26.7755 49.5875 26.7708 49.6003V24.628C26.7708 24.4462 26.9152 24.2988 27.099 24.2988H27.6208C27.8021 24.2988 27.949 24.4467 27.949 24.6229V33.7133C28.7258 34.02 29.7861 34.2809 31.7783 34.3017C32.8868 34.2932 33.9472 34.0341 34.7239 33.7133V24.6229C34.7239 24.4439 34.8684 24.2988 35.0522 24.2988H35.574C35.7552 24.2988 35.9022 24.4474 35.9022 24.628V49.6003Z" fill="#3B393F"/>
<path d="M31.3365 24.0049H26.4762V52.2484H31.3365V24.0049Z" fill="white" fill-opacity="0.05"/>
</g>
<path d="M43.8554 24.8867H37.0804V34.3012H43.8554V24.8867Z" fill="#EFE9DA"/>
<mask id="mask2_501_2" style="mask-type:alpha" maskUnits="userSpaceOnUse" x="35" y="24" width="11" height="27">
<path d="M45.0337 49.6003C45.0337 49.6003 44.083 50.7913 40.6152 50.7771C36.8529 50.7626 35.907 49.5875 35.9022 49.6003V24.628C35.9022 24.4462 36.0467 24.2988 36.2304 24.2988H36.7523C36.9335 24.2988 37.0805 24.4467 37.0805 24.6229V33.7133C37.8572 34.02 38.9176 34.2809 40.9098 34.3017C42.0183 34.2932 43.0786 34.0341 43.8554 33.7133V24.6229C43.8554 24.4439 43.9999 24.2988 44.1836 24.2988H44.7055C44.8867 24.2988 45.0337 24.4474 45.0337 24.628V49.6003Z" fill="white"/>
</mask>
<g mask="url(#mask2_501_2)">
<path d="M45.0337 49.6003C45.0337 49.6003 44.083 50.7913 40.6152 50.7771C36.8529 50.7626 35.907 49.5875 35.9022 49.6003V24.628C35.9022 24.4462 36.0467 24.2988 36.2304 24.2988H36.7523C36.9335 24.2988 37.0805 24.4467 37.0805 24.6229V33.7133C37.8572 34.02 38.9176 34.2809 40.9098 34.3017C42.0183 34.2932 43.0786 34.0341 43.8554 33.7133V24.6229C43.8554 24.4439 43.9999 24.2988 44.1836 24.2988H44.7055C44.8867 24.2988 45.0337 24.4474 45.0337 24.628V49.6003Z" fill="#FF4C00"/>
<path d="M40.4679 24.0049H35.6077V52.2484H40.4679V24.0049Z" fill="white" fill-opacity="0.1"/>
</g>
<path fill-rule="evenodd" clip-rule="evenodd" d="M19.9958 33.1245H24.4143V41.9506L22.2051 40.7738L19.9958 41.9506V33.1245Z" fill="#FF4C00"/>
<path d="M49.1431 27.591C48.9413 17.9272 41.0318 10.181 31.3365 10.181C21.6213 10.181 13.7025 17.9579 13.5289 27.6445C13.5282 27.6827 13.5262 33.9486 13.5262 33.9486L49.1473 33.801C49.1467 33.7273 49.144 27.6354 49.1431 27.591ZM12.3435 33.9486C12.3435 33.8748 12.3445 27.7386 12.3466 27.6234C12.5316 17.3065 20.9628 9 31.3365 9C41.6911 9 50.1104 17.2759 50.3253 27.5664C50.3281 27.7005 50.3295 33.7272 50.3295 33.801L12.3435 33.9486Z" fill="#3B393F"/>
<path fill-rule="evenodd" clip-rule="evenodd" d="M15.8909 18.7502L18.1805 18.121C19.0465 17.883 19.8407 17.4312 20.4936 16.8063C23.3225 14.0987 27.1355 12.4391 31.331 12.4391C35.5261 12.4391 39.3391 14.0987 42.1684 16.8063C42.8209 17.4312 43.6151 17.883 44.4811 18.121L46.7707 18.7502C43.564 13.5173 37.8487 10.0332 31.331 10.0332C24.8129 10.0332 19.0976 13.5173 15.8909 18.7502Z" fill="black"/>
<path d="M14.3495 33.1245H11.5032C10.9877 33.1245 10.5698 33.5424 10.5698 34.0578V43.3709C10.5698 43.8864 10.9877 44.3042 11.5032 44.3042H14.3495C14.865 44.3042 15.2828 43.8864 15.2828 43.3709V34.0578C15.2828 33.5424 14.865 33.1245 14.3495 33.1245Z" fill="black"/>
<path d="M16.1169 30.771H13.2706C12.7551 30.771 12.3373 31.1889 12.3373 31.7043V45.1362C12.3373 45.6517 12.7551 46.0695 13.2706 46.0695H16.1169C16.6324 46.0695 17.0503 45.6517 17.0503 45.1362V31.7043C17.0503 31.1889 16.6324 30.771 16.1169 30.771Z" fill="#3B393F"/>
<path d="M51.1698 33.1245H48.3235C47.808 33.1245 47.3901 33.5424 47.3901 34.0578V43.3709C47.3901 43.8864 47.808 44.3042 48.3235 44.3042H51.1698C51.6853 44.3042 52.1031 43.8864 52.1031 43.3709V34.0578C52.1031 33.5424 51.6853 33.1245 51.1698 33.1245Z" fill="black"/>
<path d="M49.4025 30.771H46.5561C46.0407 30.771 45.6228 31.1889 45.6228 31.7043V45.1362C45.6228 45.6517 46.0407 46.0695 46.5561 46.0695H49.4025C49.9179 46.0695 50.3358 45.6517 50.3358 45.1362V31.7043C50.3358 31.1889 49.9179 30.771 49.4025 30.771Z" fill="#3B393F"/>
</g>
<path fill-rule="evenodd" clip-rule="evenodd" d="M69.7957 33.3654C69.7433 34.61 69.6842 35.7431 69.6188 36.7654C69.553 37.7872 69.4648 38.7081 69.3541 39.5265C69.2427 40.3452 69.0954 41.0693 68.9122 41.698C68.7291 42.327 68.4935 42.8705 68.2056 43.3292C68.0224 43.6309 67.816 43.8797 67.5872 44.0761C67.3584 44.2722 67.1193 44.4295 66.8711 44.5478C66.6222 44.6658 66.3768 44.7474 66.135 44.7935C65.8927 44.8393 65.6671 44.8622 65.4579 44.8622C65.157 44.8622 64.9049 44.8393 64.7021 44.7935C64.4992 44.7474 64.3003 44.6788 64.1038 44.5869L64.398 42.2683C64.4764 42.2947 64.5547 42.314 64.6335 42.327C64.7119 42.34 64.7907 42.3468 64.8691 42.3468C65.0782 42.3468 65.2846 42.2947 65.4871 42.189C65.6899 42.0849 65.8632 41.9078 66.0078 41.6585C66.2035 41.371 66.3737 40.9486 66.5178 40.3914C66.6616 39.8345 66.7892 39.1238 66.9003 38.2589C67.0114 37.394 67.1 36.3627 67.1654 35.1638C67.2304 33.9648 67.276 32.5667 67.3028 30.9683H75.4088V44.7245H72.7198V33.3654H69.7957Z" fill="black"/>
<path fill-rule="evenodd" clip-rule="evenodd" d="M83.4664 38.8481H83.4077L82.5636 40.2825L79.07 44.7241H77.4606V34.8979H80.0121V39.575L79.8943 40.9116H79.9727L80.7778 39.5162L84.3105 34.8979H85.9199V44.7241H83.3687V40.2431L83.4664 38.8481Z" fill="black"/>
<path fill-rule="evenodd" clip-rule="evenodd" d="M92.8469 37.1582V44.7241H90.217V37.1582H87.4106V34.8979H95.5753V37.1582H92.8469Z" fill="black"/>
<path fill-rule="evenodd" clip-rule="evenodd" d="M101.254 33.09C100.992 33.09 100.743 33.0999 100.508 33.1196C100.272 33.1389 100.083 33.1622 99.9388 33.1886V37.6495C99.9907 37.6625 100.069 37.6759 100.174 37.6886C100.279 37.702 100.391 37.7118 100.508 37.7181C100.625 37.7248 100.74 37.728 100.851 37.728H101.096C101.45 37.728 101.8 37.6957 102.146 37.6298C102.493 37.5647 102.804 37.4433 103.079 37.2666C103.354 37.0895 103.573 36.8438 103.737 36.5291C103.9 36.2147 103.982 35.8022 103.982 35.2915C103.982 34.8588 103.904 34.5019 103.746 34.2199C103.59 33.9387 103.383 33.7123 103.128 33.5424C102.873 33.372 102.581 33.2537 102.255 33.1886C101.928 33.1227 101.593 33.09 101.254 33.09ZM99.0655 30.8597C99.7257 30.8006 100.383 30.771 101.038 30.771C101.718 30.771 102.402 30.827 103.089 30.9382C103.776 31.0494 104.394 31.2723 104.943 31.6063C105.493 31.9404 105.941 32.4053 106.288 33.0013C106.634 33.598 106.808 34.3741 106.808 35.3301C106.808 36.195 106.658 36.9258 106.356 37.5217C106.055 38.1181 105.657 38.6055 105.159 38.9857C104.662 39.3659 104.096 39.6412 103.462 39.8112C102.827 39.9819 102.169 40.0667 101.49 40.0667H101.175C101.031 40.0667 100.881 40.0632 100.723 40.0569C100.567 40.0502 100.413 40.0407 100.262 40.0277C100.112 40.0147 100.003 40.0013 99.9384 39.9882V44.7244H97.2498V31.105C97.7988 31.0005 98.4046 30.9185 99.0655 30.8597Z" fill="#FF4C00"/>
<path fill-rule="evenodd" clip-rule="evenodd" d="M111.926 36.6265C111.128 36.6498 110.756 36.8509 110.423 37.243C110.092 37.633 109.901 38.1654 109.837 38.8335L113.501 38.8678C113.553 38.1607 113.49 37.6145 113.223 37.2347C112.957 36.8545 112.499 36.6096 111.926 36.6265ZM113.962 44.6752C113.289 44.8917 112.572 44.9998 111.813 44.9998C110.23 44.9998 109.072 44.538 108.339 43.6139C107.606 42.6903 107.24 41.4227 107.24 39.8112C107.24 38.0822 107.652 36.7847 108.476 35.9202C109.301 35.0553 110.459 34.623 111.95 34.623C112.448 34.623 112.932 34.6885 113.403 34.8195C113.874 34.9504 114.292 35.1669 114.659 35.4678C115.026 35.7695 115.32 36.1758 115.542 36.6865C115.765 37.1972 115.876 37.8334 115.876 38.5934C115.876 38.8678 115.86 39.1628 115.827 39.4772C115.794 39.7915 115.745 40.1188 115.68 40.46H109.764C109.804 41.2854 110.062 41.9074 110.447 42.3266C110.831 42.7463 111.455 42.9553 112.315 42.9553C112.849 42.9553 113.321 42.8512 113.752 42.71C114.29 42.5341 114.797 42.2943 114.797 42.2943L115.562 43.8793C115.169 44.1937 114.636 44.4591 113.962 44.6752Z" fill="#FF4C00"/>
<path fill-rule="evenodd" clip-rule="evenodd" d="M124.17 36.7968C124.17 36.7968 123.389 36.6379 122.774 36.6379C121.022 36.6379 119.885 37.642 119.885 39.8581C119.885 41.9369 120.752 42.9639 122.581 42.9639C123.178 42.9639 124.327 42.8041 124.327 42.8041L124.679 44.5801C124.198 44.7335 123.255 44.9654 122.119 44.9654C118.558 44.9654 117.249 42.3636 117.249 39.7232C117.249 37.0638 118.789 34.6738 122.331 34.6738C122.985 34.6738 123.793 34.7507 124.544 34.9436L124.17 36.7968Z" fill="#FF4C00"/>
<path fill-rule="evenodd" clip-rule="evenodd" d="M128.201 37.6997C127.401 37.6997 126.753 37.051 126.753 36.25C126.753 35.449 127.401 34.7998 128.201 34.7998C129.001 34.7998 129.649 35.449 129.649 36.25C129.649 37.051 129.001 37.6997 128.201 37.6997Z" fill="#FF4C00"/>
<path fill-rule="evenodd" clip-rule="evenodd" d="M129.649 43.4203C129.649 44.2209 129.001 44.8701 128.201 44.8701C127.401 44.8701 126.753 44.2209 126.753 43.4203C126.753 42.6189 127.401 41.9697 128.201 41.9697C129.001 41.9697 129.649 42.6193 129.649 43.4203Z" fill="#FF4C00"/>
<path d="M71.1584 23.6895H70.0217V20.2266C69.0022 20.6055 68.1096 20.7949 67.344 20.7949C66.7463 20.7949 66.219 20.6562 65.762 20.3789C65.3049 20.0977 64.9983 19.7422 64.842 19.3125C64.6897 18.8828 64.6135 18.3203 64.6135 17.625V15.0996H65.7502V17.5195C65.7502 18.457 65.9202 19.0742 66.26 19.3711C66.6038 19.6641 67.0159 19.8105 67.4963 19.8105C68.2971 19.8105 69.1389 19.6328 70.0217 19.2773V15.0996H71.1584V23.6895ZM72.8987 17.4668H73.9534V22.2129L76.8772 17.4668H78.0139V23.6895H76.9592V18.9727L74.0354 23.6895H72.8987V17.4668ZM79.0334 17.4668H84.0901V18.3398H82.0862V23.6895H81.0374V18.3398H79.0334V17.4668ZM89.0178 22.9219C88.6272 23.2539 88.2502 23.4883 87.887 23.625C87.5276 23.7617 87.1409 23.8301 86.7268 23.8301C86.0432 23.8301 85.5178 23.6641 85.1506 23.332C84.7834 22.9961 84.5999 22.5684 84.5999 22.0488C84.5999 21.7441 84.6682 21.4668 84.8049 21.2168C84.9456 20.9629 85.1272 20.7598 85.3499 20.6074C85.5764 20.4551 85.8303 20.3398 86.1116 20.2617C86.3186 20.207 86.6311 20.1543 87.0491 20.1035C87.9006 20.002 88.5276 19.8809 88.9299 19.7402C88.9338 19.5957 88.9358 19.5039 88.9358 19.4648C88.9358 19.0352 88.8362 18.7324 88.637 18.5566C88.3674 18.3184 87.967 18.1992 87.4358 18.1992C86.9397 18.1992 86.5725 18.2871 86.3342 18.4629C86.0999 18.6348 85.926 18.9414 85.8127 19.3828L84.7815 19.2422C84.8752 18.8008 85.0295 18.4453 85.2444 18.1758C85.4592 17.9023 85.7698 17.6934 86.176 17.5488C86.5823 17.4004 87.053 17.3262 87.5881 17.3262C88.1194 17.3262 88.551 17.3887 88.8831 17.5137C89.2151 17.6387 89.4592 17.7969 89.6155 17.9883C89.7717 18.1758 89.8811 18.4141 89.9436 18.7031C89.9788 18.8828 89.9963 19.207 89.9963 19.6758V21.082C89.9963 22.0625 90.0178 22.6836 90.0608 22.9453C90.1077 23.2031 90.1975 23.4512 90.3303 23.6895H89.2288C89.1194 23.4707 89.0491 23.2148 89.0178 22.9219ZM88.9299 20.5664C88.5471 20.7227 87.9729 20.8555 87.2073 20.9648C86.7737 21.0273 86.467 21.0977 86.2874 21.1758C86.1077 21.2539 85.969 21.3691 85.8713 21.5215C85.7737 21.6699 85.7249 21.8359 85.7249 22.0195C85.7249 22.3008 85.8303 22.5352 86.0413 22.7227C86.2561 22.9102 86.5686 23.0039 86.9788 23.0039C87.385 23.0039 87.7463 22.916 88.0627 22.7402C88.3792 22.5605 88.6116 22.3164 88.76 22.0078C88.8733 21.7695 88.9299 21.418 88.9299 20.9531V20.5664ZM90.7991 17.4668H95.8557V18.3398H93.8518V23.6895H92.803V18.3398H90.7991V17.4668ZM96.8459 17.4668H97.9006V19.8984H99.2366C100.108 19.8984 100.778 20.0684 101.246 20.4082C101.719 20.7441 101.955 21.209 101.955 21.8027C101.955 22.3223 101.758 22.7676 101.364 23.1387C100.973 23.5059 100.346 23.6895 99.4827 23.6895H96.8459V17.4668ZM97.9006 22.8223H99.0081C99.676 22.8223 100.153 22.7402 100.438 22.5762C100.723 22.4121 100.865 22.1562 100.865 21.8086C100.865 21.5391 100.76 21.2988 100.549 21.0879C100.338 20.877 99.8713 20.7715 99.1487 20.7715H97.9006V22.8223ZM106.467 17.4668H107.522V20.0566H110.446V17.4668H111.5V23.6895H110.446V20.9297H107.522V23.6895H106.467V17.4668ZM117.155 22.9219C116.764 23.2539 116.387 23.4883 116.024 23.625C115.664 23.7617 115.278 23.8301 114.864 23.8301C114.18 23.8301 113.655 23.6641 113.287 23.332C112.92 22.9961 112.737 22.5684 112.737 22.0488C112.737 21.7441 112.805 21.4668 112.942 21.2168C113.082 20.9629 113.264 20.7598 113.487 20.6074C113.713 20.4551 113.967 20.3398 114.248 20.2617C114.455 20.207 114.768 20.1543 115.186 20.1035C116.037 20.002 116.664 19.8809 117.067 19.7402C117.071 19.5957 117.073 19.5039 117.073 19.4648C117.073 19.0352 116.973 18.7324 116.774 18.5566C116.504 18.3184 116.104 18.1992 115.573 18.1992C115.076 18.1992 114.709 18.2871 114.471 18.4629C114.237 18.6348 114.063 18.9414 113.949 19.3828L112.918 19.2422C113.012 18.8008 113.166 18.4453 113.381 18.1758C113.596 17.9023 113.906 17.6934 114.313 17.5488C114.719 17.4004 115.19 17.3262 115.725 17.3262C116.256 17.3262 116.688 17.3887 117.02 17.5137C117.352 17.6387 117.596 17.7969 117.752 17.9883C117.908 18.1758 118.018 18.4141 118.08 18.7031C118.115 18.8828 118.133 19.207 118.133 19.6758V21.082C118.133 22.0625 118.155 22.6836 118.198 22.9453C118.244 23.2031 118.334 23.4512 118.467 23.6895H117.365C117.256 23.4707 117.186 23.2148 117.155 22.9219ZM117.067 20.5664C116.684 20.7227 116.11 20.8555 115.344 20.9648C114.91 21.0273 114.604 21.0977 114.424 21.1758C114.244 21.2539 114.106 21.3691 114.008 21.5215C113.91 21.6699 113.862 21.8359 113.862 22.0195C113.862 22.3008 113.967 22.5352 114.178 22.7227C114.393 22.9102 114.705 23.0039 115.115 23.0039C115.522 23.0039 115.883 22.916 116.199 22.7402C116.516 22.5605 116.748 22.3164 116.897 22.0078C117.01 21.7695 117.067 21.418 117.067 20.9531V20.5664Z" fill="#737373"/>
<defs>
<clipPath id="clip0_501_2">
<rect width="41.5333" height="42" fill="white" transform="translate(10.5698 9)"/>
</clipPath>
</defs>
</svg>
