<svg width="21" height="21" viewBox="0 0 21 21" fill="none" xmlns="http://www.w3.org/2000/svg">
<g clip-path="url(#clip0_117_47)">
<path d="M10.4169 0.975586C7.05749 0.975586 4.32432 3.59933 4.32432 6.82446V10.1649C4.32432 10.2029 4.27552 10.2668 4.23719 10.279C3.90773 10.3845 3.64015 10.4759 3.39522 10.5666C3.10312 10.6747 2.88281 10.9854 2.88281 11.2894V18.9648C2.88281 19.2668 3.1017 19.5778 3.39194 19.6882C5.63763 20.5425 8.00116 20.9756 10.4169 20.9756C12.8326 20.9756 15.1961 20.5424 17.4419 19.6881C17.732 19.5777 17.9508 19.2668 17.9508 18.9648V11.2894C17.9508 10.9854 17.7305 10.6747 17.4383 10.5665C17.1932 10.4758 16.9257 10.3844 16.5965 10.2789C16.5583 10.2667 16.5095 10.2027 16.5095 10.1648V6.82435C16.5093 3.59933 13.7763 0.975586 10.4169 0.975586ZM8.75743 13.6271C8.75743 12.7467 9.50039 12.0342 10.4168 12.0342C11.3331 12.0342 12.0761 12.7466 12.0761 13.6271C12.0761 14.2105 11.7334 14.699 11.2464 14.9759V17.6095C11.2464 18.0498 10.8753 18.406 10.4168 18.406C9.95813 18.406 9.58709 18.0498 9.58709 17.6095V14.9759C9.10017 14.699 8.75743 14.2105 8.75743 13.6271ZM14.4145 6.82435V9.70654C13.1036 9.43573 11.7586 9.29858 10.4174 9.29848C9.07686 9.29848 7.73219 9.43566 6.41921 9.70623V6.82435C6.41921 4.7082 8.21249 2.98668 10.4168 2.98668C12.621 2.98664 14.4145 4.7082 14.4145 6.82435Z" fill="#D1D1D1"/>
</g>
<defs>
<clipPath id="clip0_117_47">
<rect width="20.8333" height="20" fill="white" transform="translate(0 0.975586)"/>
</clipPath>
</defs>
</svg>
