<svg width="144" height="60" viewBox="0 0 144 60" fill="none" xmlns="http://www.w3.org/2000/svg">
<g clip-path="url(#clip0_11_583)">
<path d="M1.35384 0H143.105V59.9998H0.793823V0H1.35387H1.35384ZM141.985 1.1202H1.91387V58.8796H141.985V1.1202Z" fill="#878787"/>
<path d="M55.9812 9.93492H52.4354V19.301H54.5762V16.3574H55.9811C57.8276 16.3574 59.2594 14.9257 59.2594 13.1462C59.2594 11.3665 57.8276 9.9349 55.9811 9.9349L55.9812 9.93492ZM55.9812 14.3503H54.5762V11.9419H55.9812C56.6368 11.9419 57.1185 12.4638 57.1185 13.1462C57.1185 13.8286 56.6368 14.3503 55.9812 14.3503ZM65.2536 19.301H67.555L65.5614 15.8623C66.5916 15.3404 67.2874 14.2968 67.2874 13.1462C67.2874 11.3665 65.8557 9.93492 64.0762 9.93492H60.3297V19.301H62.4705V16.2235H63.4875L65.2535 19.301H65.2536ZM62.4705 11.9419H64.0762C64.6649 11.9419 65.1465 12.4638 65.1465 13.1462C65.1465 13.8286 64.6649 14.3503 64.0762 14.3503H62.4705V11.9419ZM72.8936 19.4883C75.5832 19.4883 77.7641 17.3743 77.7641 14.618C77.7641 11.8617 75.5832 9.74756 72.8936 9.74756C70.2043 9.74756 68.0233 11.8617 68.0233 14.618C68.0233 17.3743 70.2043 19.4883 72.8936 19.4883ZM72.8936 17.4011C71.3683 17.4011 70.1642 16.2905 70.1642 14.618C70.1642 12.9455 71.3683 11.8349 72.8936 11.8349C74.4191 11.8349 75.6232 12.9455 75.6232 14.618C75.6232 16.2905 74.4191 17.4011 72.8936 17.4011ZM58.2423 30.8348C58.7508 30.3933 59.0586 29.7777 59.0586 29.0018C59.0586 27.3826 57.7339 26.3257 56.1016 26.3257H52.4354V35.6918H56.3691C58.0416 35.6918 59.3931 34.608 59.3931 32.9489C59.3931 31.9989 58.9382 31.2763 58.2423 30.8348V30.8348ZM56.1016 28.3327C56.5966 28.3327 56.9178 28.6806 56.9178 29.1623C56.9178 29.644 56.5833 29.9919 56.1016 29.9919H54.5762V28.3326H56.1016V28.3327ZM56.3691 33.6848H54.5762V31.8918H56.3691C56.9043 31.8918 57.2522 32.2665 57.2522 32.7882C57.2522 33.3101 56.9043 33.6848 56.3691 33.6848V33.6848ZM62.6042 33.6313V26.3257H60.4635V35.6918H65.9494V33.6313H62.6042ZM70.8197 35.8791C73.5092 35.8791 75.6902 33.7651 75.6902 31.0088C75.6902 28.2524 73.5092 26.1383 70.8197 26.1383C68.1303 26.1383 65.9494 28.2524 65.9494 31.0088C65.9494 33.7651 68.1303 35.8791 70.8197 35.8791ZM70.8197 33.7918C69.2944 33.7918 68.0903 32.6813 68.0903 31.0088C68.0903 29.3363 69.2944 28.2257 70.8197 28.2257C72.3452 28.2257 73.5493 29.3363 73.5493 31.0088C73.5493 32.6813 72.3452 33.7918 70.8197 33.7918ZM81.3634 35.8791C83.0761 35.8791 84.5746 35.0362 85.3775 33.7116L83.531 32.6411C83.1296 33.3637 82.3134 33.7918 81.3634 33.7918C79.7043 33.7918 78.6339 32.6813 78.6339 31.0088C78.6339 29.3363 79.7043 28.2257 81.3634 28.2257C82.3134 28.2257 83.1163 28.6539 83.531 29.3763L85.3775 28.306C84.5613 26.9814 83.0628 26.1383 81.3634 26.1383C78.5402 26.1383 76.493 28.2524 76.493 31.0088C76.493 33.7651 78.5402 35.8791 81.3634 35.8791ZM93.9542 35.6918L90.6626 30.8883L93.8204 26.3257H91.3852L88.5218 30.3933V26.3257H86.381V35.6918H88.5218V31.3567L91.519 35.6918H93.9542V35.6918ZM98.423 35.8791C100.136 35.8791 101.634 35.0362 102.437 33.7116L100.591 32.6411C100.189 33.3637 99.3731 33.7918 98.423 33.7918C96.764 33.7918 95.6936 32.6813 95.6936 31.0088C95.6936 29.3363 96.764 28.2257 98.423 28.2257C99.3731 28.2257 100.176 28.6539 100.591 29.3763L102.437 28.306C101.621 26.9814 100.122 26.1383 98.423 26.1383C95.5999 26.1383 93.5527 28.2524 93.5527 31.0088C93.5527 33.7651 95.5999 35.8791 98.423 35.8791ZM108.525 26.3257V29.9115H105.581V26.3257H103.441V35.6918H105.581V31.9721H108.525V35.6918H110.666V26.3257H108.525ZM118.226 35.6918H120.567L117.383 26.3257H114.653L111.469 35.6918H113.81L114.279 34.22H117.758L118.226 35.6918ZM114.921 32.2129L116.018 28.7743L117.115 32.2129H114.921H114.921ZM121.37 26.3257V35.6918H123.511V26.3257H121.37ZM130.335 26.3257V31.4102L126.722 26.3257H125.117V35.6918H127.257V30.6073L130.87 35.6918H132.476V26.3257H130.335ZM61.8016 42.7164H59.6607L57.1185 46.8776L54.5762 42.7164H52.4355V52.0826H54.5762V46.6369L56.9981 50.6108H57.239L59.6607 46.6369V52.0826H61.8016V42.7164ZM65.548 50.0221V48.3629H68.8932V46.3291H65.548V44.7769H69.2276V42.7164H63.4073V52.0825H69.2945V50.022H65.548V50.0221ZM74.2452 42.7164H70.4987V52.0826H74.2452C76.8275 52.0826 78.7945 50.0488 78.7945 47.3995C78.7945 44.7502 76.8275 42.7164 74.2452 42.7164ZM74.2452 50.0221H72.6395V44.7769H74.2452C75.717 44.7769 76.7338 45.7938 76.7338 47.3995C76.7338 49.0051 75.717 50.0221 74.2452 50.0221ZM79.9987 42.7164V52.0826H82.1395V42.7164H79.9987ZM89.6993 52.0826H92.0409L88.8564 42.7164H86.1268L82.9423 52.0826H85.2839L85.7522 50.6108H89.2311L89.6993 52.0826ZM86.3944 48.6036L87.4916 45.165L88.5887 48.6036H86.3943H86.3944Z" fill="#878787"/>
<path d="M30.3669 9.77423C30.3757 9.77423 30.3833 9.76839 30.3858 9.76011C30.3965 9.72453 30.4149 9.67714 30.4156 9.67592C30.4507 9.58941 30.5 9.50821 30.5601 9.43569C30.562 9.43325 30.6002 9.38939 30.6313 9.3602C30.7959 9.20296 31.0193 9.1117 31.2485 9.10815C31.2488 9.10815 31.249 9.10815 31.2493 9.10815C31.2552 9.10815 31.2611 9.10762 31.2668 9.10815C31.2671 9.10815 31.2675 9.10815 31.2677 9.10815C31.5562 9.11114 31.8361 9.25616 32.0025 9.48826C32.0225 9.51636 32.0465 9.55547 32.05 9.562C32.1362 9.70866 32.1789 9.8818 32.1736 10.0502C32.1726 10.0753 32.1875 10.0987 32.2112 10.108C32.7462 10.3238 38.4604 12.6271 39.4181 13.0131C39.4952 13.044 39.5835 13.0258 39.642 12.9668C39.8075 12.7984 40.0376 12.6926 40.277 12.6903C40.2773 12.6903 40.2775 12.6903 40.2777 12.6903C40.2835 12.6903 40.2835 12.6903 40.2895 12.6903C40.2896 12.6903 40.2899 12.6903 40.29 12.6903C40.607 12.6931 40.9144 12.8726 41.0705 13.1521C41.119 13.2387 41.1524 13.3329 41.1704 13.4293C41.1704 13.4305 41.171 13.4316 41.171 13.4323C41.1715 13.4381 41.1821 13.5 41.1844 13.551C41.1867 13.6135 41.1832 13.6773 41.1726 13.7399C41.1715 13.7468 41.1704 13.7538 41.1687 13.7615C41.1635 13.7906 41.1559 13.8188 41.1478 13.8474C41.1478 13.848 41.1474 13.8486 41.1474 13.8492C41.1449 13.8561 41.1351 13.8883 41.1265 13.9111C41.0993 13.9826 41.0622 14.0491 41.018 14.1112C40.9694 14.1784 40.9653 14.2679 41.008 14.3392C41.4464 15.0654 43.6491 18.7126 44.0794 19.4251C44.121 19.494 44.1986 19.5324 44.2782 19.5236C44.3109 19.5194 44.3449 19.5173 44.3782 19.5173C44.3782 19.5173 44.3789 19.5173 44.3794 19.5173C44.5828 19.5194 44.7834 19.5903 44.9384 19.7177C44.9396 19.7182 44.9407 19.7187 44.9407 19.7194C44.9431 19.7211 44.9652 19.7397 44.9652 19.7397C44.9852 19.7572 45.0022 19.7742 45.005 19.777C45.0249 19.7966 45.0413 19.8153 45.0413 19.8153C45.0501 19.8251 45.0524 19.8277 45.0524 19.8277C45.0781 19.8577 45.0793 19.8601 45.0864 19.869C45.0864 19.8691 45.0864 19.8691 45.0869 19.8692C45.0933 19.8786 45.0974 19.8831 45.1085 19.8996C45.1085 19.8998 45.109 19.9 45.109 19.9002C45.109 19.9003 45.1249 19.9226 45.1249 19.9226C45.1343 19.9376 45.1313 19.9329 45.1389 19.9455C45.1389 19.9455 45.1389 19.9455 45.1389 19.9456C45.1412 19.9485 45.1629 19.9849 45.1787 20.0164C45.1798 20.0188 45.1927 20.0461 45.1927 20.0461C45.2091 20.0839 45.2114 20.0906 45.2114 20.0906C45.2219 20.1191 45.2307 20.1453 45.2312 20.1483C45.2355 20.1598 45.236 20.1639 45.236 20.1639C45.236 20.165 45.2447 20.1958 45.2447 20.1958C45.2482 20.2105 45.2523 20.2291 45.2523 20.2291C45.2558 20.2478 45.2606 20.2732 45.2606 20.2732C45.2629 20.2884 45.2652 20.3072 45.2652 20.3072C45.2716 20.3637 45.271 20.3751 45.271 20.3751C45.2716 20.3842 45.2716 20.3935 45.2716 20.4028C45.2723 20.404 45.2723 20.4052 45.2723 20.4066C45.2723 20.4106 45.2723 20.4211 45.2723 20.4249C45.2723 20.4263 45.2723 20.4275 45.2716 20.4286C45.271 20.4644 45.2687 20.5003 45.2641 20.536C45.2641 20.5369 45.2606 20.5578 45.2606 20.5581C45.2518 20.6146 45.2548 20.5918 45.2489 20.6184L45.2429 20.6417C45.2424 20.6434 45.2419 20.6449 45.2419 20.6465C45.2401 20.6519 45.236 20.6684 45.2342 20.6743C45.233 20.6759 45.233 20.6776 45.2325 20.6792C45.2266 20.6989 45.2185 20.7209 45.2173 20.7243C45.212 20.7381 45.2038 20.7588 45.2033 20.7604C45.1874 20.7976 45.1805 20.8115 45.1787 20.8149C45.1711 20.8295 45.1605 20.8485 45.1571 20.8552C45.1564 20.8563 45.1559 20.8574 45.1553 20.8585C45.1518 20.8642 45.136 20.8898 45.136 20.8899C45.1097 20.9323 45.1155 20.9228 45.0991 20.9444C45.0991 20.9445 45.0828 20.9676 45.0653 20.9885C45.0641 20.9897 45.0635 20.9908 45.0623 20.9921C45.0582 20.9965 45.0418 21.015 45.0372 21.0212C45.0354 21.0233 45.0336 21.0252 45.0319 21.027C45.0143 21.0454 45.0067 21.0525 45.0055 21.054C45.005 21.054 45.005 21.0541 45.005 21.0542C44.9933 21.0655 44.9822 21.0764 44.97 21.0871C44.9512 21.1036 44.9494 21.1046 44.9406 21.1119C44.9261 21.1239 44.9061 21.1387 44.8998 21.1432C44.8985 21.1441 44.8975 21.1451 44.8962 21.1459C44.881 21.1566 44.8313 21.1891 44.8016 21.2052C44.8016 21.2052 44.8016 21.2053 44.8009 21.2053C44.7991 21.2064 44.7974 21.2077 44.7951 21.2086C44.725 21.2464 44.6822 21.3216 44.687 21.4016C44.736 22.3325 45.0131 27.5439 45.0618 28.4603C45.0658 28.5388 45.1143 28.6083 45.1868 28.6392C45.2254 28.6545 45.2623 28.6735 45.2974 28.6951C45.3272 28.7133 45.2961 28.687 45.3775 28.7507C45.3775 28.7508 45.3968 28.7665 45.3968 28.7665C45.4213 28.7872 45.4447 28.8091 45.467 28.8323C45.4675 28.8325 45.4675 28.833 45.4681 28.8331L45.4822 28.8479C45.5142 28.8841 45.5167 28.8881 45.5284 28.903C45.5294 28.9047 45.5512 28.9347 45.5547 28.9402C45.5768 28.9723 45.588 28.9929 45.5903 28.9969C45.5997 29.0136 45.6119 29.0371 45.6119 29.0371C45.6266 29.0661 45.6301 29.0743 45.6301 29.0743C45.6371 29.0918 45.6405 29.1001 45.6459 29.1131L45.6488 29.1214C45.6494 29.1225 45.6499 29.1237 45.6506 29.1249C45.6734 29.1873 45.6892 29.252 45.6968 29.3175V29.3176L45.6991 29.3388C45.7026 29.379 45.7032 29.4336 45.7032 29.4362C45.7027 29.4584 45.7004 29.4879 45.6997 29.4981C45.6991 29.5001 45.6991 29.502 45.6991 29.5041C45.6979 29.5133 45.6968 29.5234 45.6961 29.5263C45.6961 29.5277 45.6961 29.529 45.6961 29.5304C45.6869 29.5995 45.6699 29.6677 45.6441 29.7322C45.643 29.7341 45.6423 29.7361 45.6413 29.7382C45.6378 29.7467 45.622 29.7841 45.6213 29.7843C45.6213 29.7845 45.6213 29.7847 45.6213 29.7849C45.6185 29.7908 45.6179 29.7923 45.6103 29.8071V29.8073C45.6103 29.8074 45.5617 29.8977 45.5062 29.9644C45.505 29.9659 45.5039 29.9674 45.5026 29.9687C45.5026 29.9687 45.4839 29.9902 45.4775 29.997C45.4764 29.9988 45.4747 30.0005 45.4729 30.0021C45.4664 30.0089 45.4646 30.0105 45.4646 30.0105C45.4442 30.0312 45.4238 30.051 45.4015 30.0696C45.388 30.0811 45.3875 30.0815 45.3822 30.0862C45.3746 30.0917 45.3659 30.0982 45.3659 30.0984C45.3659 30.0984 45.3659 30.0985 45.3659 30.0987C45.3477 30.112 45.3302 30.1246 45.3114 30.1364C45.2987 30.1444 45.298 30.1448 45.2934 30.1476C45.2079 30.1989 45.1968 30.1986 45.174 30.208C45.0653 30.2522 44.9477 30.2704 44.8314 30.2658C44.7519 30.2633 44.6787 30.3058 44.6419 30.3757C44.2362 31.1434 42.0568 35.2687 41.6389 36.0597C41.5996 36.1339 41.609 36.2242 41.6628 36.2884C41.7312 36.3699 41.788 36.4629 41.8271 36.5654C41.8317 36.577 41.8352 36.5885 41.84 36.6C41.858 36.6529 41.8722 36.7068 41.8821 36.7665C41.8821 36.7681 41.8826 36.7699 41.8826 36.7717C41.8831 36.7804 41.8884 36.8125 41.8884 36.8138C41.9001 36.9168 41.8955 37.022 41.8768 37.1225C41.8762 37.125 41.8755 37.1275 41.875 37.1301C41.8697 37.1517 41.8423 37.263 41.8055 37.3449C41.6171 37.7628 41.1236 38.0213 40.6573 37.9135C40.4806 37.8726 40.3183 37.7815 40.1881 37.6562C40.1281 37.5989 40.0394 37.583 39.9633 37.6162C38.9681 38.0501 32.7593 40.76 31.946 41.1151C31.8956 41.137 31.8613 41.1846 31.8561 41.2394C31.8561 41.2399 31.856 41.2403 31.856 41.241C31.856 41.2418 31.854 41.26 31.8534 41.2653C31.8534 41.2672 31.853 41.2691 31.8527 41.2709C31.8452 41.3272 31.8312 41.3828 31.8102 41.4359C31.8094 41.438 31.8086 41.4402 31.8075 41.4423C31.8052 41.4478 31.7968 41.4674 31.7928 41.4764C31.7915 41.4796 31.79 41.4828 31.7885 41.4859C31.7751 41.5122 31.7678 41.5258 31.756 41.5452C31.7378 41.5749 31.7176 41.6035 31.6952 41.6303C31.6935 41.6322 31.6919 41.6343 31.6903 41.6362C31.6848 41.642 31.6698 41.6586 31.6635 41.6657C31.6614 41.6681 31.659 41.6705 31.6566 41.673C31.6398 41.6897 31.6179 41.7094 31.6108 41.7158C31.6091 41.7172 31.6074 41.7189 31.6057 41.7201C31.5907 41.7326 31.5844 41.7375 31.5743 41.7451C31.3292 41.9272 30.9628 41.9272 30.718 41.7371C30.7011 41.7241 30.6799 41.7053 30.6725 41.6984C30.6707 41.6969 30.6689 41.6954 30.6673 41.6938C30.6554 41.6822 30.6412 41.668 30.636 41.6624C30.6342 41.6605 30.6322 41.6585 30.6304 41.6564C30.5888 41.6103 30.5526 41.5597 30.5235 41.5041C30.5208 41.499 30.5065 41.4685 30.5026 41.4602C30.5019 41.4588 30.5014 41.4575 30.5007 41.456C30.5007 41.456 30.5007 41.456 30.5007 41.4558C30.4961 41.4451 30.4855 41.4381 30.4738 41.4381C30.0912 41.4381 24.2622 41.4381 23.6366 41.4381C23.6051 41.4381 23.5771 41.4584 23.5673 41.4883C23.5653 41.4949 23.5247 41.6051 23.4832 41.6775C23.3739 41.868 23.1999 42.0171 22.9984 42.1023C22.9224 42.1343 22.873 42.209 22.873 42.2917C22.8723 43.3496 22.8723 49.8502 22.8723 50.8736C22.8723 50.951 22.9153 51.0217 22.9839 51.057C23.0144 51.0718 23.0437 51.089 23.0711 51.1081C23.0711 51.1081 23.0712 51.1082 23.0714 51.1082C23.0739 51.1101 23.1016 51.1293 23.1254 51.1487C23.1275 51.1505 23.1295 51.1521 23.1314 51.1538C23.1405 51.1617 23.1733 51.1909 23.1733 51.1909C23.1824 51.1999 23.1918 51.209 23.2006 51.2183C23.2042 51.2221 23.2044 51.2221 23.208 51.226C23.2463 51.2674 23.2783 51.3097 23.3052 51.3539C23.3063 51.3558 23.3075 51.3578 23.3086 51.3597C23.3137 51.3687 23.334 51.4048 23.334 51.4048C23.3548 51.4458 23.3731 51.4883 23.3869 51.5318C23.3872 51.5322 23.3873 51.5327 23.3876 51.5334C23.3876 51.5334 23.3902 51.5421 23.3913 51.5458C23.3917 51.547 23.392 51.5482 23.3924 51.5493C23.3932 51.552 23.3946 51.5574 23.3955 51.56C23.3959 51.5614 23.3962 51.5626 23.3965 51.5638C23.4008 51.5804 23.4058 51.6013 23.4058 51.6013C23.4095 51.6181 23.4138 51.6411 23.4138 51.6411C23.4163 51.6563 23.419 51.6763 23.419 51.6763C23.4227 51.708 23.4237 51.7265 23.4237 51.7265C23.425 51.7454 23.4254 51.767 23.4254 51.7687C23.4258 51.7945 23.4239 51.8296 23.4233 51.839C23.4233 51.8402 23.4232 51.8415 23.4231 51.8429C23.4227 51.8487 23.4222 51.8525 23.4221 51.8548C23.422 51.8567 23.4217 51.8586 23.4216 51.8607C23.4168 51.9024 23.4148 51.9131 23.4118 51.9287C23.4056 51.9622 23.3973 51.9954 23.3867 52.028C23.3863 52.0296 23.3857 52.0311 23.3853 52.0326C23.3834 52.0379 23.3779 52.0541 23.3754 52.0608C23.3747 52.063 23.3739 52.0652 23.3731 52.0672C23.3706 52.0733 23.3689 52.0779 23.3689 52.0779C23.3687 52.0785 23.3686 52.0789 23.3685 52.0792C23.347 52.1317 23.3378 52.1484 23.3352 52.1529C23.3348 52.1533 23.3344 52.1539 23.3341 52.1544C23.3246 52.1719 23.3113 52.1948 23.3067 52.2026C23.3055 52.2048 23.3042 52.2068 23.303 52.2088C23.2767 52.2503 23.2475 52.2898 23.2146 52.3257C23.2127 52.3278 23.2108 52.3298 23.2086 52.332C23.2016 52.3392 23.1785 52.3625 23.1699 52.3711C23.1676 52.3734 23.165 52.3758 23.1627 52.378C23.1531 52.3869 23.1418 52.3966 23.1384 52.3995C23.1376 52.4002 23.1368 52.401 23.1358 52.4018C23.1202 52.4148 23.0994 52.4306 23.0931 52.4353C23.0917 52.4363 23.0905 52.4372 23.0891 52.4382C23.0696 52.4522 23.0587 52.4595 23.0426 52.4697C22.7699 52.6406 22.3934 52.6307 22.1296 52.4342C22.1288 52.4337 22.1155 52.4238 22.1024 52.4133C22.0898 52.403 22.094 52.4068 22.0835 52.3976L22.0637 52.3799C22.0622 52.3787 22.0609 52.3775 22.0595 52.3762C22.0528 52.37 22.0511 52.3684 22.0511 52.3684C22.0367 52.3544 22.0185 52.3352 22.0122 52.3287C22.011 52.3272 22.0097 52.3259 22.0084 52.3244C21.9754 52.2874 21.945 52.2478 21.9192 52.2055C21.918 52.2035 21.9169 52.2016 21.9158 52.1996C21.9118 52.1928 21.8986 52.1693 21.8928 52.159C21.8908 52.1557 21.8892 52.1525 21.8873 52.1489C21.8785 52.1306 21.8683 52.1087 21.8657 52.1029C21.8652 52.1019 21.8648 52.1007 21.8644 52.0997C21.8619 52.094 21.8563 52.0904 21.8502 52.0904C21.5337 52.0904 13.9724 52.0904 12.8645 52.0904C12.7868 52.0904 12.7155 52.1342 12.6805 52.2035C12.6627 52.2402 12.6416 52.2758 12.618 52.3104C12.6149 52.315 12.5283 52.4342 12.431 52.5126C12.1588 52.7319 11.7598 52.7823 11.4385 52.6301C11.2957 52.5623 11.1719 52.4584 11.0779 52.3297C11.0778 52.3294 11.0776 52.3293 11.0774 52.329L11.0741 52.3245C11.0741 52.3244 11.0741 52.3244 11.074 52.3244C10.9606 52.1648 10.8991 51.9721 10.9003 51.7733C10.9007 51.6982 10.9102 51.6231 10.9284 51.5503L10.9297 51.5449C10.9297 51.5445 10.9299 51.5442 10.93 51.5439C10.9963 51.2893 11.1784 51.0722 11.4114 50.9486C11.4782 50.9134 11.5205 50.8446 11.5214 50.769C11.5321 49.9241 11.5869 45.2118 11.5968 44.3649C11.5977 44.2907 11.5587 44.222 11.4949 44.1845C11.4834 44.1782 11.4721 44.1712 11.4612 44.164C11.4599 44.1633 11.4588 44.1624 11.4576 44.1616C11.4553 44.16 11.4464 44.154 11.4422 44.1511C11.4405 44.1501 11.4388 44.1487 11.4372 44.1475C11.416 44.132 11.3954 44.1157 11.3758 44.0983C11.3753 44.0979 11.3749 44.0975 11.3745 44.0971C11.3725 44.0952 11.3631 44.0866 11.3555 44.0794C11.3369 44.0615 11.3524 44.0792 11.3131 44.035C11.2986 44.0185 11.2835 43.999 11.2784 43.9922C11.2774 43.9909 11.2763 43.9895 11.2752 43.9882C11.2593 43.9662 11.2439 43.9437 11.2303 43.9203C11.2301 43.92 11.2301 43.9199 11.23 43.9197C11.23 43.9197 11.2242 43.9094 11.2221 43.9059C11.2214 43.9045 11.2208 43.9033 11.2201 43.9021C11.1975 43.8605 11.1785 43.8171 11.1643 43.7718C11.164 43.7708 11.1636 43.7695 11.1633 43.7684C11.1629 43.7672 11.1582 43.7513 11.1564 43.7451C11.156 43.7433 11.1554 43.7417 11.155 43.74C11.1541 43.7363 11.1533 43.7336 11.1529 43.7317C11.1522 43.7298 11.1518 43.7277 11.1514 43.7257C11.139 43.6726 11.1311 43.6188 11.1302 43.5659C11.1302 43.565 11.1302 43.5639 11.1302 43.5631C11.1302 43.5557 11.1303 43.5086 11.1339 43.4741C11.1355 43.4572 11.1378 43.4405 11.1407 43.424C11.1445 43.4013 11.1521 43.3701 11.1521 43.3701V43.3699C11.1623 43.3319 11.1586 43.3455 11.1605 43.3392C11.1605 43.3392 11.1704 43.308 11.1719 43.3045C11.1764 43.2914 11.183 43.2747 11.1854 43.2689C11.1862 43.2671 11.1868 43.2655 11.1875 43.2639C11.1977 43.2405 11.2125 43.211 11.2171 43.2019C11.2181 43.2003 11.2189 43.1987 11.2198 43.1969C11.2264 43.185 11.2227 43.1912 11.2299 43.179C11.2302 43.1786 11.2306 43.1779 11.2309 43.1774C11.2353 43.1702 11.2542 43.1395 11.2708 43.1168C11.2721 43.1146 11.2738 43.1126 11.2753 43.1105C11.2802 43.1043 11.2943 43.0864 11.3005 43.0785C11.3025 43.0762 11.3043 43.0737 11.3064 43.0714C11.3109 43.0664 11.3189 43.0574 11.3224 43.0532C11.3238 43.0519 11.325 43.0505 11.3262 43.0491C11.3345 43.0402 11.343 43.0315 11.3516 43.0231C11.3678 43.0072 11.3697 43.0058 11.3779 42.9985C11.3921 42.986 11.4117 42.9704 11.4172 42.966C11.4187 42.9648 11.4205 42.9636 11.4221 42.9622C11.4471 42.9436 11.473 42.9267 11.5002 42.9112C11.5641 42.8746 11.6039 42.8063 11.6036 42.7323C11.6022 41.6144 11.5849 33.6092 11.5826 32.5596C11.5826 32.4943 11.5514 32.4329 11.4987 32.394C11.4558 32.3621 11.4167 32.3241 11.3831 32.2802C11.3547 32.2429 11.3302 32.2024 11.3112 32.1596C11.3102 32.1575 11.3092 32.1554 11.3084 32.1532C11.3065 32.1487 11.2999 32.1322 11.2966 32.1242C11.2953 32.121 11.2942 32.1179 11.2931 32.1148C11.2918 32.1105 11.2903 32.1065 11.2894 32.1044C11.2888 32.1026 11.2882 32.1008 11.2877 32.0989C11.2824 32.0824 11.277 32.0618 11.2746 32.0526C11.274 32.0498 11.2732 32.0468 11.2726 32.0438C11.2702 32.0321 11.2676 32.0189 11.2666 32.0135C11.2662 32.0112 11.2658 32.009 11.2654 32.0067C11.2617 31.9823 11.2593 31.9518 11.2592 31.9493C11.2558 31.8971 11.2566 31.867 11.2662 31.8098C11.268 31.7985 11.271 31.784 11.2726 31.7771C11.2732 31.7745 11.2737 31.7719 11.2744 31.7695C11.2788 31.7528 11.2847 31.7321 11.2866 31.7256C11.2873 31.723 11.2881 31.7206 11.2891 31.7178C11.2983 31.6908 11.3071 31.6703 11.3071 31.6703C11.3073 31.6702 11.3073 31.6701 11.3074 31.6698C11.3505 31.5739 11.4182 31.4904 11.5015 31.4275C11.5524 31.3884 11.5821 31.3283 11.5823 31.2642C11.5851 30.2598 11.6026 22.7623 11.6044 22.0371C11.6045 22.0044 11.5846 21.9746 11.554 21.9624C11.5536 21.9623 11.553 21.962 11.5525 21.9619C11.548 21.9601 11.5435 21.9582 11.5392 21.9563C11.5392 21.9563 11.5388 21.9563 11.5388 21.956C11.4503 21.9176 11.3678 21.864 11.2982 21.7977C11.2969 21.7968 11.2958 21.7955 11.2945 21.7944C11.292 21.7919 11.2748 21.7748 11.2687 21.7688C11.2671 21.7672 11.2654 21.7653 11.2638 21.7636C11.2281 21.7254 11.1955 21.6842 11.1678 21.6405C11.167 21.6392 11.166 21.638 11.1654 21.6367C11.1624 21.6317 11.148 21.608 11.148 21.608C11.1386 21.5919 11.1432 21.6001 11.1354 21.5853C11.1354 21.5853 11.113 21.544 11.0958 21.5002C11.0957 21.4998 11.0953 21.4992 11.0953 21.4988C11.0953 21.4987 11.0885 21.4809 11.0868 21.4766C11.0865 21.4756 11.0861 21.4745 11.0858 21.4736C11.0798 21.4573 11.0735 21.4365 11.0735 21.4364C11.0641 21.4038 11.0688 21.4216 11.0638 21.4019C11.0638 21.4019 11.0513 21.3518 11.045 21.3048C11.0447 21.3029 11.0444 21.301 11.0443 21.2989C11.0437 21.2944 11.0418 21.278 11.0411 21.2714C11.0409 21.2692 11.0407 21.2669 11.0406 21.2648C11.0375 21.2242 11.0368 21.1836 11.0393 21.1431C11.0393 21.1425 11.0392 21.1415 11.0394 21.1407C11.0399 21.134 11.0433 21.0914 11.0496 21.0534C11.0503 21.0505 11.0508 21.0478 11.0513 21.0452C11.0537 21.0336 11.0625 20.993 11.0625 20.993C11.0625 20.9928 11.0625 20.9928 11.0625 20.9928C11.0739 20.9499 11.0698 20.9651 11.072 20.9582C11.072 20.9582 11.0777 20.9401 11.0791 20.9355C11.0795 20.9346 11.0797 20.9335 11.08 20.9325C11.0844 20.9199 11.0899 20.9047 11.0922 20.8986C11.0929 20.8967 11.0936 20.8949 11.0943 20.893C11.1033 20.8715 11.1144 20.846 11.1151 20.8449C11.1238 20.8259 11.1375 20.8004 11.1375 20.8002C11.1464 20.7838 11.1415 20.7924 11.1502 20.7775L11.1612 20.7593C11.1626 20.7573 11.1639 20.755 11.1653 20.7528C11.1773 20.7345 11.1928 20.7125 11.1976 20.7054C11.199 20.7035 11.2002 20.7016 11.2016 20.7C11.2821 20.593 11.3886 20.5042 11.5104 20.4462C11.5106 20.446 11.5111 20.4459 11.5115 20.4458C11.5696 20.4189 11.6069 20.3605 11.6069 20.2965C11.6075 19.2941 11.6118 11.8217 11.6124 10.7597C11.6124 10.6897 11.576 10.623 11.516 10.5855C11.5123 10.5832 11.5086 10.5809 11.5049 10.5785C11.5049 10.5785 11.5048 10.5785 11.5045 10.5785C11.5018 10.5761 11.4627 10.5498 11.4316 10.5236C11.4316 10.5236 11.4012 10.4972 11.3751 10.468C11.375 10.468 11.3747 10.468 11.3746 10.4673C11.3746 10.4673 11.3684 10.4604 11.3655 10.4574C11.3645 10.4563 11.3636 10.4551 11.3627 10.4539C11.3496 10.4387 11.3414 10.4288 11.3296 10.4125C11.3293 10.4118 11.3293 10.4118 11.3293 10.4118C11.329 10.4118 11.3233 10.4036 11.3208 10.4008C11.3199 10.399 11.3189 10.3978 11.318 10.3966C11.3073 10.3803 11.3051 10.3767 11.2999 10.3686C11.2896 10.3516 11.2771 10.3283 11.2726 10.3194C11.2714 10.3171 11.2702 10.3141 11.2688 10.3118C11.2485 10.2685 11.2315 10.2241 11.2205 10.1779C11.2201 10.1761 11.2125 10.1381 11.2098 10.1236C11.2089 10.1194 11.2083 10.1153 11.2079 10.1112C11.2038 10.0808 11.2019 10.0417 11.2019 10.0417C11.2012 9.99837 11.2018 9.99837 11.2024 9.98547C11.2034 9.96796 11.2057 9.94758 11.2058 9.94461C11.2081 9.92532 11.2099 9.91364 11.2134 9.89544C11.2155 9.88376 11.2103 9.90128 11.2225 9.85402C11.2338 9.81124 11.249 9.7686 11.2687 9.7288C11.2688 9.7288 11.269 9.72827 11.2692 9.72827C11.2714 9.72352 11.2876 9.69202 11.3039 9.66567C11.3049 9.6639 11.3059 9.66283 11.307 9.66159C11.3094 9.65806 11.3198 9.6423 11.3229 9.63755C11.3247 9.63524 11.3261 9.63293 11.3278 9.63062C11.3525 9.59668 11.3676 9.5797 11.3848 9.56163C11.3866 9.55985 11.3886 9.55863 11.3905 9.55688C11.3972 9.54995 11.4145 9.53353 11.4215 9.52647C11.4242 9.52363 11.4269 9.52132 11.4295 9.51885C11.4503 9.50187 11.4777 9.48096 11.4778 9.48096C11.4784 9.48027 11.4792 9.47974 11.4799 9.47919C11.5077 9.45923 11.5124 9.45745 11.5249 9.44986C11.6261 9.38902 11.744 9.35696 11.8615 9.35574C11.8617 9.35574 11.8619 9.35574 11.862 9.35574C11.8666 9.35574 11.8666 9.35574 11.8711 9.35574C11.8712 9.35574 11.8714 9.35574 11.8715 9.35574C11.9963 9.35696 12.1211 9.39255 12.2261 9.46098C12.227 9.46151 12.228 9.4622 12.2289 9.46276C12.234 9.46629 12.2656 9.48789 12.2861 9.50487H12.2862C12.3041 9.51885 12.3278 9.54168 12.3278 9.54168C12.3568 9.56978 12.3836 9.60074 12.4076 9.63415C12.4091 9.63593 12.4104 9.63824 12.412 9.64054C12.4167 9.6476 12.4308 9.66864 12.4308 9.66864C12.4384 9.68141 12.4488 9.69961 12.4488 9.69961C12.4538 9.70776 12.4546 9.71007 12.4546 9.71007C12.4751 9.74931 12.5158 9.77388 12.5603 9.77388C13.3544 9.77388 20.1164 9.77388 20.7119 9.77388C20.7365 9.77388 20.7584 9.75921 20.7671 9.73586C20.7676 9.73408 20.7982 9.66281 20.8005 9.65928C20.805 9.64991 20.8111 9.63824 20.8131 9.63471C20.8134 9.63418 20.8138 9.63293 20.8142 9.6324C20.8222 9.61719 20.8177 9.62534 20.8261 9.61067C20.8263 9.61067 20.8263 9.61067 20.8265 9.61014C20.8294 9.60605 20.8511 9.5698 20.8715 9.5417C20.873 9.53992 20.8743 9.53817 20.8758 9.53586C20.8811 9.52947 20.8973 9.50898 20.9044 9.50028C20.9061 9.49784 20.908 9.49553 20.9101 9.49322C20.9147 9.48792 20.9242 9.4768 20.9283 9.47218C20.9295 9.4704 20.9311 9.46918 20.9325 9.46743C20.9428 9.45698 20.9558 9.44352 20.9594 9.43999C20.9603 9.43946 20.9613 9.43821 20.9622 9.43715C20.9818 9.41842 21.0088 9.3956 21.0167 9.38907C21.018 9.38798 21.0194 9.38676 21.0207 9.38568C21.0495 9.36219 21.0759 9.34412 21.1112 9.32252C21.1157 9.31952 21.1157 9.31952 21.1201 9.31722C21.242 9.24647 21.3828 9.20898 21.523 9.20723C21.5232 9.20723 21.5234 9.20723 21.5236 9.20723C21.527 9.20723 21.5305 9.20723 21.5339 9.20723C21.5343 9.20723 21.5347 9.20723 21.5351 9.20723C21.7265 9.20967 21.916 9.27975 22.0605 9.4055H22.0607C22.0622 9.40728 22.0888 9.43007 22.1109 9.45289C22.1123 9.45467 22.1135 9.45573 22.1149 9.45751C22.1197 9.46226 22.1432 9.48792 22.1432 9.48792C22.1579 9.50543 22.1771 9.52947 22.1771 9.52947C22.1976 9.55691 22.1905 9.5482 22.1944 9.55404L22.2079 9.57333C22.2147 9.58326 22.216 9.58556 22.216 9.58556C22.216 9.58556 22.2192 9.59087 22.2206 9.59318C22.2216 9.59496 22.2223 9.59618 22.223 9.59727C22.2399 9.62537 22.2572 9.65933 22.2572 9.65933C22.2728 9.69152 22.2821 9.7119 22.2925 9.74122H22.2926C22.2997 9.76051 22.3187 9.77394 22.3398 9.77394C22.9071 9.77394 29.9975 9.77394 30.3672 9.77394L30.3669 9.77423ZM11.9974 52.5609C11.997 52.561 11.9964 52.561 11.996 52.5612C11.995 52.5613 11.9923 52.5619 11.9923 52.5619C11.9937 52.5616 11.9954 52.5613 11.9967 52.561C11.9981 52.5608 11.9994 52.5605 12.001 52.5602C12.001 52.5602 11.9985 52.5606 11.9974 52.5609H11.9974ZM22.8596 52.4012L22.8588 52.4016L22.8596 52.4012ZM22.8654 52.3989C22.8652 52.399 22.8646 52.3993 22.8642 52.3994C22.8633 52.3997 22.8617 52.4004 22.8617 52.4004C22.8626 52.4 22.8637 52.3996 22.8648 52.3992C22.866 52.3988 22.867 52.3983 22.868 52.3979C22.868 52.3979 22.8664 52.3986 22.8655 52.3989H22.8654ZM22.8705 52.3969L22.8694 52.3974L22.8705 52.3969ZM22.1491 52.2624C22.1491 52.2624 22.1493 52.2625 22.1495 52.2625L22.1491 52.2623C22.1491 52.2623 22.1491 52.2623 22.1491 52.2624ZM22.1426 52.2559C22.1434 52.2567 22.1442 52.2575 22.1449 52.2583C22.1457 52.2591 22.1465 52.2598 22.1473 52.2606C22.1473 52.2606 22.146 52.2594 22.1453 52.2587C22.145 52.2585 22.1447 52.2582 22.1444 52.2579C22.1438 52.2571 22.1425 52.2559 22.1425 52.2559L22.1426 52.2559ZM22.1409 52.2544L22.1413 52.2548L22.1406 52.2541C22.1406 52.2541 22.1408 52.2542 22.1409 52.2544L22.1409 52.2544ZM11.1216 52.1213C11.1221 52.1225 11.1227 52.1238 11.1232 52.1249C11.1239 52.1261 11.1245 52.1274 11.125 52.1288C11.125 52.1288 11.1241 52.1265 11.1235 52.1254C11.1234 52.1251 11.1233 52.1247 11.123 52.1243C11.1226 52.1233 11.1216 52.1213 11.1216 52.1213L11.1216 52.1213ZM11.1205 52.1194C11.1208 52.1195 11.1209 52.1198 11.1209 52.1199L11.12 52.1178C11.12 52.1178 11.1204 52.1189 11.1205 52.1194L11.1205 52.1194ZM23.2738 51.8782L23.2737 51.8793L23.2738 51.8782ZM23.2746 51.8725C23.2745 51.8731 23.2745 51.8735 23.2744 51.8739C23.2742 51.8748 23.274 51.8766 23.274 51.8766C23.2742 51.8755 23.2744 51.8743 23.2745 51.8733C23.2746 51.872 23.2749 51.8709 23.2749 51.8697C23.2749 51.8697 23.2747 51.8716 23.2746 51.8725V51.8725ZM16.9624 48.666C16.9446 48.6507 16.9188 48.6489 16.8989 48.6618C16.5341 48.8995 13.3529 50.971 12.7865 51.3399C12.7382 51.3714 12.717 51.4314 12.7349 51.4862C12.7352 51.4862 12.7352 51.4862 12.7352 51.4862C12.7517 51.5364 12.7986 51.5704 12.8514 51.5704C13.7785 51.5705 21.3403 51.5705 21.8042 51.5705C21.8173 51.5705 21.8286 51.5618 21.832 51.549C21.8323 51.5482 21.8325 51.5471 21.8328 51.5463C21.8343 51.5409 21.8358 51.5364 21.8365 51.5345L21.837 51.5325C21.8426 51.5154 21.8366 51.4964 21.8219 51.4856C21.5148 51.2614 18.4685 49.0367 18.0387 48.723C18.0099 48.702 17.9709 48.7013 17.9413 48.7214C17.9412 48.7215 17.9411 48.7217 17.9409 48.7217C17.9391 48.7228 17.906 48.7452 17.8736 48.7632C17.8721 48.7641 17.8706 48.7649 17.8691 48.7655C17.8612 48.7696 17.8292 48.7862 17.8035 48.7973C17.8016 48.7982 17.7994 48.7991 17.7974 48.7999C17.7814 48.8061 17.7085 48.8341 17.6397 48.8474C17.4028 48.8931 17.1465 48.825 16.9624 48.666V48.666ZM11.1294 51.4221C11.1294 51.4222 11.1292 51.4225 11.1292 51.4226C11.129 51.423 11.1284 51.4241 11.1284 51.4241L11.1294 51.4221V51.4221ZM11.1338 51.4137C11.133 51.4149 11.1325 51.4161 11.1318 51.4173C11.1313 51.4186 11.1306 51.4197 11.13 51.4209C11.13 51.4209 11.131 51.4188 11.1315 51.4179C11.1316 51.4175 11.1319 51.4171 11.132 51.4167C11.1326 51.4157 11.1338 51.4137 11.1338 51.4137L11.1338 51.4137ZM11.1352 51.411C11.1351 51.4111 11.1349 51.4115 11.1348 51.4118L11.1352 51.4107V51.411ZM22.8904 51.1714C22.8908 51.1716 22.8912 51.1718 22.8916 51.172C22.8926 51.1724 22.8942 51.1732 22.8942 51.1732C22.8931 51.1726 22.892 51.1722 22.8909 51.1717C22.8899 51.1712 22.8888 51.1707 22.8877 51.1702C22.8877 51.1702 22.8893 51.171 22.8904 51.1714H22.8904ZM22.8842 51.1686L22.887 51.1699C22.8861 51.1694 22.8852 51.169 22.8842 51.1686ZM22.8807 51.167L22.883 51.1681C22.8821 51.1677 22.8813 51.1674 22.8807 51.167ZM22.8785 51.1661H22.8786H22.8785ZM22.288 42.1279C22.25 42.1148 22.2076 42.1279 22.1837 42.1602C21.781 42.703 18.5886 47.0046 18.1882 47.5441C18.1642 47.5763 18.1619 47.6196 18.1818 47.6544V47.6545L18.1938 47.6756C18.2022 47.6916 18.2133 47.7139 18.2133 47.7139C18.2212 47.7305 18.2311 47.7542 18.2311 47.7542C18.2383 47.772 18.2471 47.7964 18.2471 47.7964C18.2501 47.8057 18.2534 47.8152 18.2561 47.8244C18.2727 47.8785 18.2706 47.8768 18.2746 47.8971C18.2805 47.9257 18.2816 47.9349 18.2838 47.9512C18.286 47.9667 18.2879 47.9871 18.2879 47.9871C18.2917 48.036 18.2917 48.0855 18.2872 48.1347C18.2804 48.2068 18.3121 48.2773 18.3706 48.3199C18.9583 48.7507 21.9245 50.9167 22.1565 51.0862C22.1651 51.0924 22.1768 51.0929 22.1857 51.0871C22.1861 51.0869 22.1864 51.0868 22.1869 51.0865C22.2043 51.0756 22.2223 51.0657 22.2404 51.0563C22.3086 51.021 22.3515 50.9505 22.3515 50.8735C22.352 49.8208 22.352 42.9844 22.352 42.2175C22.352 42.177 22.3263 42.1409 22.2881 42.1277C22.2881 42.1279 22.2881 42.1279 22.288 42.1279H22.288ZM12.3061 44.2125C12.2775 44.1899 12.2382 44.1861 12.2057 44.2029C12.2057 44.2029 12.1849 44.2138 12.1616 44.2241L12.1606 44.2245C12.135 44.2353 12.1181 44.2603 12.1177 44.2883C12.1115 44.8258 12.0542 49.7701 12.0431 50.7081C12.0422 50.7947 12.0953 50.8727 12.1762 50.9035C12.2051 50.9129 12.2328 50.9251 12.2599 50.9385C12.3252 50.9715 12.4031 50.9674 12.4645 50.9274C13.0801 50.528 16.2152 48.4864 16.6428 48.2079C16.6726 48.1887 16.6892 48.1549 16.6868 48.1196C16.6868 48.119 16.6854 48.0955 16.685 48.088C16.6849 48.0858 16.6848 48.0839 16.6848 48.082C16.6844 48.0607 16.6849 48.034 16.6852 48.0259C16.6852 48.0241 16.6853 48.0225 16.6853 48.0209C16.6864 48.0035 16.6879 47.9845 16.6883 47.9818C16.6898 47.9645 16.693 47.9414 16.6941 47.9345C16.6944 47.933 16.6945 47.9317 16.6948 47.93C16.697 47.9164 16.7003 47.8997 16.7013 47.8944C16.7016 47.8935 16.7017 47.8925 16.702 47.8914C16.7031 47.8863 16.7038 47.8826 16.7043 47.8804C16.7047 47.8784 16.7052 47.8768 16.7057 47.8748C16.7107 47.8549 16.7176 47.8295 16.7176 47.8295C16.7347 47.774 16.7292 47.7931 16.7365 47.7737C16.7375 47.7713 16.7461 47.7501 16.7487 47.7435C16.7493 47.7423 16.7498 47.7411 16.7504 47.7399C16.7508 47.7388 16.7505 47.7376 16.7497 47.7371C16.6632 47.6682 12.7891 44.5956 12.306 44.2125L12.3061 44.2125ZM17.7353 48.6692L17.7344 48.6696L17.7353 48.6692ZM17.7409 48.6669C17.7405 48.6672 17.7402 48.6673 17.7398 48.6673C17.7389 48.6678 17.7371 48.6685 17.7371 48.6685C17.7383 48.6681 17.7393 48.6677 17.7404 48.6673C17.7413 48.6666 17.7425 48.6662 17.7435 48.6658C17.7435 48.6658 17.7419 48.6665 17.7409 48.6669H17.7409ZM17.7459 48.6649L17.7448 48.6653L17.7459 48.6649ZM18.1399 48.1516L18.1398 48.1526L18.1399 48.1516ZM18.1408 48.1461C18.1407 48.1465 18.1407 48.1469 18.1407 48.1473C18.1406 48.1483 18.1402 48.15 18.1402 48.15C18.1404 48.149 18.1406 48.1477 18.1407 48.1466C18.1408 48.1456 18.1411 48.1442 18.1412 48.1431C18.1412 48.1431 18.141 48.145 18.1408 48.1461ZM16.8407 47.9347C16.8406 47.935 16.8406 47.9351 16.8406 47.9354C16.8404 47.9358 16.8404 47.9361 16.8404 47.9361L16.8407 47.9347V47.9347ZM16.8422 47.9264C16.8422 47.9276 16.8418 47.9288 16.8415 47.9299C16.8414 47.9312 16.8411 47.9324 16.841 47.9333C16.841 47.9333 16.8412 47.9317 16.8414 47.9308C16.8415 47.9304 16.8416 47.9299 16.8416 47.9295C16.8419 47.9283 16.8422 47.9264 16.8422 47.9264H16.8422ZM17.8808 35.7411C17.8293 35.6777 17.7451 35.6504 17.6662 35.672C17.5519 35.704 17.4308 35.7128 17.3119 35.6976C17.2332 35.6877 17.1559 35.7241 17.113 35.7909C16.5202 36.7168 12.638 42.7864 12.4497 43.0805C12.4457 43.0871 12.4459 43.0957 12.4507 43.1018C12.4507 43.102 12.4507 43.102 12.4507 43.102C12.4508 43.1021 12.4508 43.1024 12.4511 43.1025C12.4527 43.1047 12.4635 43.1191 12.4635 43.1191C12.4703 43.1287 12.4713 43.1302 12.4713 43.1302C12.4903 43.1578 12.4935 43.1637 12.5027 43.1792C12.513 43.197 12.5258 43.2223 12.5258 43.2223C12.5372 43.2459 12.5513 43.2795 12.5513 43.2795C12.5582 43.2974 12.5667 43.3221 12.5667 43.3221C12.5743 43.347 12.5815 43.3717 12.5866 43.3971C12.5869 43.3988 12.5873 43.4007 12.5877 43.4025C12.5889 43.4092 12.5945 43.4414 12.5945 43.4414C12.5983 43.467 12.6009 43.4928 12.6018 43.5186C12.6019 43.5196 12.6019 43.5204 12.6019 43.5213C12.6021 43.5245 12.6025 43.5496 12.6025 43.5496C12.6025 43.5504 12.6025 43.5512 12.6025 43.552C12.6017 43.6073 12.6003 43.6111 12.5977 43.6335C12.5965 43.6448 12.5943 43.6596 12.5936 43.6639C12.5935 43.665 12.5932 43.6661 12.593 43.6674C12.5909 43.6805 12.5876 43.6962 12.5869 43.7003C12.5869 43.7015 12.5865 43.7026 12.5862 43.7035C12.5788 43.739 12.5919 43.7755 12.6204 43.7979C13.085 44.1665 16.7363 47.0627 17.0776 47.3333C17.0928 47.3454 17.1136 47.3476 17.1308 47.3391C17.131 47.3391 17.131 47.3391 17.131 47.3391C17.2397 47.285 17.3609 47.2565 17.4826 47.2555C17.4826 47.2555 17.4826 47.2555 17.4827 47.2555C17.4877 47.2555 17.4877 47.2555 17.4927 47.2555C17.5321 47.2558 17.5714 47.2589 17.6102 47.2649C17.6856 47.2763 17.7611 47.2455 17.8063 47.1842C18.3416 46.4646 21.4012 42.3418 21.7756 41.8371C21.798 41.807 21.7986 41.7661 21.7768 41.7355C21.7764 41.735 21.7759 41.7343 21.7756 41.7336C21.6657 41.5661 21.6049 41.3667 21.608 41.1649C21.608 41.1603 21.6139 41.0302 21.638 40.9336C21.6485 40.892 21.6675 40.8371 21.6689 40.833C21.6773 40.8102 21.6887 40.7832 21.6893 40.782C21.7018 40.753 21.7156 40.7248 21.7307 40.6972C21.7709 40.6239 21.7625 40.5339 21.71 40.4691C21.1682 39.7993 18.4185 36.4051 17.8807 35.7411L17.8808 35.7411ZM11.4566 43.9765C11.4568 43.9767 11.4568 43.9767 11.4569 43.9768L11.4565 43.9765H11.4566ZM11.4508 43.9708C11.4515 43.9715 11.4522 43.9722 11.4529 43.9729C11.4538 43.9737 11.4545 43.9744 11.4552 43.9751C11.4552 43.9751 11.4541 43.9741 11.4534 43.9733C11.4531 43.9731 11.4527 43.9727 11.4524 43.9725C11.4519 43.9719 11.4508 43.9708 11.4508 43.9708ZM11.4495 43.9695L11.4499 43.97L11.4493 43.9693C11.4493 43.9693 11.4493 43.9695 11.4495 43.9695V43.9695ZM12.4511 43.6404L12.4509 43.6411L12.4511 43.6404ZM12.4519 43.6354C12.4518 43.6358 12.4518 43.6362 12.4517 43.6367C12.4517 43.6375 12.4513 43.639 12.4513 43.639C12.4515 43.638 12.4517 43.6371 12.4518 43.6361C12.4519 43.635 12.4521 43.6339 12.4522 43.6329C12.4522 43.6329 12.4519 43.6343 12.4519 43.6354ZM11.285 43.4381C11.285 43.4384 11.2848 43.4385 11.2848 43.4388C11.2848 43.4392 11.2848 43.4396 11.2848 43.4396L11.285 43.4381V43.4381ZM11.2865 43.4308C11.2862 43.432 11.286 43.4328 11.2858 43.4341C11.2855 43.435 11.2854 43.4361 11.2853 43.4371C11.2853 43.4371 11.2855 43.4356 11.2857 43.4347C11.2858 43.4343 11.2858 43.4339 11.2859 43.4334C11.2861 43.4324 11.2865 43.4308 11.2865 43.4308L11.2865 43.4308ZM12.3168 32.3374C12.3103 32.334 12.3023 32.3353 12.297 32.3406C12.2966 32.341 12.296 32.3414 12.2956 32.3418C12.2898 32.3475 12.2485 32.3866 12.2103 32.4127C12.2101 32.4128 12.2099 32.4129 12.2097 32.4131C12.2095 32.4131 12.1692 32.4401 12.1333 32.4576C12.1145 32.4669 12.1025 32.4861 12.1025 32.507C12.1036 33.0524 12.1181 39.7167 12.1228 41.9214C12.123 42.0128 12.1835 42.0934 12.2715 42.1191C12.3594 42.1446 12.4537 42.1092 12.5031 42.0322C13.591 40.331 16.6545 35.5415 16.7526 35.3882C16.7541 35.386 16.7539 35.383 16.7522 35.381C16.752 35.3806 16.7517 35.3803 16.7514 35.38C16.7428 35.3686 16.7382 35.3634 16.7243 35.3435C16.7243 35.3434 16.7243 35.3434 16.7242 35.3434C16.7242 35.3431 16.7097 35.3218 16.7095 35.3218C16.7095 35.3216 16.7095 35.3216 16.7095 35.3216C16.7059 35.3161 16.7052 35.3155 16.6958 35.2999C16.6957 35.2999 16.6957 35.2999 16.6957 35.2998C16.6957 35.2998 16.6811 35.2748 16.6765 35.2671C16.6754 35.2652 16.6745 35.2635 16.6734 35.2616C16.669 35.2536 16.6579 35.2328 16.6477 35.2108C16.6476 35.21 16.6471 35.2094 16.6468 35.2087C16.6467 35.2085 16.6365 35.185 16.6363 35.1849C16.6362 35.1846 16.6361 35.1844 16.6359 35.1841C16.6137 35.1319 16.6111 35.1175 16.6104 35.1152C16.6025 35.091 16.5998 35.0806 16.5996 35.0796C16.5951 35.0631 16.5932 35.0554 16.5928 35.0538C16.5928 35.0537 16.5928 35.0536 16.5928 35.0534C16.5857 35.0232 16.5846 35.0169 16.5846 35.0169C16.5833 35.0097 16.5828 35.0089 16.5801 34.9914C16.5801 34.9914 16.5744 34.9585 16.5717 34.9259C16.5717 34.9256 16.5701 34.9021 16.5694 34.8924C16.5694 34.8898 16.569 34.8869 16.569 34.8843C16.5686 34.8723 16.5685 34.859 16.5683 34.8527C16.5683 34.8505 16.5683 34.8481 16.5683 34.8458C16.5686 34.8279 16.5693 34.8102 16.5693 34.8102C16.5711 34.7691 16.579 34.7132 16.579 34.7129C16.5835 34.6853 16.5862 34.6732 16.5868 34.6709C16.5869 34.6708 16.5869 34.6705 16.5869 34.6705C16.5919 34.6485 16.5951 34.6361 16.5962 34.6317C16.5963 34.6307 16.5967 34.6297 16.597 34.6288C16.5982 34.6241 16.6035 34.6057 16.6049 34.6007C16.6051 34.5998 16.6054 34.5989 16.6057 34.5981V34.598C16.6062 34.5964 16.6054 34.5946 16.6039 34.5935C16.4855 34.5313 12.5545 32.4627 12.3169 32.3375L12.3168 32.3374ZM31.3597 41.7014L31.3589 41.7016L31.3597 41.7014ZM31.3647 41.6993C31.3643 41.6996 31.3639 41.6997 31.3634 41.6999C31.3626 41.7003 31.3613 41.7007 31.3613 41.7007C31.3622 41.7004 31.3631 41.7 31.3639 41.6996C31.3649 41.6993 31.366 41.6989 31.3668 41.6984C31.3668 41.6984 31.3653 41.6989 31.3647 41.6993H31.3647ZM30.7617 41.5844C30.7618 41.5846 30.7618 41.5846 30.7619 41.5847L30.7617 41.5844ZM30.7597 41.5827L30.7601 41.5831L30.7581 41.581C30.7581 41.581 30.7593 41.5821 30.7597 41.5826L30.7597 41.5827ZM30.7562 41.5791C30.7565 41.5794 30.7566 41.5795 30.7569 41.5798C30.7573 41.5802 30.7581 41.581 30.7581 41.581L30.7561 41.579C30.7561 41.579 30.7561 41.5791 30.7562 41.5791ZM30.7549 41.5778C30.755 41.5779 30.7551 41.578 30.7551 41.5782L30.7546 41.5776C30.7546 41.5776 30.7547 41.5776 30.7549 41.5778ZM21.8336 41.5431V41.5434V41.5431ZM27.611 37.2744C27.5632 37.2159 27.4868 37.1889 27.4128 37.2045C27.3289 37.2222 27.2414 37.2221 27.1572 37.2059C27.0915 37.1937 27.0239 37.2141 26.9758 37.2607C26.4984 37.7229 24.1208 40.0265 23.5797 40.5504C23.5184 40.6099 23.5 40.7013 23.5337 40.7799C23.5415 40.7973 23.5486 40.8151 23.5552 40.833C23.5739 40.8842 23.6227 40.9182 23.677 40.9182C24.4752 40.9182 30.0256 40.9182 30.466 40.9182C30.4826 40.9182 30.4977 40.908 30.5041 40.8925C30.5043 40.8918 30.5047 40.8912 30.505 40.8905C30.5053 40.8901 30.5054 40.8896 30.5055 40.8892C30.5171 40.8635 30.5133 40.8334 30.4953 40.8116C30.2157 40.4687 28.0723 37.84 27.611 37.2744ZM21.8499 40.7805C21.8499 40.7806 21.8499 40.7806 21.8499 40.7807V40.7805ZM21.8531 40.7745C21.8531 40.7745 21.8529 40.7746 21.8529 40.7748L21.8531 40.7745ZM31.2537 31.7732C31.2391 31.7714 31.2256 31.7798 31.2204 31.7934C31.094 32.1306 30.7686 32.3886 30.4019 32.4258C30.3325 32.4328 30.263 32.4322 30.1942 32.4243C30.1136 32.4148 30.0349 32.4537 29.9936 32.5236C29.6308 33.1327 28.0275 35.8362 27.8314 36.1666C27.8198 36.1861 27.82 36.2106 27.8318 36.2303C27.8326 36.2316 27.8335 36.233 27.8343 36.2345C27.839 36.243 27.8578 36.2767 27.8578 36.2767C27.8766 36.3146 27.8694 36.2999 27.8764 36.3172C27.8998 36.3726 27.9159 36.4311 27.9227 36.4911L27.9245 36.5073C27.9273 36.544 27.9286 36.5807 27.9257 36.6175C27.9253 36.6232 27.9246 36.6287 27.9238 36.6343C27.9218 36.6456 27.9178 36.6691 27.912 36.6966C27.8984 36.7581 27.9138 36.8224 27.9536 36.8713C28.3471 37.3543 30.4 39.8718 30.8388 40.4098C30.886 40.4675 30.9609 40.4955 31.0343 40.4826C31.0713 40.475 31.1089 40.4713 31.1468 40.4709C31.1537 40.4709 31.1537 40.4709 31.1605 40.4709C31.2871 40.4728 31.4136 40.5088 31.5215 40.5755L31.5217 40.5756L31.525 40.5775C31.5535 40.5954 31.5914 40.6245 31.5914 40.6245C31.6297 40.6559 31.6823 40.6629 31.7276 40.6432C32.5512 40.2836 39.6746 37.1746 39.8821 37.0841C39.8848 37.0827 39.8865 37.08 39.886 37.0769C39.8604 36.9006 39.9049 36.582 40.0414 36.3752C40.0713 36.33 40.1053 36.2871 40.1424 36.2474C40.2006 36.1854 40.2144 36.094 40.1773 36.0174C39.9413 35.5282 39.1338 33.8624 38.9034 33.387C38.8686 33.315 38.7952 33.2696 38.7152 33.2706C38.6006 33.2726 38.4851 33.2517 38.3778 33.2065C38.3319 33.1869 38.2879 33.1636 38.2464 33.1362C38.2448 33.1353 38.2432 33.1342 38.2418 33.1332C38.2334 33.1273 38.1982 33.1028 38.1785 33.0869C38.1783 33.0869 38.1782 33.0868 38.1782 33.0868C38.1498 33.064 38.1227 33.0393 38.0974 33.0128C38.0973 33.0125 38.0969 33.0123 38.0966 33.0119C38.0966 33.0119 38.0874 33.0019 38.0842 32.9984C38.083 32.9973 38.0821 32.9962 38.0811 32.9951C38.0469 32.9568 38.0154 32.9157 37.9886 32.8717C37.9874 32.8699 37.9864 32.8682 37.9852 32.8661C37.9817 32.8599 37.9691 32.8375 37.9636 32.8281C37.962 32.8253 37.9604 32.8223 37.9589 32.8193C37.9549 32.8114 37.9473 32.7964 37.945 32.7917C37.9369 32.7743 37.9279 32.7531 37.9264 32.7494C37.9097 32.7083 37.8961 32.6658 37.8861 32.6226C37.886 32.6221 37.8858 32.6217 37.8857 32.6211C37.8847 32.6166 37.8761 32.577 37.8718 32.5444L37.8717 32.5441C37.8717 32.544 37.8717 32.544 37.8717 32.544C37.8403 32.5402 31.6949 31.8246 31.2536 31.7732L31.2537 31.7732ZM22.1521 32.1599C22.1209 32.1397 22.0806 32.1395 22.0493 32.1595C21.5953 32.448 18.4021 34.4779 18.2514 34.5735C18.2483 34.5757 18.2469 34.5796 18.248 34.5833C18.2559 34.6076 18.2586 34.6179 18.2588 34.6188C18.2613 34.6278 18.264 34.6385 18.264 34.6385C18.2717 34.6692 18.2793 34.7128 18.2793 34.7128C18.2834 34.7419 18.2872 34.7804 18.2875 34.7827C18.2896 34.8102 18.2896 34.821 18.29 34.8373C18.29 34.8383 18.29 34.8394 18.29 34.8403C18.29 34.8452 18.29 34.8595 18.29 34.8596C18.2892 34.9053 18.2894 34.8841 18.2886 34.8986C18.2869 34.9301 18.2812 34.9716 18.2808 34.9746C18.2801 34.9795 18.2751 35.0118 18.2679 35.0435C18.2675 35.0454 18.2636 35.0609 18.2622 35.0666C18.2618 35.0681 18.2614 35.0696 18.261 35.0712C18.2582 35.0818 18.2545 35.0943 18.2534 35.0981C18.2531 35.099 18.2528 35.1001 18.2526 35.1012C18.2464 35.1205 18.2387 35.1425 18.2376 35.1451C18.2245 35.1816 18.216 35.199 18.2143 35.2027C18.2141 35.2029 18.2141 35.2032 18.214 35.2035C18.1958 35.2419 18.1912 35.2505 18.1809 35.2687C18.1809 35.2687 18.1809 35.2687 18.1809 35.2688C18.1775 35.2748 18.1781 35.2821 18.1825 35.2875C18.3534 35.4984 21.5326 39.4231 22.1182 40.1459C22.1706 40.2106 22.2566 40.2374 22.3363 40.2142C22.4213 40.1894 22.5097 40.1757 22.5985 40.1743C22.5988 40.1743 22.5991 40.1743 22.5992 40.1743C22.6056 40.1743 22.612 40.174 22.6186 40.1743C22.6186 40.1743 22.6189 40.1743 22.619 40.1743C22.741 40.1755 22.8623 40.1997 22.9758 40.2441C23.0509 40.2733 23.136 40.256 23.1939 40.2001C23.7159 39.6945 26.0908 37.3937 26.5887 36.9113C26.6402 36.8613 26.6622 36.788 26.6464 36.7178C26.6441 36.7096 26.6425 36.7016 26.6409 36.6932C26.6406 36.6913 26.6402 36.6894 26.6398 36.6874C26.6391 36.6829 26.6363 36.665 26.635 36.6565C26.6345 36.6535 26.6341 36.6503 26.6338 36.6473C26.6331 36.642 26.6326 36.6367 26.6322 36.6314C26.6296 36.6062 26.6296 36.5991 26.6292 36.5858C26.6288 36.5669 26.6297 36.5422 26.6302 36.5324C26.6303 36.5298 26.6304 36.5275 26.6306 36.5251C26.631 36.5192 26.6315 36.5133 26.6322 36.5073C26.6379 36.445 26.6373 36.4597 26.6447 36.427C26.6448 36.427 26.6592 36.3705 26.6699 36.3423C26.6946 36.2767 26.6804 36.2027 26.6331 36.151C26.1415 35.6132 23.6412 32.877 23.1131 32.299C23.0574 32.2382 22.9708 32.2163 22.8929 32.2435C22.6606 32.3248 22.3937 32.3064 22.1777 32.176C22.1691 32.1708 22.1604 32.1655 22.152 32.1599L22.1521 32.1599ZM27.2778 37.0741H27.275C27.275 37.0741 27.2776 37.0741 27.2778 37.0741ZM27.2712 37.074H27.2714H27.2712ZM41.7428 37.0421V37.0423V37.0421ZM40.118 36.5296C40.118 36.5298 40.1177 36.5298 40.1177 36.5298L40.118 36.5296ZM40.1211 36.5235C40.1211 36.5236 40.1211 36.5236 40.1209 36.5239L40.1211 36.5235ZM26.7838 36.4681C26.7838 36.4682 26.7838 36.4682 26.7838 36.4682C26.7838 36.4686 26.7831 36.4708 26.7831 36.4708L26.7838 36.4681ZM39.6721 24.2929C39.6042 24.2553 39.5207 24.2594 39.4565 24.3033C38.8151 24.742 35.6054 26.9422 35.1869 27.2289C35.161 27.2469 35.1481 27.2786 35.1542 27.3096C35.1544 27.3105 35.1546 27.3115 35.1548 27.3124C35.1558 27.319 35.1612 27.3488 35.1612 27.3488C35.1658 27.3795 35.1683 27.4105 35.1686 27.4417C35.1686 27.4435 35.1686 27.4451 35.1686 27.4469C35.1685 27.4527 35.1679 27.4804 35.1679 27.4806C35.167 27.5045 35.1648 27.5282 35.1611 27.5519C35.161 27.5535 35.1606 27.5551 35.1603 27.5567C35.1594 27.5626 35.1557 27.5821 35.1543 27.5897C35.1539 27.5923 35.1534 27.5951 35.153 27.5975C35.1455 27.6306 35.1359 27.6634 35.1238 27.6953C35.1218 27.701 35.1228 27.7075 35.1268 27.7121C35.2717 27.885 37.8338 30.9428 38.3347 31.5406C38.3837 31.599 38.4607 31.6256 38.5354 31.61C38.5889 31.5976 38.6436 31.5918 38.6986 31.591C38.6989 31.591 38.6993 31.591 38.6996 31.591C38.7031 31.591 38.7068 31.591 38.7104 31.591C38.7107 31.591 38.7108 31.591 38.7111 31.591C38.8525 31.5926 38.9926 31.629 39.1148 31.6977C39.122 31.7018 39.1292 31.706 39.1363 31.7102C39.1364 31.7102 39.1366 31.7104 39.1367 31.7105C39.1838 31.7386 39.2284 31.7715 39.2689 31.8084C39.2694 31.8088 39.2698 31.8091 39.2699 31.8095C39.2702 31.8095 39.2849 31.8232 39.2849 31.8232C39.2985 31.8365 39.3165 31.8551 39.3165 31.8551C39.3249 31.864 39.327 31.8664 39.327 31.8664C39.3624 31.9058 39.3949 31.9482 39.4224 31.9937C39.4228 31.9942 39.4233 31.9949 39.4235 31.9956C39.4237 31.9957 39.4364 32.0174 39.4364 32.0174C39.4598 32.0585 39.4521 32.0462 39.4557 32.0533C39.4651 32.0723 39.4772 32.0992 39.4772 32.0992C39.4923 32.1341 39.5049 32.1701 39.5152 32.2067C39.5159 32.2093 39.5266 32.2529 39.5274 32.2572C39.5429 32.3294 39.5398 32.3289 39.5413 32.3458L39.544 32.3769C39.5464 32.4149 39.5466 32.4532 39.5436 32.491L39.542 32.5123C39.5336 32.5878 39.5318 32.5851 39.5287 32.601C39.5187 32.6498 39.5156 32.6555 39.5109 32.6717C39.494 32.7285 39.4919 32.7286 39.4851 32.7453C39.4711 32.7797 39.4646 32.7931 39.4543 32.8132C39.454 32.8139 39.4534 32.8146 39.4532 32.8153C39.4514 32.8187 39.4448 32.8313 39.4426 32.8355C39.442 32.8365 39.4415 32.8374 39.4408 32.8385C39.4361 32.8472 39.4305 32.8568 39.4278 32.8612C39.427 32.8627 39.4262 32.8642 39.4252 32.8655C39.4104 32.8894 39.4071 32.8943 39.3991 32.906C39.3766 32.9391 39.3519 32.9704 39.3248 32.9996C39.3246 33 39.3243 33.0003 39.324 33.0005C39.3239 33.0007 39.314 33.0111 39.3111 33.0142C39.3106 33.0149 39.3099 33.0156 39.3092 33.0163C39.3092 33.0163 39.3092 33.0163 39.3091 33.0163C39.3062 33.0193 39.3056 33.0239 39.3073 33.0278C39.371 33.1591 40.3877 35.2566 40.6539 35.8051C40.6896 35.8788 40.7654 35.9244 40.8474 35.9213C40.8572 35.9208 40.867 35.9205 40.8769 35.9204C40.8774 35.9204 40.8785 35.9204 40.8792 35.9204C40.8833 35.9204 40.8872 35.9204 40.8913 35.9204C40.8918 35.9204 40.8924 35.9204 40.8931 35.9204C40.9215 35.9206 40.9492 35.9223 40.9774 35.9251C41.0601 35.933 41.1398 35.8899 41.1787 35.8162C41.6265 34.9702 44.0947 30.2984 44.238 30.0272C44.242 30.0197 44.2403 30.0109 44.2344 30.0051C44.2339 30.0044 44.2332 30.0038 44.2327 30.0033C44.2245 29.9947 44.2227 29.9928 44.2227 29.9928C44.2011 29.968 44.173 29.9329 44.1707 29.9295C44.1292 29.874 44.1157 29.8484 44.0975 29.8126C44.0947 29.8075 44.0782 29.7728 44.0724 29.7612C44.0713 29.7583 44.0701 29.7557 44.0689 29.753C44.0625 29.7379 44.0561 29.7202 44.0538 29.7153C44.0538 29.7142 44.0538 29.7131 44.0531 29.7121C44.042 29.6825 44.0326 29.6521 44.0252 29.6213C44.0252 29.6195 44.0245 29.6179 44.0239 29.6161C44.0227 29.6095 44.0175 29.5857 44.0158 29.5755C44.0151 29.5724 44.014 29.5691 44.014 29.5658C44.0093 29.5379 44.0052 29.5097 44.0041 29.4813C44.0041 29.4809 44.0041 29.4803 44.0041 29.4799C44.0034 29.4753 44.0016 29.4448 44.0016 29.4149C44.0016 29.4148 44.0023 29.3835 44.0034 29.371C44.0034 29.3678 44.0034 29.3645 44.0041 29.3614C44.0052 29.3341 44.0082 29.3067 44.0128 29.2797C44.0133 29.2777 44.0133 29.276 44.014 29.2739C44.0151 29.2674 44.0204 29.2435 44.0222 29.2333C44.0227 29.2297 44.024 29.2263 44.0245 29.223C44.0339 29.1884 44.0467 29.1463 44.0478 29.1428C44.0596 29.1085 44.0643 29.0985 44.0719 29.0807C44.0724 29.0797 44.0731 29.0785 44.0737 29.0774C44.079 29.0666 44.1023 29.0163 44.1221 28.9837C44.135 28.9624 44.1532 28.9362 44.1561 28.9323C44.1677 28.9146 44.1672 28.8908 44.1538 28.8739C43.8819 28.5247 41.2337 25.1303 40.6921 24.4369C40.6382 24.3679 40.5469 24.3403 40.4641 24.368C40.4277 24.3813 40.3902 24.3914 40.3522 24.3991C40.1228 24.4462 39.8788 24.4066 39.6722 24.2931L39.6721 24.2929ZM29.4006 31.835C29.3679 31.7595 29.2936 31.7108 29.2115 31.7108C28.3815 31.7106 24.2544 31.7106 23.5265 31.7106C23.464 31.7106 23.4071 31.7467 23.3805 31.8031V31.8034C23.3772 31.8104 23.3784 31.8184 23.3836 31.8242C23.5637 32.0213 26.5601 35.3003 27.0677 35.8556C27.1101 35.9019 27.1711 35.9265 27.2338 35.9223C27.2497 35.9208 27.2659 35.9202 27.2819 35.9202C27.282 35.9202 27.2823 35.9202 27.2823 35.9202C27.2824 35.9202 27.2826 35.9202 27.2827 35.9202C27.3382 35.9206 27.3899 35.8917 27.4181 35.8438C27.7071 35.3568 29.1825 32.8689 29.5353 32.274C29.578 32.2021 29.5731 32.1115 29.5228 32.0445C29.4734 31.9799 29.4324 31.9091 29.4006 31.835H29.4006ZM18.1384 34.9503L18.1382 34.9513L18.1384 34.9503ZM18.1392 34.9449L18.1387 34.9486L18.1389 34.9473C18.1389 34.9465 18.1392 34.9449 18.1392 34.9449ZM18.1397 34.9411L18.1392 34.9449L18.1397 34.9411ZM16.7255 34.7144C16.7255 34.7147 16.7252 34.7148 16.7252 34.7153C16.7252 34.7155 16.7251 34.716 16.7251 34.716L16.7255 34.7145V34.7144ZM16.7273 34.7053C16.727 34.7066 16.7268 34.708 16.7263 34.7093C16.7262 34.7105 16.7259 34.7117 16.7256 34.7129C16.7256 34.7129 16.7262 34.7109 16.7263 34.7099C16.7263 34.7095 16.7263 34.7091 16.7266 34.7086C16.7267 34.7076 16.7273 34.7053 16.7273 34.7053V34.7053ZM17.7233 34.1958C17.7237 34.1961 17.7241 34.1962 17.7245 34.1964C17.7254 34.1969 17.7273 34.1977 17.7273 34.1977C17.7262 34.1973 17.725 34.1966 17.7239 34.1961C17.7228 34.1956 17.7215 34.1951 17.7204 34.1946C17.7204 34.1946 17.7223 34.1954 17.7232 34.1958H17.7233ZM17.7169 34.193L17.7197 34.1942C17.7186 34.1938 17.7177 34.1934 17.7169 34.193ZM17.715 34.1923H17.7151C17.7151 34.1923 17.7151 34.1923 17.715 34.1923ZM17.8407 34.093C17.9064 34.1285 17.986 34.1256 18.0489 34.0854C18.4843 33.8092 20.1077 32.7774 21.0275 32.1928C21.1062 32.1427 21.1416 32.0461 21.1138 31.957C21.0858 31.868 21.0019 31.8086 20.9084 31.8124C19.2704 31.8773 15.4401 32.0293 13.7985 32.0943C13.7052 32.098 13.626 32.164 13.6056 32.2551C13.5849 32.3461 13.628 32.4397 13.7107 32.4832C14.7575 33.0342 16.665 34.038 16.8859 34.1543C16.8986 34.1611 16.9139 34.1598 16.9256 34.1511L16.9269 34.1502C16.9423 34.1393 17.0053 34.0963 17.0703 34.0665C17.1805 34.0161 17.3017 33.9896 17.423 33.9883C17.4231 33.9883 17.4234 33.9883 17.4235 33.9883C17.4291 33.9883 17.4291 33.9883 17.4347 33.9883C17.5759 33.9898 17.716 34.0252 17.8407 34.093V34.093ZM38.226 32.9368L38.2263 32.9372L38.2259 32.9368H38.226ZM38.2192 32.9303C38.22 32.9311 38.2207 32.9319 38.2215 32.9328C38.2226 32.9336 38.2234 32.9344 38.2242 32.9352C38.2242 32.9352 38.2229 32.9338 38.2222 32.9331C38.2219 32.9329 38.2215 32.9326 38.2211 32.9322C38.2204 32.9315 38.2192 32.9303 38.2192 32.9303L38.2192 32.9303ZM38.2174 32.9287L38.218 32.9292L38.2173 32.9285C38.2173 32.9285 38.2174 32.9285 38.2174 32.9287L38.2174 32.9287ZM39.3941 32.53L39.394 32.5309L39.3941 32.53ZM39.3951 32.5241C39.3951 32.5245 39.3951 32.525 39.3948 32.5254C39.3948 32.5263 39.3944 32.5284 39.3944 32.5284C39.3947 32.527 39.3948 32.5259 39.3951 32.5247C39.3952 32.5235 39.3952 32.5221 39.3955 32.521C39.3955 32.521 39.3952 32.5231 39.3951 32.5242L39.3951 32.5241ZM22.8756 32.1003L22.8745 32.1007L22.8756 32.1003ZM22.8814 32.098C22.8812 32.098 22.8808 32.0981 22.8804 32.0984C22.8794 32.0988 22.8775 32.0996 22.8775 32.0996C22.8786 32.0991 22.8798 32.0987 22.8809 32.0981C22.882 32.0976 22.8831 32.0972 22.8842 32.0968C22.8842 32.0968 22.8824 32.0976 22.8815 32.098H22.8814ZM22.8869 32.0957L22.8857 32.0961L22.8869 32.0957ZM34.2396 28.0987C34.213 28.0876 34.1824 28.0934 34.1616 28.1133C33.8672 28.3953 31.7603 30.4136 31.2671 30.886C31.209 30.9418 31.1898 31.027 31.2183 31.1023C31.2183 31.1023 31.2183 31.1023 31.2183 31.1025C31.2218 31.1114 31.2251 31.1205 31.2284 31.1298C31.2545 31.2042 31.3207 31.2571 31.3991 31.2664C32.3137 31.373 37.4951 31.9765 37.9359 32.0278C37.9537 32.0298 37.9708 32.0213 37.9799 32.0059L37.981 32.0046C37.981 32.0045 37.981 32.0043 37.981 32.0042C37.9972 31.9781 37.9949 31.9447 37.9752 31.9212C37.6658 31.5521 35.3356 28.7712 34.8469 28.188C34.7966 28.1279 34.7168 28.1014 34.6406 28.1198C34.5102 28.1521 34.371 28.147 34.2417 28.0995C34.2411 28.0993 34.2404 28.099 34.2396 28.0987H34.2396ZM11.4115 31.8176C11.4114 31.8184 11.4113 31.8194 11.4111 31.8202L11.4115 31.8176ZM29.5466 31.8089C29.5475 31.8101 29.548 31.8116 29.5486 31.8128C29.5492 31.8142 29.5499 31.8154 29.5506 31.8167C29.5506 31.8167 29.5494 31.8144 29.5488 31.8133C29.5487 31.8128 29.5486 31.8124 29.5484 31.8123C29.5479 31.8112 29.5466 31.8089 29.5466 31.8089V31.8089ZM29.5458 31.8071C29.546 31.8072 29.546 31.8074 29.5462 31.8075L29.545 31.8053C29.545 31.8053 29.5455 31.8066 29.5458 31.8071ZM38.9914 31.7971L38.9946 31.7985C38.9946 31.7985 38.9945 31.7985 38.9944 31.7984C38.9937 31.7981 38.9914 31.7971 38.9914 31.7971ZM38.988 31.7954L38.9914 31.7971C38.9914 31.7971 38.9902 31.7965 38.9895 31.7962C38.9893 31.7961 38.9891 31.796 38.9888 31.7958C38.9885 31.7958 38.988 31.7954 38.988 31.7954H38.988ZM38.9845 31.794L38.9873 31.7952C38.9863 31.7948 38.9854 31.7943 38.9845 31.794ZM38.9827 31.7933H38.9828C38.9827 31.7933 38.9827 31.7933 38.9827 31.7933ZM12.4485 21.9709C12.3908 21.9149 12.3043 21.9009 12.2318 21.9357C12.232 21.9365 12.232 21.9365 12.232 21.9365C12.1668 21.9683 12.1253 22.0346 12.1251 22.107C12.1217 23.1541 12.1048 30.3157 12.1027 31.2497C12.1026 31.3073 12.1326 31.3606 12.1818 31.3905C12.1833 31.3913 12.1849 31.3923 12.1864 31.3932C12.1878 31.394 12.189 31.395 12.1905 31.3958C12.2253 31.4181 12.258 31.4434 12.2877 31.4721C12.2881 31.4722 12.2883 31.4726 12.2887 31.4731C12.2922 31.4765 12.3125 31.4964 12.3302 31.5173C12.3329 31.5205 12.3354 31.5234 12.3377 31.5267C12.3456 31.5369 12.3687 31.5674 12.3687 31.5674C12.3798 31.5841 12.3942 31.608 12.3942 31.608C12.4011 31.6206 12.4019 31.6213 12.4045 31.6264C12.4057 31.6272 12.4069 31.6276 12.4082 31.6276C12.5718 31.6224 21.3966 31.2725 21.7765 31.2574C21.7836 31.257 21.7902 31.2518 21.7918 31.2446C21.8036 31.2008 21.7994 31.2164 21.8016 31.2093L21.8193 31.1567C21.8207 31.1525 21.8223 31.1482 21.8242 31.144C21.829 31.1317 21.8393 31.107 21.8412 31.1027C21.8476 31.0888 21.8445 31.0724 21.8334 31.0618C21.3951 30.6371 13.4501 22.9409 12.4485 21.9709L12.4485 21.9709ZM28.0231 19.887C28.0158 19.8724 28.0005 19.863 27.9841 19.863C27.6498 19.863 24.3236 19.863 23.5965 19.863C23.5171 19.863 23.4446 19.9088 23.4104 19.9805C23.3332 20.1449 23.2063 20.2818 23.0474 20.3723C23.0288 20.3827 23.0097 20.3925 22.9905 20.4016C22.9185 20.4357 22.8726 20.508 22.8726 20.5876C22.8722 21.7259 22.8722 29.382 22.8722 30.508C22.8722 30.5868 22.9168 30.6585 22.9875 30.6934C23.0513 30.725 23.1112 30.7646 23.1651 30.8111C23.176 30.8204 23.1767 30.8213 23.1805 30.8246C23.1991 30.8418 23.2239 30.8672 23.2239 30.8672C23.2356 30.8796 23.2511 30.897 23.2511 30.897C23.2623 30.9099 23.2766 30.928 23.2766 30.928C23.2846 30.9381 23.2861 30.9403 23.2861 30.9403C23.2952 30.9524 23.307 30.969 23.307 30.969C23.3208 30.9889 23.3314 31.0059 23.3326 31.008C23.3508 31.0378 23.3696 31.0746 23.3696 31.0746C23.3857 31.1083 23.3953 31.1302 23.4063 31.1601C23.413 31.1783 23.4304 31.1905 23.4499 31.1905C23.8808 31.1905 28.3459 31.1905 29.2119 31.1905C29.2946 31.1905 29.3691 31.1413 29.4016 31.0651C29.4192 31.0218 29.4407 30.98 29.4653 30.9398C29.466 30.9385 29.4666 30.9375 29.4672 30.9365C29.4717 30.9296 29.5003 30.8848 29.5272 30.8501C29.7078 30.617 29.996 30.4734 30.2948 30.4703C30.295 30.4703 30.2955 30.4703 30.2955 30.4703C30.3019 30.4703 30.3019 30.4703 30.3082 30.4703C30.4374 30.4715 30.5649 30.5002 30.6829 30.5514C30.7589 30.584 30.8471 30.5681 30.9067 30.5108C31.4314 30.0084 33.733 27.8037 33.8325 27.7083C33.8345 27.7065 33.8352 27.7034 33.834 27.701C33.8337 27.7 33.8333 27.699 33.833 27.6982C33.8222 27.6688 33.8201 27.6628 33.8158 27.6476L33.8119 27.6335C33.8115 27.6323 33.811 27.631 33.8108 27.6298C33.8095 27.6257 33.809 27.623 33.8083 27.6211C33.8079 27.6192 33.8075 27.6173 33.807 27.6154C33.7961 27.5681 33.7893 27.5206 33.7875 27.4725C33.7874 27.47 33.7873 27.4675 33.7873 27.4649C33.7873 27.4503 33.7878 27.398 33.7933 27.3578C33.7936 27.3549 33.798 27.3223 33.8061 27.289C33.8063 27.2881 33.8065 27.2873 33.8067 27.2866C33.8067 27.2865 33.8113 27.2691 33.8126 27.2638C33.8132 27.2615 33.8139 27.259 33.8146 27.2567C33.8163 27.2508 33.8167 27.2499 33.8167 27.2499C33.8215 27.2336 33.8292 27.2129 33.8322 27.2047C33.8329 27.2025 33.8337 27.2004 33.8348 27.1982C33.8447 27.1732 33.8557 27.1488 33.8685 27.125C33.8685 27.125 33.8686 27.1247 33.8687 27.1247C33.8687 27.1246 33.8758 27.1116 33.8763 27.1106C33.8773 27.1089 33.8782 27.1072 33.8792 27.1056C33.9013 27.0679 33.919 27.0444 33.9214 27.0412C33.9215 27.0408 33.9215 27.0408 33.9217 27.0407C33.9236 27.0381 33.9336 27.0251 33.9377 27.0199C33.9389 27.0183 33.9402 27.0168 33.9415 27.0152C33.9488 27.0062 33.9575 26.9962 33.9616 26.9916C33.9629 26.9898 33.9643 26.9883 33.9658 26.9868C33.9752 26.9768 33.9866 26.965 33.9907 26.9609C33.9922 26.9594 33.9935 26.9581 33.995 26.9565C34.0056 26.9464 34.0163 26.9366 34.0275 26.9269C34.0817 26.8801 34.1077 26.8082 34.0959 26.7375C33.9897 26.0929 33.4993 23.1285 33.3881 22.4568C33.3755 22.3799 33.3206 22.3169 33.2463 22.2936C33.1416 22.2613 33.0422 22.2079 32.9542 22.1337C32.9337 22.1166 32.9078 22.0913 32.901 22.0847C32.8998 22.0835 32.8987 22.0824 32.8976 22.0813C32.8774 22.0606 32.8581 22.039 32.8402 22.0165C32.8399 22.0161 32.8395 22.0156 32.8392 22.0152C32.8384 22.0143 32.8312 22.0051 32.8282 22.0012C32.8274 22.0001 32.8266 21.999 32.8258 21.9979C32.8215 21.9925 32.8173 21.9868 32.8158 21.9848C32.8153 21.9839 32.8149 21.9833 32.8143 21.9824C32.8044 21.9686 32.7928 21.9508 32.7886 21.9444C32.7877 21.9432 32.7869 21.9419 32.7861 21.9406C32.7777 21.9266 32.7413 21.8601 32.738 21.8533C32.703 21.7793 32.7087 21.7836 32.705 21.7735C32.6965 21.749 32.6955 21.7448 32.6923 21.7339C32.6871 21.717 32.6817 21.6946 32.6796 21.687C32.6791 21.6848 32.6787 21.6826 32.6783 21.6806C32.6692 21.6374 32.6666 21.6185 32.6666 21.6185C32.6597 21.5703 32.6644 21.6064 32.661 21.5714C32.661 21.5711 32.6591 21.5397 32.6583 21.5275C32.6582 21.524 32.6581 21.5206 32.6579 21.5171C32.6578 21.4988 32.6579 21.4775 32.6581 21.471C32.6581 21.4697 32.6581 21.4682 32.6582 21.4669C32.659 21.4494 32.6486 21.4333 32.6324 21.4266C32.3446 21.3095 29.8678 20.3027 29.402 20.1133C29.3581 20.0953 29.3077 20.1039 29.272 20.1351V20.1353C29.2718 20.1354 29.2716 20.1355 29.2713 20.1358C29.0341 20.3373 28.6745 20.3914 28.3859 20.2483C28.3365 20.2239 28.2898 20.1942 28.2466 20.1603C28.2466 20.1603 28.2466 20.1603 28.2465 20.1603C28.2458 20.1597 28.225 20.1434 28.205 20.1255C28.2035 20.124 28.2023 20.1228 28.2008 20.1216C28.1955 20.1166 28.1741 20.0961 28.1739 20.0959C28.1363 20.0579 28.1317 20.0511 28.1312 20.0499C28.1312 20.0499 28.1312 20.0499 28.1312 20.0497C28.1126 20.0274 28.1109 20.0253 28.1037 20.0159C28.0839 19.99 28.0656 19.9632 28.0493 19.9351C28.0482 19.9334 28.0296 19.899 28.025 19.8909C28.0243 19.8895 28.0236 19.8883 28.0231 19.8872V19.8871L28.0231 19.887ZM29.555 31.0754C29.5549 31.0754 29.5549 31.0757 29.5548 31.0758C29.5545 31.0764 29.5541 31.0775 29.5541 31.0775L29.555 31.0754V31.0754ZM29.5596 31.0663C29.5588 31.0678 29.5582 31.069 29.5575 31.0703C29.5569 31.0715 29.5562 31.0727 29.5557 31.0739C29.5557 31.0739 29.5568 31.0717 29.5572 31.0708C29.5574 31.0704 29.5576 31.07 29.5579 31.0697C29.5584 31.0686 29.5596 31.0663 29.5596 31.0663V31.0663ZM29.5611 31.0635C29.561 31.0638 29.5609 31.064 29.5607 31.0643C29.5607 31.0644 29.5606 31.0645 29.5606 31.0645L29.5611 31.0635ZM22.8999 30.8112C22.9003 30.8113 22.9007 30.8114 22.9011 30.8117C22.9019 30.8121 22.9038 30.8129 22.9038 30.8129C22.9027 30.8125 22.9015 30.812 22.9004 30.8114C22.8993 30.8109 22.8982 30.8104 22.8969 30.81C22.8969 30.81 22.8988 30.8108 22.8999 30.8112ZM22.8935 30.8085L22.8962 30.8097C22.8954 30.8093 22.8944 30.8087 22.8935 30.8085ZM18.5028 17.2574C18.4375 17.2141 18.3519 17.2164 18.2888 17.263C18.0609 17.4315 17.7564 17.4887 17.4809 17.4121C17.41 17.3925 17.3422 17.364 17.2786 17.3279C17.2058 17.2865 17.1152 17.2931 17.0493 17.3446C16.3372 17.9008 12.6137 20.8105 12.6042 20.8178L12.6043 20.8179C12.6044 20.8185 12.6092 20.8274 12.6153 20.8402V20.8403C12.6198 20.8501 12.6213 20.8531 12.6213 20.8531C12.6365 20.8869 12.6529 20.934 12.6546 20.9388C12.6626 20.9636 12.6714 20.9985 12.6714 20.9985C12.6748 21.0128 12.679 21.0325 12.679 21.0325C12.6824 21.0496 12.6861 21.0732 12.6861 21.0732C12.6904 21.1021 12.6933 21.1313 12.6942 21.1604C12.6942 21.1615 12.6944 21.1626 12.6944 21.1634C12.6945 21.1667 12.6949 21.1862 12.6949 21.1929C12.695 21.196 12.695 21.1991 12.6949 21.2024C12.6942 21.2453 12.6931 21.2551 12.6914 21.2714C12.6912 21.2734 12.691 21.2752 12.6908 21.2769C12.6898 21.2856 12.6865 21.3118 12.6853 21.3216C12.685 21.3245 12.6846 21.3272 12.684 21.33C12.6816 21.3443 12.6785 21.3606 12.6775 21.3651C12.6774 21.3659 12.6771 21.3667 12.6768 21.3675C12.666 21.4194 12.6823 21.4732 12.7204 21.5101C13.5168 22.2816 21.4179 29.9353 22.1582 30.6524C22.1907 30.6838 22.2388 30.6929 22.2805 30.6755C22.2805 30.6752 22.2805 30.6752 22.2805 30.6752C22.3238 30.6572 22.3519 30.6149 22.3519 30.5681C22.352 29.6797 22.352 21.7437 22.352 20.5837C22.352 20.5037 22.3057 20.4308 22.2333 20.3968C22.1049 20.3376 21.9894 20.2474 21.9009 20.1275C21.7746 19.9568 21.7178 19.7353 21.7337 19.5255C21.7396 19.4511 21.7044 19.3795 21.6423 19.3384C21.14 19.0043 19.0251 17.6034 18.5028 17.2574V17.2574ZM45.1178 30.075L45.1166 30.0754L45.1178 30.075ZM45.1236 30.0727C45.1236 30.0728 45.1231 30.073 45.1225 30.0731C45.1218 30.0735 45.1195 30.0743 45.1195 30.0743C45.1208 30.0738 45.1218 30.0734 45.1231 30.073C45.1241 30.0724 45.1254 30.072 45.1266 30.0715C45.1266 30.0715 45.1248 30.0723 45.1236 30.0727H45.1236ZM45.1295 30.0703L45.1284 30.0708L45.1295 30.0703ZM45.5517 29.52V29.5211V29.52ZM45.5522 29.514C45.5522 29.5144 45.5522 29.5149 45.5522 29.5154C45.5522 29.5163 45.5517 29.5184 45.5517 29.5184C45.5517 29.5172 45.5522 29.5158 45.5522 29.5147C45.5522 29.5135 45.5529 29.5123 45.5529 29.5109C45.5529 29.5109 45.5522 29.5131 45.5522 29.5141V29.514ZM44.1582 29.2874C44.1582 29.2876 44.1582 29.2879 44.1577 29.2882C44.1577 29.2885 44.1577 29.2889 44.1577 29.2889L44.1582 29.2874V29.2874ZM44.16 29.2785C44.1594 29.2798 44.1594 29.281 44.1589 29.2823C44.1589 29.2836 44.1589 29.2848 44.1582 29.286C44.1582 29.286 44.1589 29.2841 44.1589 29.283C44.1589 29.2826 44.1589 29.2822 44.1594 29.2818C44.1594 29.2807 44.1599 29.2785 44.1599 29.2785L44.16 29.2785ZM45.1424 28.7765L45.1459 28.778V28.7778C45.1447 28.7776 45.1424 28.7765 45.1424 28.7765ZM45.1388 28.7749L45.1424 28.7765C45.1424 28.7765 45.1411 28.776 45.1411 28.7755C45.1411 28.7755 45.1406 28.7754 45.1406 28.7753C45.1394 28.7751 45.1388 28.7749 45.1388 28.7749ZM45.1353 28.7733L45.1383 28.7745C45.1376 28.7741 45.1371 28.7737 45.1353 28.7733ZM43.918 21.1882C43.8478 21.1481 43.7606 21.1527 43.6946 21.2002C43.2478 21.524 41.6468 22.6838 41.2001 23.0072C41.1338 23.0551 41.1026 23.1377 41.1194 23.2175C41.1592 23.3998 41.1472 23.5933 41.083 23.7691C41.072 23.7993 41.0594 23.829 41.0455 23.8579C41.0114 23.9286 41.0205 24.0122 41.0685 24.074C41.4831 24.605 43.3168 26.9548 44.1407 28.0112C44.1962 28.0824 44.2915 28.1093 44.3757 28.0776C44.4599 28.0461 44.5142 27.9634 44.5096 27.8733C44.4242 26.2727 44.2096 22.2353 44.1664 21.4258C44.1622 21.345 44.1108 21.2741 44.0359 21.2445C43.9956 21.2287 43.9558 21.2099 43.9179 21.1881L43.918 21.1882ZM35.0155 27.3529C35.0155 27.3533 35.0156 27.354 35.0156 27.3544C35.0159 27.3552 35.016 27.3566 35.016 27.3566C35.0159 27.3556 35.0157 27.3547 35.0156 27.3537C35.0153 27.3527 35.0152 27.3517 35.0151 27.3506C35.0151 27.3506 35.0153 27.3521 35.0155 27.3529ZM33.9412 27.3473C33.9412 27.3477 33.9412 27.3479 33.9412 27.3482C33.941 27.3484 33.941 27.3489 33.941 27.3489L33.9412 27.3474V27.3473ZM33.9425 27.3407C33.9422 27.3416 33.9421 27.3426 33.942 27.3435C33.9417 27.3445 33.9416 27.3454 33.9415 27.3464C33.9415 27.3464 33.9417 27.345 33.9417 27.3442C33.9418 27.3438 33.942 27.3434 33.9421 27.343C33.9422 27.3421 33.9425 27.3407 33.9425 27.3407V27.3407ZM34.2614 21.8788C34.248 21.8749 34.2338 21.8809 34.2274 21.8931C34.2182 21.9096 34.2232 21.9011 34.2144 21.9159L34.1823 21.9668C34.1501 22.0123 34.1603 21.9974 34.1559 22.0034C34.1559 22.0034 34.1559 22.0034 34.1557 22.0034C34.1294 22.0373 34.1385 22.0252 34.1337 22.0308C34.1337 22.0308 34.1253 22.0406 34.1222 22.0445C34.1211 22.0456 34.12 22.0468 34.119 22.048C34.104 22.0647 34.0839 22.0852 34.0782 22.0911C34.0768 22.0924 34.0752 22.0939 34.0738 22.0954C34.067 22.102 34.0654 22.1034 34.0654 22.1034C34.0546 22.1135 34.0398 22.1267 34.0396 22.1268C34.0395 22.1268 34.0394 22.1268 34.0392 22.1271C34.0009 22.1605 33.9763 22.1765 33.9762 22.1765C33.9762 22.1766 33.9762 22.1766 33.9762 22.1766C33.9391 22.2023 33.9477 22.1971 33.9131 22.2174C33.8924 22.2293 33.8814 22.2527 33.8854 22.2759C33.9519 22.6788 34.5003 25.9938 34.6105 26.6605C34.6219 26.7278 34.6673 26.784 34.7307 26.809C34.731 26.8082 34.731 26.8082 34.731 26.8082C34.7903 26.8312 34.857 26.8234 34.9096 26.7876C35.4701 26.4043 38.4554 24.3578 39.1143 23.9064C39.1863 23.8569 39.2196 23.767 39.1967 23.6824C39.1822 23.6323 39.1724 23.5807 39.1674 23.5285C39.1671 23.5257 39.1669 23.5231 39.1666 23.5203C39.1656 23.5019 39.1606 23.4115 39.1652 23.3524C39.1654 23.35 39.1639 23.3476 39.1616 23.347C39.0099 23.3015 34.6188 21.986 34.2614 21.8788H34.2614ZM40.9921 23.5331V23.5334V23.5331ZM39.9526 14.4293C39.8704 14.3965 39.7769 14.4211 39.7204 14.4889C38.9778 15.3734 34.4666 20.7502 34.2167 21.0482C34.2102 21.0558 34.2094 21.0666 34.2144 21.0752C34.2144 21.0753 34.2144 21.0753 34.2144 21.0753C34.2144 21.0754 34.2145 21.0756 34.2145 21.0757C34.2156 21.0777 34.2242 21.0927 34.2242 21.0927C34.2303 21.1038 34.2315 21.1061 34.2315 21.1061C34.232 21.1072 34.2385 21.1199 34.2451 21.1333C34.2508 21.145 34.2532 21.1506 34.254 21.1522C34.2745 21.1979 34.2823 21.2232 34.2823 21.2232C34.2941 21.2589 34.2987 21.2764 34.2987 21.2764C34.3116 21.3241 34.3481 21.3618 34.3956 21.376C34.972 21.5488 38.4869 22.6018 39.2123 22.8193C39.288 22.8419 39.3701 22.8194 39.4235 22.7611C39.6045 22.5644 39.8666 22.443 40.1392 22.4385C40.1394 22.4385 40.1397 22.4385 40.14 22.4385C40.1464 22.4385 40.1528 22.4385 40.1592 22.4385C40.1594 22.4385 40.1597 22.4385 40.1601 22.4385C40.3417 22.4405 40.5207 22.4943 40.6745 22.5888C40.745 22.6323 40.8352 22.6289 40.9027 22.58C41.4171 22.2079 43.425 20.7535 43.5145 20.6889C43.5156 20.6877 43.5161 20.6853 43.5156 20.6832C43.5121 20.6716 43.5115 20.6675 43.5115 20.6675C43.511 20.666 43.5011 20.6291 43.5011 20.6289V20.6288C43.4864 20.5678 43.4864 20.5595 43.4864 20.5583V20.5582C43.4829 20.5339 43.48 20.5096 43.4775 20.4851C43.4717 20.4103 43.4747 20.4262 43.4752 20.4049C43.4758 20.3575 43.4758 20.3795 43.4765 20.3643C43.4765 20.3641 43.4788 20.3374 43.4793 20.3273C43.48 20.3252 43.48 20.3228 43.48 20.3205C43.4828 20.2954 43.4846 20.2855 43.4881 20.2628C43.4881 20.2624 43.4945 20.2302 43.4945 20.2291C43.4981 20.2145 43.4968 20.219 43.4986 20.213L43.5045 20.1895C43.5045 20.1879 43.5051 20.1864 43.5057 20.1849C43.5075 20.1791 43.5121 20.1625 43.5127 20.1569C43.5133 20.1553 43.5145 20.1537 43.5145 20.1518C43.5232 20.1237 43.5326 20.1002 43.5331 20.0971C43.5379 20.0859 43.5396 20.0819 43.5396 20.0819C43.5402 20.0805 43.5496 20.0582 43.5536 20.0497C43.5542 20.0472 43.5554 20.0447 43.5566 20.0421C43.5735 20.0055 43.5782 19.997 43.5881 19.9797C43.5886 19.9788 43.5893 19.9777 43.5899 19.9767C43.594 19.9699 43.6104 19.9416 43.6104 19.9414C43.6115 19.9409 43.6115 19.9403 43.6122 19.9398C43.6297 19.9107 43.632 19.9086 43.6378 19.9003L43.6501 19.8838L43.6513 19.8821C43.6835 19.839 43.6863 19.7806 43.6584 19.7343C43.2929 19.1291 40.96 15.2661 40.5434 14.5761C40.5068 14.5158 40.4396 14.482 40.3697 14.4889C40.2286 14.5018 40.0846 14.4808 39.9526 14.4293L39.9526 14.4293ZM33.0177 21.9968L33.018 21.9971L33.0176 21.9967C33.0176 21.9967 33.0176 21.9968 33.0177 21.9968ZM33.0108 21.9903C33.0116 21.9911 33.0124 21.9919 33.0134 21.9926C33.0142 21.9934 33.015 21.9942 33.0159 21.9951C33.0159 21.9951 33.0146 21.9938 33.0138 21.9931C33.0135 21.9929 33.0131 21.9926 33.0128 21.9922C33.0121 21.9915 33.0108 21.9903 33.0108 21.9903L33.0108 21.9903ZM33.0092 21.9887L33.0097 21.9891L33.009 21.9884L33.0091 21.9887L33.0092 21.9887ZM12.1291 21.827C12.1288 21.8272 12.1283 21.8274 12.1281 21.8275C12.127 21.8279 12.1254 21.8286 12.1254 21.8286C12.1264 21.8282 12.1275 21.8276 12.1286 21.8272C12.1296 21.8268 12.1307 21.8263 12.1319 21.8257C12.1319 21.8257 12.1301 21.8266 12.1292 21.827H12.1291ZM12.1343 21.8248L12.1332 21.8253L12.1343 21.8248ZM11.3953 21.6915L11.3957 21.6919L11.3953 21.6915ZM11.3886 21.6852C11.3896 21.6858 11.3902 21.6866 11.3911 21.6875C11.3919 21.6884 11.3928 21.6889 11.3936 21.6898C11.3936 21.6898 11.3923 21.6885 11.3916 21.688C11.3912 21.6876 11.3909 21.6873 11.3906 21.687C11.3899 21.6863 11.3886 21.6851 11.3886 21.6851L11.3886 21.6852ZM11.387 21.6834L11.3874 21.6841L11.3867 21.6834H11.387H11.387ZM12.5437 21.2916L12.5436 21.2925L12.5437 21.2916ZM12.5446 21.2857C12.5444 21.2861 12.5444 21.2866 12.5444 21.2871C12.5442 21.2881 12.544 21.2898 12.544 21.2898C12.5442 21.2887 12.5443 21.2876 12.5444 21.2864C12.5446 21.2851 12.5448 21.2838 12.5448 21.2827C12.5448 21.2827 12.5447 21.2847 12.5446 21.2857ZM11.194 21.0662C11.1939 21.0664 11.1939 21.0667 11.1938 21.067C11.1938 21.0673 11.1936 21.0677 11.1936 21.0677L11.194 21.0662V21.0662ZM11.1956 21.0576C11.1954 21.0588 11.1951 21.0602 11.1948 21.0613C11.1946 21.0625 11.1944 21.0637 11.1941 21.0648C11.1941 21.0648 11.1945 21.0629 11.1947 21.062C11.1948 21.0616 11.1949 21.0612 11.1949 21.0608C11.1952 21.0597 11.1956 21.0576 11.1956 21.0576H11.1956ZM31.1183 15.5762C31.0826 15.5746 31.0494 15.5935 31.0336 15.6259C30.8399 16.0125 29.6776 18.3365 29.406 18.8795C29.373 18.9454 29.3776 19.0237 29.4182 19.0853C29.4436 19.1221 29.4651 19.161 29.4826 19.2015C29.4829 19.2018 29.483 19.2022 29.4831 19.2025C29.4831 19.2026 29.4925 19.2247 29.4925 19.2247C29.5087 19.2647 29.5129 19.2813 29.5129 19.2813C29.5209 19.3071 29.53 19.3437 29.53 19.3437C29.5335 19.3604 29.538 19.3832 29.538 19.3832C29.5425 19.4101 29.5466 19.4457 29.547 19.4485C29.5507 19.4879 29.5501 19.4925 29.5504 19.5051C29.5509 19.5315 29.5494 19.5672 29.5492 19.5754C29.549 19.5767 29.549 19.5777 29.5489 19.5787C29.5475 19.5977 29.5584 19.6154 29.5759 19.6226C29.8677 19.7413 32.2298 20.7016 32.7532 20.9143C32.8121 20.9382 32.8794 20.9259 32.9258 20.8827C32.9269 20.8818 32.9277 20.8809 32.929 20.88C32.9344 20.8751 32.955 20.8573 32.9601 20.8527C32.9609 20.852 32.9617 20.8513 32.9626 20.8507C32.991 20.8272 33.0019 20.7885 32.9896 20.7537C32.7995 20.211 31.3822 16.1652 31.1961 15.6339C31.1845 15.6004 31.1536 15.5774 31.1185 15.5755C31.1185 15.5762 31.1185 15.5762 31.1183 15.5762L31.1183 15.5762ZM32.114 10.6302C32.0385 10.5993 31.9521 10.6163 31.8936 10.673C31.8087 10.7554 31.7082 10.8227 31.5989 10.8678C31.5223 10.8993 31.4722 10.9748 31.4722 11.0578C31.4718 11.6712 31.4718 13.9842 31.4718 14.2563C31.4718 14.2725 31.4802 14.2872 31.4938 14.2954C31.4939 14.2954 31.4939 14.2954 31.4939 14.2954C31.4957 14.2959 31.4973 14.2977 31.499 14.2977C31.5094 14.3047 31.5493 14.3311 31.5493 14.3311C31.576 14.3498 31.6017 14.3709 31.6253 14.393C31.6255 14.393 31.6255 14.393 31.6257 14.3937C31.6276 14.3953 31.6566 14.4235 31.6786 14.4498C31.6787 14.4498 31.6788 14.4503 31.679 14.4503L31.6893 14.4632C31.7008 14.4784 31.6936 14.4668 31.7163 14.4995C31.7163 14.4995 31.7319 14.5223 31.7451 14.5444C31.7451 14.5444 31.7452 14.5444 31.7452 14.5451L31.7532 14.5591C31.7668 14.5842 31.7748 14.6 31.7845 14.6235C31.7853 14.6252 31.786 14.627 31.7866 14.6286C31.7896 14.6362 31.8006 14.6656 31.8006 14.6656C31.8073 14.6842 31.8146 14.7105 31.8146 14.7105C31.8465 14.8299 31.8465 14.959 31.8139 15.0742C31.8139 15.0749 31.8137 15.0749 31.8135 15.0749C31.8135 15.0754 31.7993 15.1239 31.7864 15.1537C31.7862 15.1543 31.7861 15.1543 31.7861 15.155C31.786 15.155 31.7672 15.1981 31.7517 15.2257C31.7516 15.2257 31.7515 15.2262 31.7515 15.2262C31.7494 15.2292 31.7286 15.2654 31.7075 15.2947C31.7064 15.2958 31.7053 15.2975 31.7041 15.2993C31.7012 15.3028 31.6894 15.318 31.6859 15.3226C31.6852 15.3239 31.6842 15.3251 31.6834 15.3256C31.6643 15.3491 31.6586 15.3808 31.6686 15.4097C31.8365 15.889 33.2033 19.7911 33.4649 20.5376C33.49 20.6092 33.5523 20.6612 33.6273 20.6733C33.6487 20.6754 33.6698 20.6797 33.6907 20.6846C33.7666 20.7036 33.8467 20.6775 33.8971 20.6175C34.5612 19.8283 38.7601 14.8234 39.3903 14.072C39.4362 14.0171 39.4506 13.9428 39.4282 13.8749C39.422 13.8568 39.4164 13.8393 39.4117 13.8206C39.411 13.8176 39.4102 13.8148 39.4095 13.8118C39.4049 13.7907 39.3855 13.6966 39.3829 13.6264C39.3829 13.6259 39.3829 13.6259 39.3829 13.6259C39.3813 13.585 39.3557 13.5493 39.3175 13.5335C38.6496 13.2645 33.0518 11.0081 32.1139 10.6302H32.114ZM45.1207 20.5156C45.1207 20.516 45.1207 20.5166 45.1207 20.517C45.1207 20.5182 45.12 20.5204 45.12 20.5204C45.12 20.519 45.1207 20.5177 45.1207 20.5163C45.1207 20.5151 45.1213 20.5137 45.1213 20.5124C45.1213 20.5124 45.1207 20.5146 45.1207 20.5156ZM45.1218 20.5087L45.1213 20.511L45.1218 20.5087ZM12.1333 10.6292C12.1325 10.6297 12.1321 10.6302 12.1321 10.6315C12.1321 10.7549 12.1271 19.5178 12.1267 20.3456C12.1267 20.382 12.1485 20.4149 12.1822 20.4287L12.1841 20.4296C12.1841 20.4296 12.1844 20.4296 12.1845 20.4297C12.2129 20.4421 12.2459 20.438 12.2703 20.4187C12.6821 20.097 16.0832 17.4392 16.7436 16.9232C16.8067 16.8738 16.8355 16.7924 16.8176 16.7144C16.8089 16.6801 16.8029 16.6451 16.7991 16.6095C16.7874 16.5006 16.7949 16.3895 16.8209 16.2836C16.8214 16.2811 16.8219 16.279 16.8228 16.2767C16.8266 16.2624 16.8453 16.1964 16.8655 16.1479C16.8684 16.1408 16.892 16.0872 16.9154 16.0461C16.9213 16.0351 16.92 16.0218 16.9117 16.0118C16.6273 15.6917 12.1443 10.6421 12.1335 10.6291H12.1333V10.6292ZM22.8997 20.2841L22.9031 20.2828L22.8997 20.2841ZM22.9059 20.2814L22.9046 20.2821L22.9059 20.2814ZM28.993 20.1394L28.9919 20.1398L28.993 20.1394ZM28.9986 20.1369C28.9982 20.137 28.9977 20.1373 28.9973 20.1374C28.9964 20.1378 28.9946 20.1385 28.9946 20.1385C28.9957 20.1381 28.9968 20.1377 28.9979 20.1373C28.999 20.1368 29.0001 20.1364 29.001 20.1358C29.001 20.1358 28.9994 20.1365 28.9986 20.1369H28.9986ZM29.0034 20.1349L29.0024 20.1353L29.0034 20.1349ZM43.7039 20.0691C43.7039 20.0693 43.7039 20.0695 43.7039 20.0697C43.7039 20.0701 43.7032 20.0709 43.7032 20.0709L43.7039 20.0691V20.0691ZM43.7085 20.0613C43.7073 20.0624 43.7067 20.0634 43.7067 20.0645C43.7062 20.0656 43.7056 20.067 43.705 20.0679C43.705 20.0679 43.7056 20.0661 43.7062 20.0651C43.7067 20.0648 43.7067 20.0644 43.7067 20.064C43.7067 20.063 43.7085 20.0613 43.7085 20.0613L43.7085 20.0613ZM43.7097 20.0586C43.7097 20.0588 43.7097 20.0591 43.7097 20.0594V20.0584C43.7097 20.0584 43.7097 20.0584 43.7097 20.0586ZM28.2887 20.006L28.289 20.0063L28.2886 20.0059C28.2886 20.0059 28.2886 20.006 28.2887 20.006ZM28.2822 19.9998C28.2829 20.0006 28.2837 20.0012 28.2845 20.0021C28.2853 20.0029 28.286 20.0037 28.2868 20.0044C28.2868 20.0044 28.2856 20.0031 28.2849 20.0025C28.2845 20.0021 28.2842 20.0021 28.2839 20.0016C28.2833 20.0009 28.2822 19.9997 28.2822 19.9997L28.2822 19.9998ZM28.2804 19.9981L28.281 19.9987L28.2803 19.998C28.2803 19.998 28.2803 19.9981 28.2804 19.9981L28.2804 19.9981ZM21.9442 19.9206C21.9443 19.9209 21.9444 19.9211 21.9446 19.9213C21.9448 19.922 21.9455 19.9233 21.9455 19.9233L21.9439 19.9199C21.9439 19.9199 21.944 19.9203 21.9442 19.9206V19.9206ZM21.9431 19.9184C21.9432 19.9184 21.9433 19.9187 21.9433 19.9188L21.9424 19.9166C21.9424 19.9166 21.9429 19.9179 21.9431 19.9184ZM44.8908 19.8676L44.892 19.8685C44.892 19.8685 44.8915 19.8683 44.8915 19.8681L44.8908 19.8677V19.8676ZM44.8897 19.8665C44.889 19.8657 44.8879 19.8648 44.8874 19.864L44.8897 19.8665ZM28.7704 18.7196C28.8508 18.722 28.9252 18.6776 28.9612 18.6056C29.1706 18.1872 29.8422 16.8443 30.2378 16.0534C30.2783 15.9726 30.2613 15.8743 30.1959 15.812C30.1305 15.7495 30.032 15.7369 29.9529 15.7807C28.6726 16.4932 25.6227 18.1904 24.2465 18.9562C24.1643 19.0018 24.1233 19.0974 24.1471 19.1884C24.1707 19.2795 24.2528 19.343 24.3468 19.343C25.5851 19.343 27.8442 19.343 27.9541 19.343C27.9567 19.343 27.9587 19.3411 27.9592 19.3388L27.9594 19.338C27.9663 19.3102 27.9681 19.3047 27.9681 19.3047C27.9732 19.2876 27.9807 19.2651 27.9812 19.2626C27.9826 19.2591 27.9838 19.2554 27.9852 19.2518C27.9909 19.2366 27.9918 19.2341 27.9943 19.2278C27.9947 19.2268 27.9954 19.2255 27.9958 19.2245C27.9985 19.2184 28.0091 19.1939 28.0131 19.1843C28.0148 19.1809 28.0164 19.1775 28.018 19.1741C28.0547 19.1005 28.0801 19.0645 28.1144 19.0217C28.115 19.0212 28.1154 19.0205 28.1159 19.0198C28.118 19.0173 28.1252 19.0085 28.1288 19.0042C28.1303 19.0024 28.1318 19.0006 28.1334 18.9989C28.1442 18.9865 28.1579 18.972 28.162 18.9674C28.1635 18.9659 28.165 18.9644 28.1665 18.9627C28.1936 18.9353 28.2286 18.9056 28.2391 18.8967C28.2413 18.895 28.2436 18.8932 28.2458 18.8914C28.3892 18.7815 28.5667 18.7184 28.7489 18.7191H28.749C28.7561 18.7191 28.7633 18.7194 28.7703 18.7195L28.7704 18.7196ZM30.628 10.6771C30.5655 10.6186 30.4733 10.6046 30.3963 10.6421C29.1533 11.2495 19.9539 15.749 18.7837 16.3209C18.7128 16.3556 18.6679 16.4277 18.6681 16.5066C18.6693 16.539 18.6673 16.5715 18.6638 16.6038C18.6547 16.6805 18.6897 16.7559 18.7542 16.7985C19.2611 17.136 21.3546 18.5229 21.8875 18.876C21.9572 18.9222 22.0479 18.9218 22.1171 18.875C22.2585 18.7781 22.4283 18.7209 22.6061 18.7191C22.6119 18.7191 22.6119 18.7191 22.6177 18.7191C22.7885 18.7208 22.957 18.7766 23.0995 18.8712C23.1636 18.9139 23.246 18.917 23.3133 18.8795C24.2117 18.3803 29.9816 15.1695 30.4359 14.9169C30.4533 14.907 30.4642 14.8882 30.4643 14.8689C30.4643 14.8679 30.4646 14.8672 30.4646 14.8661C30.4673 14.8088 30.4693 14.803 30.4721 14.7871V14.7865C30.4721 14.7865 30.4765 14.7614 30.4782 14.7526C30.4787 14.7498 30.4792 14.7468 30.4798 14.7444C30.4848 14.7222 30.4925 14.6947 30.4925 14.6947C30.4931 14.693 30.4936 14.6907 30.4943 14.6894C30.5 14.6707 30.5011 14.6678 30.5044 14.659C30.5045 14.6585 30.5045 14.6585 30.5045 14.6585C30.506 14.6544 30.5182 14.621 30.5336 14.5901H30.5337C30.5337 14.5895 30.5519 14.5533 30.5698 14.5246C30.5709 14.5234 30.5718 14.5216 30.5728 14.52C30.575 14.517 30.588 14.4977 30.5903 14.4942C30.5918 14.4924 30.5933 14.4901 30.5951 14.4871C30.6247 14.4463 30.641 14.4298 30.6628 14.4077C30.706 14.3638 30.755 14.3263 30.8083 14.2954C30.8107 14.2943 30.8133 14.2926 30.8159 14.2913C30.8197 14.2895 30.8267 14.286 30.836 14.2814C30.9065 14.2462 30.9513 14.1749 30.9513 14.0966C30.9515 13.5521 30.9515 11.549 30.9515 11.0104C30.9515 10.9338 30.9088 10.863 30.8406 10.8273C30.7632 10.7882 30.6915 10.7373 30.6279 10.6771L30.628 10.6771ZM17.8745 17.2889L17.8737 17.289L17.8745 17.2889ZM17.8827 17.2874C17.8823 17.2876 17.8818 17.2876 17.8814 17.2877C17.8802 17.2878 17.8776 17.2884 17.8776 17.2884C17.8793 17.2881 17.8806 17.2879 17.8821 17.2876C17.8835 17.2873 17.8848 17.287 17.8863 17.2867C17.8863 17.2867 17.8839 17.2871 17.8827 17.2874H17.8827ZM18.519 16.6109V16.6111V16.6109ZM17.027 16.143C17.0268 16.1433 17.0268 16.1434 17.0267 16.1437C17.0264 16.1441 17.0262 16.1449 17.0262 16.1449L17.027 16.143H17.027ZM18.4227 15.875C18.4386 15.8929 18.4645 15.8981 18.4861 15.8876C19.0779 15.5982 26.6188 11.9103 29.1217 10.6865C29.2081 10.6444 29.2539 10.5478 29.2321 10.4543C29.2105 10.3607 29.1272 10.2947 29.031 10.2947C27.1683 10.2947 22.9854 10.2947 22.3702 10.2947C22.3263 10.2947 22.2862 10.3198 22.2676 10.3596C22.2675 10.3596 22.2675 10.3596 22.2674 10.3601C22.2674 10.3601 22.2613 10.373 22.2583 10.3794C22.2573 10.3812 22.2564 10.383 22.2553 10.3853C22.2516 10.3923 22.2481 10.3987 22.2481 10.3987C22.2478 10.3994 22.2477 10.4005 22.2474 10.4012C22.2353 10.4233 22.2173 10.4525 22.2122 10.4601C22.2113 10.4619 22.2102 10.4636 22.2091 10.4654C22.204 10.473 22.2027 10.4748 22.2027 10.4748C22.1834 10.5029 22.1898 10.4941 22.1855 10.4993C22.1855 10.4993 22.1757 10.5128 22.1723 10.5169C22.1713 10.5181 22.1704 10.5199 22.1693 10.5209C22.1635 10.5286 22.1621 10.5303 22.1621 10.5303C22.1537 10.5402 22.1428 10.5531 22.1386 10.5578C22.1377 10.559 22.1367 10.5602 22.1355 10.5613C22.1264 10.5712 22.1149 10.5835 22.1116 10.5876C22.1108 10.5882 22.1098 10.5894 22.109 10.5899C22.1018 10.597 22.1 10.5988 22.1 10.5988C22.0918 10.6069 22.0834 10.6145 22.0749 10.6227C22.0536 10.6421 22.0313 10.6602 22.008 10.6771C22.0071 10.6777 22.0064 10.6789 22.0054 10.6794C21.9974 10.6847 21.9617 10.7093 21.9329 10.7263C21.7918 10.807 21.6275 10.842 21.466 10.8291C21.3876 10.8233 21.3128 10.863 21.2733 10.9309C20.8484 11.6577 18.6306 15.4577 18.4173 15.823C18.4075 15.8397 18.4097 15.8611 18.4227 15.875V15.875ZM20.7699 10.314C20.7653 10.3017 20.754 10.2947 20.7413 10.2947C20.3516 10.2947 14.6632 10.2947 12.9907 10.2947C12.9095 10.2947 12.8359 10.3426 12.8026 10.4162C12.7694 10.4905 12.7825 10.5771 12.8364 10.6378C13.7831 11.7044 16.6424 14.9257 17.2086 15.563C17.2639 15.6254 17.3512 15.6484 17.43 15.6213C17.5229 15.5894 17.6208 15.5716 17.7194 15.5698C17.7195 15.5698 17.7196 15.5698 17.7198 15.5698C17.7259 15.5698 17.7319 15.5698 17.738 15.5698C17.7383 15.5698 17.7387 15.5698 17.7389 15.5698C17.7664 15.5705 17.7938 15.5716 17.8211 15.5746C17.9011 15.5819 17.9782 15.5426 18.0187 15.4734C18.4466 14.7414 20.6579 10.9519 20.8819 10.5683C20.893 10.5496 20.8914 10.5257 20.8778 10.508C20.8771 10.5075 20.8766 10.5069 20.876 10.5057C20.8627 10.4882 20.8468 10.4636 20.8407 10.4542C20.8391 10.4525 20.8376 10.4496 20.8361 10.4473C20.8313 10.4397 20.8263 10.4309 20.8244 10.4274C20.8237 10.4268 20.8232 10.4256 20.8226 10.4251C20.8147 10.4111 20.8185 10.418 20.8115 10.4045C20.811 10.404 20.8105 10.4022 20.81 10.4017C20.8047 10.3918 20.7823 10.3467 20.7698 10.314H20.7699ZM31.6856 14.7941C31.6856 14.7947 31.6857 14.7947 31.6858 14.7954C31.686 14.7959 31.6862 14.7977 31.6862 14.7977C31.686 14.7965 31.6858 14.7959 31.6857 14.7947C31.6856 14.7936 31.6853 14.7924 31.6852 14.7918C31.6852 14.7918 31.6854 14.7929 31.6856 14.7941ZM30.6182 14.7883C30.6182 14.7888 30.6182 14.7888 30.618 14.7888C30.618 14.7901 30.618 14.7901 30.618 14.7901L30.6182 14.7883V14.7883ZM30.6195 14.7819C30.6194 14.783 30.6191 14.7842 30.619 14.7848C30.6187 14.7853 30.6186 14.7871 30.6185 14.7878C30.6185 14.7878 30.6187 14.7865 30.6189 14.7853C30.6189 14.7848 30.619 14.7848 30.619 14.7848C30.6193 14.7836 30.6195 14.7819 30.6195 14.7819V14.7819ZM41.0338 13.692C41.0338 13.6925 41.0332 13.6925 41.0332 13.6931C41.0332 13.6943 41.0332 13.6966 41.0332 13.6966C41.0332 13.6954 41.0332 13.6936 41.0332 13.6925C41.0338 13.6913 41.0338 13.6895 41.0338 13.6884C41.0338 13.6884 41.0338 13.6907 41.0338 13.692V13.692ZM41.0343 13.6849V13.6872V13.6849ZM40.8026 13.0411L40.8038 13.0418H40.8033L40.8026 13.0411ZM40.7985 13.0376L40.8014 13.04C40.8014 13.04 40.8014 13.04 40.8008 13.0393C40.8008 13.0393 40.8008 13.0393 40.8003 13.0388C40.7998 13.0383 40.7985 13.0376 40.7985 13.0376ZM21.7757 10.6421H21.7749H21.7757ZM21.7815 10.6396C21.7811 10.6403 21.7807 10.6403 21.7803 10.6403C21.7794 10.6409 21.7778 10.6414 21.7778 10.6414C21.7788 10.6409 21.7799 10.6409 21.781 10.6403C21.782 10.6396 21.7831 10.6391 21.7841 10.6391C21.7841 10.6391 21.7824 10.6396 21.7816 10.6396H21.7815ZM21.7866 10.6379L21.7855 10.6386L21.7866 10.6379ZM11.5058 10.3959C11.506 10.3959 11.506 10.3959 11.506 10.3959H11.5056H11.5058ZM11.5007 10.3918C11.5014 10.3923 11.5019 10.3929 11.5025 10.3936C11.5032 10.3941 11.5037 10.3946 11.5044 10.3952C11.5044 10.3952 11.5034 10.3941 11.503 10.3936C11.5026 10.3936 11.5023 10.3929 11.5021 10.3929C11.5015 10.3923 11.5007 10.3918 11.5007 10.3918H11.5007ZM11.4995 10.39C11.4996 10.3905 11.4997 10.3905 11.4999 10.3905L11.4992 10.39C11.4992 10.39 11.4992 10.39 11.4994 10.39H11.4995ZM11.3549 9.92272C11.3549 9.92272 11.3549 9.92272 11.3549 9.92341C11.3547 9.92341 11.3547 9.92394 11.3547 9.92394L11.3549 9.92272ZM11.3561 9.91632C11.3559 9.91685 11.3557 9.9181 11.3555 9.91863C11.3553 9.91985 11.3553 9.92041 11.3551 9.92163C11.3551 9.92163 11.3553 9.92041 11.3555 9.91985C11.3555 9.91932 11.3555 9.91863 11.3557 9.91807C11.3557 9.91754 11.3561 9.9163 11.3561 9.9163V9.91632ZM30.5741 9.67541C30.5739 9.67594 30.5739 9.67594 30.5738 9.67594C30.5737 9.67663 30.5731 9.67772 30.5731 9.67772L30.5741 9.67541ZM30.5754 9.6731C30.5754 9.6731 30.5751 9.67363 30.575 9.67363C30.575 9.67416 30.5746 9.67416 30.5746 9.67416L30.5765 9.67077C30.5765 9.67077 30.5758 9.67239 30.5754 9.67308L30.5754 9.6731ZM30.5781 9.66726C30.5781 9.6678 30.5778 9.6678 30.5778 9.66835C30.5773 9.66904 30.5765 9.67079 30.5765 9.67079L30.5783 9.66726C30.5783 9.66726 30.5783 9.66726 30.5781 9.66726H30.5781ZM30.5796 9.66427C30.5795 9.66549 30.5793 9.66549 30.5792 9.66549L30.5797 9.66427C30.5797 9.66427 30.5797 9.66427 30.5796 9.66427ZM31.7847 9.45907L31.7856 9.4596C31.7856 9.4596 31.7854 9.4596 31.7852 9.4596L31.7847 9.45907H31.7847ZM31.7836 9.45785C31.7826 9.45732 31.7818 9.45607 31.7808 9.45554L31.7836 9.45785ZM21.8065 9.4129C21.8068 9.4129 21.8072 9.41343 21.8076 9.41343C21.8086 9.41343 21.8103 9.41396 21.8103 9.41396C21.8091 9.41343 21.808 9.41343 21.807 9.41287C21.806 9.41287 21.8049 9.41218 21.8038 9.4111C21.8038 9.4111 21.8056 9.41218 21.8065 9.41287L21.8065 9.4129ZM21.8003 9.4099L21.8031 9.41112C21.8023 9.41112 21.8012 9.41043 21.8003 9.4099ZM21.7968 9.40812L21.7991 9.40934C21.7984 9.40934 21.7976 9.40881 21.7968 9.40812ZM21.7944 9.40759H21.7946C21.7944 9.40759 21.7944 9.40759 21.7944 9.40759Z" fill="#878787"/>
</g>
<defs>
<clipPath id="clip0_11_583">
<rect width="142.312" height="60" fill="white" transform="translate(0.793823)"/>
</clipPath>
</defs>
</svg>
