<svg width="153" height="46" viewBox="0 0 153 46" fill="none" xmlns="http://www.w3.org/2000/svg">
<g clip-path="url(#clip0_32_11)">
<path d="M55.9889 7.54004H61.7437L71.5292 25.1099L81.3145 7.54004H86.9447V36.4107H82.2496V14.2835L73.669 29.6056H69.2646L60.6843 14.2835V36.4107H55.9889V7.54004Z" fill="#1C2B33"/>
<path d="M105.518 19.7994C104.535 18.803 103.247 18.3046 101.654 18.3042C100.103 18.3042 98.8042 18.8129 97.7587 19.8304C96.7133 20.8479 96.0518 22.2158 95.7744 23.9343H107.201C107.063 22.1745 106.502 20.7962 105.518 19.7994ZM102.091 36.9262C99.9165 36.9262 98.005 36.4483 96.357 35.4926C94.7089 34.5369 93.424 33.2138 92.5021 31.5233C91.5811 29.8322 91.1206 27.8937 91.1206 25.7077C91.1206 23.4946 91.5707 21.5355 92.4709 19.8304C93.3711 18.1253 94.6212 16.7918 96.2211 15.8298C97.8208 14.8676 99.6595 14.3864 101.737 14.3862C103.801 14.3862 105.577 14.8709 107.066 15.8401C108.555 16.8094 109.701 18.167 110.504 19.913C111.307 21.6592 111.709 23.7076 111.709 26.0582V27.3384H95.7744C96.0653 29.0981 96.7821 30.4832 97.9249 31.4935C99.0676 32.5039 100.512 33.0091 102.256 33.0091C103.655 33.0091 104.86 32.8029 105.871 32.3904C106.882 31.978 107.831 31.3525 108.717 30.514L111.21 33.5455C108.731 35.7993 105.691 36.9262 102.089 36.9262" fill="#1C2B33"/>
<path d="M117.403 18.7169H113.081V14.9019H117.403V8.5918H121.932V14.9019H128.496V18.7169H121.932V28.3885C121.932 29.9966 122.209 31.1445 122.763 31.8321C123.317 32.5197 124.266 32.8634 125.609 32.8632C126.204 32.8632 126.71 32.8392 127.125 32.7913C127.541 32.7433 127.998 32.6779 128.497 32.5951V36.3691C127.928 36.5323 127.348 36.6563 126.762 36.7402C126.091 36.8382 125.414 36.8864 124.736 36.8845C119.847 36.8845 117.402 34.2312 117.402 28.9246L117.403 18.7169Z" fill="#1C2B33"/>
<path d="M147.568 22.4293C147.084 21.2055 146.319 20.2396 145.273 19.5315C144.228 18.8234 143.02 18.4691 141.648 18.4685C139.709 18.4685 138.164 19.1146 137.015 20.4068C135.866 21.699 135.291 23.445 135.29 25.6448C135.29 27.8587 135.844 29.6116 136.953 30.9034C138.061 32.1952 139.563 32.8413 141.461 32.8417C142.86 32.8417 144.106 32.4843 145.201 31.7696C146.295 31.0548 147.084 30.0924 147.569 28.8824L147.568 22.4293ZM152.097 36.4107H147.651V33.4C146.884 34.5075 145.848 35.4048 144.638 36.0086C143.419 36.6199 142.034 36.9258 140.483 36.9264C138.572 36.9264 136.879 36.4417 135.404 35.4722C133.929 34.5028 132.769 33.1692 131.924 31.4716C131.079 29.7738 130.657 27.832 130.657 25.646C130.657 23.4464 131.086 21.5011 131.945 19.81C132.804 18.1189 133.992 16.7927 135.508 15.8313C137.025 14.8691 138.767 14.3879 140.733 14.3877C142.215 14.3877 143.545 14.673 144.722 15.2436C145.883 15.8014 146.889 16.6334 147.652 17.6667V14.9028H152.098L152.097 36.4107Z" fill="#1C2B33"/>
<path d="M6.01913 27.5226C6.01913 29.2472 6.39766 30.5713 6.89243 31.3723C7.54112 32.4215 8.50866 32.866 9.49504 32.866C10.7673 32.866 11.9312 32.5503 14.1741 29.4482C15.971 26.9618 18.0882 23.4718 19.5128 21.2838L21.9254 17.577C23.6013 15.0027 25.5411 12.1409 27.7652 10.2011C29.5809 8.61786 31.5395 7.73828 33.5107 7.73828C36.8202 7.73828 39.9725 9.65608 42.3851 13.2529C45.0254 17.1922 46.3071 22.154 46.3071 27.2744C46.3071 30.3184 45.7071 32.555 44.6861 34.3221C43.6998 36.031 41.7772 37.7383 38.5432 37.7383V32.866C41.3123 32.866 42.0034 30.3215 42.0034 27.4095C42.0034 23.2597 41.0359 18.6545 38.9045 15.3639C37.3919 13.0299 35.4317 11.6037 33.2751 11.6037C30.9427 11.6037 29.0657 13.3629 26.9563 16.4995C25.8348 18.166 24.6835 20.1969 23.3909 22.4885L21.9678 25.0095C19.1092 30.0781 18.3851 31.2325 16.9558 33.1378C14.4505 36.4739 12.3113 37.7383 9.49504 37.7383C6.15421 37.7383 4.04164 36.2917 2.73326 34.1116C1.6652 32.3351 1.14059 30.0042 1.14059 27.3482L6.01913 27.5226Z" fill="#0081FB"/>
<path d="M4.98718 13.5969C7.22383 10.1493 10.4516 7.73828 14.1537 7.73828C16.2977 7.73828 18.4291 8.37284 20.6547 10.1901C23.0893 12.177 25.684 15.4488 28.9212 20.8409L30.0819 22.776C32.884 27.444 34.4783 29.8456 35.4113 30.9781C36.6113 32.4325 37.4516 32.866 38.5432 32.866C41.3123 32.866 42.0034 30.3215 42.0034 27.4095L46.3071 27.2744C46.3071 30.3184 45.7071 32.555 44.6861 34.3221C43.6998 36.031 41.7772 37.7383 38.5432 37.7383C36.5327 37.7383 34.7516 37.3016 32.7819 35.4435C31.2678 34.0173 29.4977 31.4838 28.1359 29.2063L24.0851 22.4399C22.0526 19.044 20.1882 16.5121 19.1092 15.3655C17.9484 14.1325 16.4563 12.6435 14.0751 12.6435C12.1479 12.6435 10.5113 13.9959 9.14163 16.0645L4.98718 13.5969Z" fill="url(#paint0_linear_32_11)"/>
<path d="M14.0751 12.6435C12.1479 12.6435 10.5113 13.9959 9.14164 16.0645C7.20499 18.9875 6.01913 23.3414 6.01913 27.5226C6.01913 29.2472 6.39766 30.5713 6.89243 31.3723L2.73326 34.1116C1.6652 32.3351 1.14059 30.0042 1.14059 27.3482C1.14059 22.5184 2.46625 17.4844 4.98719 13.5969C7.22384 10.1493 10.4516 7.73828 14.1537 7.73828L14.0751 12.6435Z" fill="url(#paint1_linear_32_11)"/>
</g>
<defs>
<linearGradient id="paint0_linear_32_11" x1="10.7217" y1="26.1152" x2="41.8212" y2="27.6859" gradientUnits="userSpaceOnUse">
<stop stop-color="#0064E1"/>
<stop offset="0.4" stop-color="#0064E1"/>
<stop offset="0.83" stop-color="#0073EE"/>
<stop offset="1" stop-color="#0082FB"/>
</linearGradient>
<linearGradient id="paint1_linear_32_11" x1="8.20866" y1="29.5707" x2="8.20866" y2="18.1048" gradientUnits="userSpaceOnUse">
<stop stop-color="#0082FB"/>
<stop offset="1" stop-color="#0064E0"/>
</linearGradient>
<clipPath id="clip0_32_11">
<rect width="151.2" height="45" fill="white" transform="translate(0.899994 0.13916)"/>
</clipPath>
</defs>
</svg>
