<svg width="142" height="46" viewBox="0 0 142 46" fill="none" xmlns="http://www.w3.org/2000/svg">
<g clip-path="url(#clip0_10_158)">
<path d="M109.202 37.9827C111.152 38.1269 113.173 38.3425 115.05 38.4155V3.91747H109.202V37.9827ZM13.9123 25.1185L6.26093 3.846H0.629639V41.4327C2.57866 41.2171 4.59947 40.8573 6.4767 40.6425V20.1594L13.3348 39.8524C15.5007 39.6368 17.5941 39.4197 19.7597 39.206V3.846H13.9123V25.1185ZM25.6076 38.6295C31.0219 38.1991 36.5798 37.6953 42.0668 37.4086V31.5871C38.5293 31.8027 35.0647 32.0191 31.5272 32.2343V23.466C33.7646 23.466 36.869 23.3226 39.5399 23.3226V17.5012C37.3743 17.5012 33.9811 17.5012 31.5272 17.6445V9.73895H42.0668V3.91747H25.6076V38.6295ZM45.82 9.73895H52.0284V36.8333C53.9775 36.69 55.9991 36.6899 57.8759 36.6177V9.59482H64.0839V3.84521H45.8196V9.73895H45.82ZM67.9105 36.6177H73.7576V23.1063H81.8432V17.357H73.8306V9.73934H84.4415V3.91787H67.9097L67.9105 36.6177ZM141.255 3.846H134.686L130.426 13.7642L126.6 3.846H120.103L126.962 21.5256L119.454 38.8459C121.475 39.0615 123.641 39.2779 125.662 39.4923L130.065 29.3585L134.326 40.4984C136.563 40.8566 138.873 41.0722 141.11 41.4319C141.11 41.4319 136.085 28.1266 133.53 21.6686L141.255 3.846ZM94.1152 3.846H88.2678V36.8333C93.6825 37.0497 99.0247 37.2653 104.293 37.625V31.8027C100.9 31.5871 97.5084 31.3723 94.1152 31.2282V3.846Z" fill="#D81F26"/>
</g>
<defs>
<clipPath id="clip0_10_158">
<rect width="141" height="45" fill="white" transform="translate(0.5 0.13916)"/>
</clipPath>
</defs>
</svg>
