<svg width="28" height="28" viewBox="0 0 28 28" fill="none" xmlns="http://www.w3.org/2000/svg">
<g clip-path="url(#clip0_132_12)">
<path fill-rule="evenodd" clip-rule="evenodd" d="M13.5001 23.0763C13.9302 22.8747 14.205 22.4425 14.205 21.9669L14.2053 5.40873C14.2053 4.93337 13.9302 4.50097 13.5004 4.29928C13.0706 4.09613 12.5628 4.16085 12.1965 4.4644L5.49339 10.0189H1.92301C1.24597 10.0189 0.696899 10.568 0.696899 11.2453V16.1303C0.696899 16.8074 1.24597 17.3567 1.92301 17.3561H5.4931L12.1962 22.9106C12.4206 23.0967 12.6983 23.193 12.9786 23.193C13.1556 23.193 13.3338 23.155 13.5001 23.0763Z" fill="#B2B2B2"/>
<path fill-rule="evenodd" clip-rule="evenodd" d="M27.3092 18.592C27.8261 18.0752 27.8261 17.2382 27.3092 16.7213L24.2755 13.6876L27.3092 10.6539C27.8261 10.137 27.8261 9.30002 27.3092 8.78315C26.7923 8.26629 25.9553 8.26629 25.4385 8.78315L22.4048 11.8168L19.3711 8.78315C18.8542 8.26629 18.0172 8.26629 17.5003 8.78315C16.9835 9.30002 16.9835 10.137 17.5003 10.6539L20.534 13.6876L17.5003 16.7213C16.9835 17.2382 16.9835 18.0752 17.5003 18.592C17.7587 18.8505 18.097 18.9797 18.4357 18.9797C18.7744 18.9797 19.1126 18.8505 19.3711 18.592L22.4048 15.5584L25.4385 18.592C25.6969 18.8505 26.0351 18.9797 26.3738 18.9797C26.7125 18.9797 27.0508 18.8505 27.3092 18.592Z" fill="#B2B2B2"/>
</g>
<defs>
<clipPath id="clip0_132_12">
<rect width="27" height="27" fill="white" transform="translate(0.696899 0.1875)"/>
</clipPath>
</defs>
</svg>
