<svg width="27" height="27" viewBox="0 0 27 27" fill="none" xmlns="http://www.w3.org/2000/svg">
							<g clip-path="url(#clip0_110_4)">
							<path d="M13.5081 21.9167C13.5081 22.3923 13.2333 22.8244 12.8032 23.0261C12.6369 23.1048 12.4587 23.1428 12.2817 23.1428C12.0014 23.1428 11.7237 23.0464 11.4993 22.8604L4.7962 17.3059H1.22611C0.549066 17.3065 0 16.7571 0 16.0801V11.1951C0 10.5177 0.549066 9.96868 1.22611 9.96868H4.79649L11.4996 4.41417C11.8659 4.11062 12.3737 4.0459 12.8035 4.24905C13.2333 4.45074 13.5084 4.88314 13.5084 5.3585L13.5081 21.9167ZM18.2202 20.0007C18.1903 20.0028 18.1615 20.0039 18.1319 20.0039C17.8081 20.0039 17.4958 19.876 17.2651 19.645L17.1011 19.4804C16.6711 19.0512 16.6206 18.3712 16.9827 17.8831C17.9009 16.6451 18.3856 15.1776 18.3856 13.638C18.3856 11.9821 17.8354 10.4289 16.7941 9.14624C16.3977 8.6587 16.4343 7.9506 16.8786 7.50659L17.0422 7.34262C17.2872 7.09769 17.6154 6.9642 17.9706 6.98538C18.3165 7.00279 18.6395 7.1656 18.8589 7.43375C20.3033 9.20109 21.0662 11.3469 21.0662 13.6383C21.0662 15.7725 20.3915 17.8039 19.1146 19.512C18.9013 19.7967 18.5751 19.9755 18.2202 20.0007ZM23.2895 23.7899C23.0677 24.052 22.7471 24.2093 22.4038 24.2238C22.3869 24.2244 22.3698 24.225 22.3524 24.225C22.0276 24.225 21.716 24.0967 21.4853 23.866L21.3242 23.7049C20.8741 23.2551 20.8436 22.5357 21.2528 22.0487C23.2303 19.6969 24.3197 16.7101 24.3197 13.638C24.3197 10.4426 23.1533 7.36642 21.0363 4.9763C20.6071 4.49108 20.6289 3.75657 21.0856 3.29805L21.2464 3.13698C21.485 2.89728 21.7949 2.76523 22.1504 2.77655C22.4879 2.78613 22.8071 2.93529 23.0315 3.18777C25.5905 6.06892 27 9.78063 27 13.638C27.0006 17.3494 25.6828 20.9549 23.2895 23.7899Z" fill="#B2B2B2"/>
							</g>
							<defs>
							<clipPath id="clip0_110_4">
							<rect width="27" height="27" fill="white"/>
							</clipPath>
							</defs>
							</svg>