<svg width="154" height="60" viewBox="0 0 154 60" fill="none" xmlns="http://www.w3.org/2000/svg">
<rect x="1.26233" y="0.5" width="151.337" height="59" rx="4.5" fill="white" stroke="#DADADA"/>
<rect x="10.3618" y="9" width="42" height="42" rx="5" fill="#FCE1DF"/>
<path d="M42.9483 29.439C43.9467 23.9596 40.6088 19.0576 35.3826 17.4298C26.0996 14.5401 19.5239 23.0436 19.5989 31.6139C19.6614 38.5397 21.1433 43.1448 21.1443 43.1458C21.0787 42.9406 22.8982 41.9818 23.1077 41.8745C23.8249 41.5111 24.5695 41.2045 25.3347 40.9574C26.8989 40.4364 28.5183 40.1081 30.1252 39.7486C35.1482 38.6023 40.5442 36.4347 42.4658 31.2221C42.6775 30.6427 42.8386 30.0462 42.9473 29.439H42.9483Z" fill="#FF5C28"/>
<path d="M64.9499 42.8983C65.564 43.2755 66.8341 43.6859 67.8157 43.6859C68.8197 43.6859 69.236 43.3564 69.236 42.8066C69.236 42.2374 68.9094 41.9751 67.6851 41.5609C65.4528 40.8171 64.6009 39.6132 64.6243 38.346C64.6243 36.336 66.3301 34.829 68.9747 34.829C70.2215 34.829 71.3142 35.1351 71.9712 35.4646L71.4019 37.7553C70.6853 37.3783 69.8923 37.1693 69.0829 37.1441C68.2748 37.1441 67.8157 37.4716 67.8157 37.9971C67.8157 38.5225 68.231 38.7827 69.5411 39.2428C71.5755 39.9427 72.4079 40.9916 72.4303 42.5444C72.4303 44.5534 70.8785 46.0215 67.8167 46.0215C66.4179 46.0215 65.1711 45.693 64.3621 45.2543L64.9499 42.8983V42.8983ZM77.6698 32.2059V35.0951H80.057V37.5448H77.6698V41.4107C77.6698 42.7014 77.9983 43.295 78.9818 43.295C79.3113 43.3067 79.6418 43.2765 79.9654 43.2073L79.9869 45.7193C79.5716 45.8713 78.7615 46.002 77.8433 46.002C76.772 46.002 75.8762 45.6316 75.3313 45.0837C74.7182 44.456 74.413 43.4237 74.413 41.9137V33.1075L77.6698 32.2059V32.2059ZM92.429 40.318C92.429 44.2308 89.6508 46.0244 86.7869 46.0244C83.6608 46.0244 81.2599 43.9676 81.2599 40.5139C81.2599 37.0379 83.5331 34.829 86.9897 34.829C90.2416 34.829 92.429 37.0808 92.429 40.318V40.318ZM84.6892 40.4272C84.6892 42.2637 85.4544 43.642 86.8756 43.642C88.1867 43.642 88.9968 42.3514 88.9968 40.4048C88.9968 38.8305 88.3836 37.2124 86.8756 37.2124C85.3014 37.2124 84.6882 38.8519 84.6882 40.4272H84.6892ZM94.4848 38.6121L94.3971 35.0951H97.2415L97.3672 37.0642H97.453C97.9999 35.4889 99.2914 34.8319 100.342 34.8319C100.577 34.83 100.811 34.8514 101.041 34.8992V38.0253C100.746 37.9689 100.445 37.9395 100.144 37.9376C98.9191 37.9376 98.0895 38.5946 97.8702 39.621C97.8248 39.8666 97.8029 40.116 97.8049 40.3658V45.7875H94.4848V38.6131V38.6121ZM105.675 35.0912L107.272 40.3668L107.796 42.3573H107.884L108.342 40.3473L109.676 35.099H113.218L110.726 42.1409C109.195 46.4046 108.167 48.087 106.966 49.1593C106.077 49.9636 104.963 50.4747 103.773 50.6234L103.051 47.8258C103.558 47.7084 104.044 47.5162 104.494 47.2555C105.061 46.9366 105.537 46.4779 105.876 45.923C105.976 45.781 106.036 45.6152 106.051 45.4424C106.048 45.2533 106.005 45.067 105.925 44.8956L101.99 35.0971L105.674 35.0912H105.675ZM118.343 32.2059V35.0951H120.729V37.5448H118.343V41.4107C118.343 42.7014 118.669 43.295 119.654 43.295C119.984 43.3063 120.314 43.2769 120.637 43.2073L120.659 45.7193C120.244 45.8713 119.435 46.002 118.515 46.002C117.445 46.002 116.548 45.6316 116.003 45.0837C115.392 44.456 115.087 43.4237 115.087 41.9137V33.1075L118.343 32.2059V32.2059ZM125.1 41.4985C125.185 42.8807 126.564 43.5309 128.114 43.5309C129.117 43.5475 130.115 43.3925 131.065 43.0727L131.502 45.3245C130.408 45.7836 129.076 46.002 127.632 46.002C124.002 46.002 121.926 43.9042 121.926 40.5578C121.926 37.846 123.609 34.8514 127.327 34.8514C130.782 34.8514 132.101 37.5409 132.101 40.1864C132.101 40.626 132.064 41.0647 131.991 41.4985H125.099H125.1ZM129.012 39.2243C129.012 38.4152 128.663 37.0603 127.127 37.0603C125.728 37.0603 125.159 38.3499 125.071 39.2243H129.012ZM134.085 45.7846H137.409V30.771L134.085 31.6853V45.7846Z" fill="black"/>
<path d="M71.4175 20.6777L72.5542 20.9648C72.3159 21.8984 71.8862 22.6113 71.2651 23.1035C70.6479 23.5918 69.8921 23.8359 68.9976 23.8359C68.0718 23.8359 67.3179 23.6484 66.7358 23.2734C66.1577 22.8945 65.7163 22.3477 65.4116 21.6328C65.1108 20.918 64.9604 20.1504 64.9604 19.3301C64.9604 18.4355 65.1304 17.6562 65.4702 16.9922C65.814 16.3242 66.3003 15.8184 66.9292 15.4746C67.562 15.127 68.2573 14.9531 69.0151 14.9531C69.8745 14.9531 70.5972 15.1719 71.1831 15.6094C71.769 16.0469 72.1772 16.6621 72.4077 17.4551L71.2886 17.7188C71.0894 17.0938 70.8003 16.6387 70.4214 16.3535C70.0425 16.0684 69.5659 15.9258 68.9917 15.9258C68.3315 15.9258 67.7788 16.084 67.3335 16.4004C66.8921 16.7168 66.5815 17.1426 66.4019 17.6777C66.2222 18.209 66.1323 18.7578 66.1323 19.3242C66.1323 20.0547 66.2378 20.6934 66.4487 21.2402C66.6636 21.7832 66.9956 22.1895 67.4448 22.459C67.894 22.7285 68.3804 22.8633 68.9038 22.8633C69.5405 22.8633 70.0796 22.6797 70.521 22.3125C70.9624 21.9453 71.2612 21.4004 71.4175 20.6777ZM73.8198 17.4668H74.8745V20.1562C75.2104 20.1562 75.4448 20.0918 75.5776 19.9629C75.7144 19.834 75.9136 19.459 76.1753 18.8379C76.3823 18.3457 76.5503 18.0215 76.6792 17.8652C76.8081 17.709 76.9565 17.6035 77.1245 17.5488C77.2925 17.4941 77.562 17.4668 77.9331 17.4668H78.144V18.3398L77.8511 18.334C77.5737 18.334 77.396 18.375 77.3179 18.457C77.2358 18.543 77.1108 18.7988 76.9429 19.2246C76.7827 19.6309 76.6362 19.9121 76.5034 20.0684C76.3706 20.2246 76.1655 20.3672 75.8882 20.4961C76.3413 20.6172 76.7866 21.0391 77.2241 21.7617L78.3784 23.6895H77.2183L76.0933 21.7617C75.8628 21.375 75.6616 21.1211 75.4897 21C75.3179 20.875 75.1128 20.8125 74.8745 20.8125V23.6895H73.8198V17.4668ZM78.8237 20.5781C78.8237 19.4258 79.144 18.5723 79.7847 18.0176C80.3198 17.5566 80.9722 17.3262 81.7417 17.3262C82.5972 17.3262 83.2964 17.6074 83.8394 18.1699C84.3823 18.7285 84.6538 19.502 84.6538 20.4902C84.6538 21.291 84.5327 21.9219 84.2905 22.3828C84.0522 22.8398 83.7026 23.1953 83.2417 23.4492C82.7847 23.7031 82.2847 23.8301 81.7417 23.8301C80.8706 23.8301 80.1655 23.5508 79.6265 22.9922C79.0913 22.4336 78.8237 21.6289 78.8237 20.5781ZM79.9077 20.5781C79.9077 21.375 80.0815 21.9727 80.4292 22.3711C80.7769 22.7656 81.2144 22.9629 81.7417 22.9629C82.2651 22.9629 82.7007 22.7637 83.0483 22.3652C83.396 21.9668 83.5698 21.3594 83.5698 20.543C83.5698 19.7734 83.394 19.1914 83.0425 18.7969C82.6948 18.3984 82.2612 18.1992 81.7417 18.1992C81.2144 18.1992 80.7769 18.3965 80.4292 18.791C80.0815 19.1855 79.9077 19.7812 79.9077 20.5781ZM85.896 26.0742V17.4668H86.8569V18.2754C87.0835 17.959 87.3394 17.7227 87.6245 17.5664C87.9097 17.4062 88.2554 17.3262 88.6616 17.3262C89.1929 17.3262 89.6616 17.4629 90.0679 17.7363C90.4741 18.0098 90.7808 18.3965 90.9878 18.8965C91.1948 19.3926 91.2983 19.9375 91.2983 20.5312C91.2983 21.168 91.1831 21.7422 90.9526 22.2539C90.7261 22.7617 90.394 23.1523 89.9565 23.4258C89.5229 23.6953 89.0659 23.8301 88.5854 23.8301C88.2339 23.8301 87.9175 23.7559 87.6362 23.6074C87.3589 23.459 87.1304 23.2715 86.9507 23.0449V26.0742H85.896ZM86.8511 20.6133C86.8511 21.4141 87.0132 22.0059 87.3374 22.3887C87.6616 22.7715 88.0542 22.9629 88.5151 22.9629C88.9839 22.9629 89.3843 22.7656 89.7163 22.3711C90.0522 21.9727 90.2202 21.3574 90.2202 20.5254C90.2202 19.7324 90.0562 19.1387 89.728 18.7441C89.4038 18.3496 89.0151 18.1523 88.562 18.1523C88.1128 18.1523 87.7144 18.3633 87.3667 18.7852C87.0229 19.2031 86.8511 19.8125 86.8511 20.6133ZM92.1831 20.5781C92.1831 19.4258 92.5034 18.5723 93.144 18.0176C93.6792 17.5566 94.3315 17.3262 95.1011 17.3262C95.9565 17.3262 96.6558 17.6074 97.1987 18.1699C97.7417 18.7285 98.0132 19.502 98.0132 20.4902C98.0132 21.291 97.8921 21.9219 97.6499 22.3828C97.4116 22.8398 97.062 23.1953 96.6011 23.4492C96.144 23.7031 95.644 23.8301 95.1011 23.8301C94.23 23.8301 93.5249 23.5508 92.9858 22.9922C92.4507 22.4336 92.1831 21.6289 92.1831 20.5781ZM93.2671 20.5781C93.2671 21.375 93.4409 21.9727 93.7886 22.3711C94.1362 22.7656 94.5737 22.9629 95.1011 22.9629C95.6245 22.9629 96.0601 22.7637 96.4077 22.3652C96.7554 21.9668 96.9292 21.3594 96.9292 20.543C96.9292 19.7734 96.7534 19.1914 96.4019 18.7969C96.0542 18.3984 95.6206 18.1992 95.1011 18.1992C94.5737 18.1992 94.1362 18.3965 93.7886 18.791C93.4409 19.1855 93.2671 19.7812 93.2671 20.5781ZM102.601 17.4668H103.656V20.0566H106.58V17.4668H107.634V23.6895H106.58V20.9297H103.656V23.6895H102.601V17.4668ZM113.289 22.9219C112.898 23.2539 112.521 23.4883 112.158 23.625C111.798 23.7617 111.412 23.8301 110.998 23.8301C110.314 23.8301 109.789 23.6641 109.421 23.332C109.054 22.9961 108.871 22.5684 108.871 22.0488C108.871 21.7441 108.939 21.4668 109.076 21.2168C109.216 20.9629 109.398 20.7598 109.621 20.6074C109.847 20.4551 110.101 20.3398 110.382 20.2617C110.589 20.207 110.902 20.1543 111.32 20.1035C112.171 20.002 112.798 19.8809 113.201 19.7402C113.205 19.5957 113.207 19.5039 113.207 19.4648C113.207 19.0352 113.107 18.7324 112.908 18.5566C112.638 18.3184 112.238 18.1992 111.707 18.1992C111.21 18.1992 110.843 18.2871 110.605 18.4629C110.371 18.6348 110.197 18.9414 110.083 19.3828L109.052 19.2422C109.146 18.8008 109.3 18.4453 109.515 18.1758C109.73 17.9023 110.041 17.6934 110.447 17.5488C110.853 17.4004 111.324 17.3262 111.859 17.3262C112.39 17.3262 112.822 17.3887 113.154 17.5137C113.486 17.6387 113.73 17.7969 113.886 17.9883C114.042 18.1758 114.152 18.4141 114.214 18.7031C114.25 18.8828 114.267 19.207 114.267 19.6758V21.082C114.267 22.0625 114.289 22.6836 114.332 22.9453C114.378 23.2031 114.468 23.4512 114.601 23.6895H113.5C113.39 23.4707 113.32 23.2148 113.289 22.9219ZM113.201 20.5664C112.818 20.7227 112.244 20.8555 111.478 20.9648C111.044 21.0273 110.738 21.0977 110.558 21.1758C110.378 21.2539 110.24 21.3691 110.142 21.5215C110.044 21.6699 109.996 21.8359 109.996 22.0195C109.996 22.3008 110.101 22.5352 110.312 22.7227C110.527 22.9102 110.839 23.0039 111.25 23.0039C111.656 23.0039 112.017 22.916 112.333 22.7402C112.65 22.5605 112.882 22.3164 113.031 22.0078C113.144 21.7695 113.201 21.418 113.201 20.9531V20.5664Z" fill="#737373"/>
</svg>
