<svg width="154" height="60" viewBox="0 0 154 60" fill="none" xmlns="http://www.w3.org/2000/svg">
<rect x="1.26233" y="0.5" width="151.337" height="59" rx="4.5" fill="white" stroke="#DADADA"/>
<rect x="10.3618" y="9" width="42" height="42" rx="5" fill="#FCE1DF"/>
<path d="M42.9483 29.439C43.9467 23.9596 40.6088 19.0576 35.3826 17.4298C26.0996 14.5401 19.5239 23.0436 19.5989 31.6139C19.6614 38.5397 21.1433 43.1448 21.1443 43.1458C21.0787 42.9405 22.8982 41.9818 23.1077 41.8745C23.8249 41.5111 24.5695 41.2045 25.3347 40.9574C26.8989 40.4364 28.5183 40.1081 30.1252 39.7486C35.1482 38.6023 40.5442 36.4347 42.4658 31.2221C42.6775 30.6427 42.8386 30.0462 42.9473 29.439H42.9483Z" fill="#FF5C28"/>
<path d="M64.9499 42.8983C65.564 43.2755 66.8341 43.6859 67.8157 43.6859C68.8197 43.6859 69.236 43.3564 69.236 42.8066C69.236 42.2374 68.9094 41.9751 67.6851 41.5609C65.4528 40.8171 64.6009 39.6132 64.6243 38.346C64.6243 36.336 66.3301 34.829 68.9747 34.829C70.2215 34.829 71.3142 35.1351 71.9712 35.4646L71.4019 37.7553C70.6853 37.3783 69.8923 37.1693 69.0829 37.1441C68.2748 37.1441 67.8157 37.4716 67.8157 37.9971C67.8157 38.5225 68.231 38.7827 69.5411 39.2428C71.5755 39.9427 72.4079 40.9916 72.4303 42.5444C72.4303 44.5534 70.8785 46.0215 67.8167 46.0215C66.4179 46.0215 65.1711 45.693 64.3621 45.2543L64.9499 42.8983ZM77.6698 32.2059V35.0951H80.057V37.5448H77.6698V41.4107C77.6698 42.7014 77.9983 43.295 78.9818 43.295C79.3113 43.3067 79.6418 43.2765 79.9654 43.2073L79.9869 45.7193C79.5716 45.8713 78.7615 46.002 77.8433 46.002C76.772 46.002 75.8762 45.6316 75.3313 45.0837C74.7182 44.456 74.413 43.4237 74.413 41.9137V33.1075L77.6698 32.2059ZM92.429 40.318C92.429 44.2308 89.6508 46.0244 86.7869 46.0244C83.6608 46.0244 81.2599 43.9676 81.2599 40.5139C81.2599 37.0379 83.5331 34.829 86.9897 34.829C90.2416 34.829 92.429 37.0808 92.429 40.318ZM84.6892 40.4272C84.6892 42.2637 85.4544 43.642 86.8756 43.642C88.1867 43.642 88.9968 42.3514 88.9968 40.4048C88.9968 38.8305 88.3836 37.2124 86.8756 37.2124C85.3014 37.2124 84.6882 38.8519 84.6882 40.4272H84.6892ZM94.4848 38.6121L94.3971 35.0951H97.2415L97.3672 37.0642H97.453C97.9999 35.4889 99.2914 34.8319 100.342 34.8319C100.577 34.83 100.811 34.8514 101.041 34.8992V38.0253C100.746 37.9689 100.445 37.9395 100.144 37.9376C98.9191 37.9376 98.0895 38.5946 97.8702 39.621C97.8248 39.8666 97.8029 40.116 97.8049 40.3658V45.7875H94.4848V38.6131V38.6121ZM105.675 35.0912L107.272 40.3668L107.796 42.3573H107.884L108.342 40.3473L109.676 35.099H113.218L110.726 42.1409C109.195 46.4046 108.167 48.087 106.966 49.1593C106.077 49.9636 104.963 50.4747 103.773 50.6234L103.051 47.8258C103.558 47.7084 104.044 47.5162 104.494 47.2555C105.061 46.9366 105.537 46.4779 105.876 45.923C105.976 45.781 106.036 45.6152 106.051 45.4424C106.048 45.2533 106.005 45.067 105.925 44.8956L101.99 35.0971L105.674 35.0912H105.675ZM118.343 32.2059V35.0951H120.729V37.5448H118.343V41.4107C118.343 42.7014 118.669 43.295 119.654 43.295C119.984 43.3063 120.314 43.2769 120.637 43.2073L120.659 45.7193C120.244 45.8713 119.435 46.002 118.515 46.002C117.445 46.002 116.548 45.6316 116.003 45.0837C115.392 44.456 115.087 43.4237 115.087 41.9137V33.1075L118.343 32.2059ZM125.1 41.4985C125.185 42.8807 126.564 43.5309 128.114 43.5309C129.117 43.5475 130.115 43.3925 131.065 43.0727L131.502 45.3245C130.408 45.7836 129.076 46.002 127.632 46.002C124.002 46.002 121.926 43.9042 121.926 40.5578C121.926 37.846 123.609 34.8514 127.327 34.8514C130.782 34.8514 132.101 37.5409 132.101 40.1864C132.101 40.626 132.064 41.0647 131.991 41.4985H125.099H125.1ZM129.012 39.2243C129.012 38.4152 128.663 37.0603 127.127 37.0603C125.728 37.0603 125.159 38.3499 125.071 39.2243H129.012ZM134.085 45.7846H137.409V30.771L134.085 31.6853V45.7846Z" fill="black"/>
<path d="M64.9019 20.9297L65.9741 20.8359C66.0249 21.2656 66.1421 21.6191 66.3257 21.8965C66.5132 22.1699 66.8022 22.3926 67.1929 22.5645C67.5835 22.7324 68.0229 22.8164 68.5112 22.8164C68.9448 22.8164 69.3276 22.752 69.6597 22.623C69.9917 22.4941 70.2378 22.3184 70.3979 22.0957C70.562 21.8691 70.644 21.623 70.644 21.3574C70.644 21.0879 70.5659 20.8535 70.4097 20.6543C70.2534 20.4512 69.9956 20.2812 69.6362 20.1445C69.4058 20.0547 68.896 19.916 68.1069 19.7285C67.3179 19.5371 66.7651 19.3574 66.4487 19.1895C66.0386 18.9746 65.7319 18.709 65.5288 18.3926C65.3296 18.0723 65.23 17.7148 65.23 17.3203C65.23 16.8867 65.353 16.4824 65.5991 16.1074C65.8452 15.7285 66.2046 15.4414 66.6772 15.2461C67.1499 15.0508 67.6753 14.9531 68.2534 14.9531C68.8901 14.9531 69.4507 15.0566 69.9351 15.2637C70.4233 15.4668 70.7983 15.7676 71.0601 16.166C71.3218 16.5645 71.4624 17.0156 71.4819 17.5195L70.3921 17.6016C70.3335 17.0586 70.1343 16.6484 69.7944 16.3711C69.4585 16.0938 68.9604 15.9551 68.3003 15.9551C67.6128 15.9551 67.1108 16.082 66.7944 16.3359C66.4819 16.5859 66.3257 16.8887 66.3257 17.2441C66.3257 17.5527 66.437 17.8066 66.6597 18.0059C66.8784 18.2051 67.4487 18.4102 68.3706 18.6211C69.2964 18.8281 69.9312 19.0098 70.2749 19.166C70.7749 19.3965 71.144 19.6895 71.3823 20.0449C71.6206 20.3965 71.7397 20.8027 71.7397 21.2637C71.7397 21.7207 71.6089 22.1523 71.3472 22.5586C71.0854 22.9609 70.7085 23.2754 70.2163 23.502C69.728 23.7246 69.1772 23.8359 68.564 23.8359C67.7866 23.8359 67.1343 23.7227 66.6069 23.4961C66.0835 23.2695 65.6714 22.9297 65.3706 22.4766C65.0737 22.0195 64.9175 21.5039 64.9019 20.9297ZM72.7651 20.5781C72.7651 19.4258 73.0854 18.5723 73.7261 18.0176C74.2612 17.5566 74.9136 17.3262 75.6831 17.3262C76.5386 17.3262 77.2378 17.6074 77.7808 18.1699C78.3237 18.7285 78.5952 19.502 78.5952 20.4902C78.5952 21.291 78.4741 21.9219 78.2319 22.3828C77.9937 22.8398 77.644 23.1953 77.1831 23.4492C76.7261 23.7031 76.2261 23.8301 75.6831 23.8301C74.812 23.8301 74.1069 23.5508 73.5679 22.9922C73.0327 22.4336 72.7651 21.6289 72.7651 20.5781ZM73.8491 20.5781C73.8491 21.375 74.0229 21.9727 74.3706 22.3711C74.7183 22.7656 75.1558 22.9629 75.6831 22.9629C76.2065 22.9629 76.6421 22.7637 76.9897 22.3652C77.3374 21.9668 77.5112 21.3594 77.5112 20.543C77.5112 19.7734 77.3354 19.1914 76.9839 18.7969C76.6362 18.3984 76.2026 18.1992 75.6831 18.1992C75.1558 18.1992 74.7183 18.3965 74.3706 18.791C74.0229 19.1855 73.8491 19.7812 73.8491 20.5781ZM79.4448 20.5781C79.4448 19.4258 79.7651 18.5723 80.4058 18.0176C80.9409 17.5566 81.5933 17.3262 82.3628 17.3262C83.2183 17.3262 83.9175 17.6074 84.4604 18.1699C85.0034 18.7285 85.2749 19.502 85.2749 20.4902C85.2749 21.291 85.1538 21.9219 84.9116 22.3828C84.6733 22.8398 84.3237 23.1953 83.8628 23.4492C83.4058 23.7031 82.9058 23.8301 82.3628 23.8301C81.4917 23.8301 80.7866 23.5508 80.2476 22.9922C79.7124 22.4336 79.4448 21.6289 79.4448 20.5781ZM80.5288 20.5781C80.5288 21.375 80.7026 21.9727 81.0503 22.3711C81.3979 22.7656 81.8354 22.9629 82.3628 22.9629C82.8862 22.9629 83.3218 22.7637 83.6694 22.3652C84.0171 21.9668 84.1909 21.3594 84.1909 20.543C84.1909 19.7734 84.0151 19.1914 83.6636 18.7969C83.3159 18.3984 82.8823 18.1992 82.3628 18.1992C81.8354 18.1992 81.3979 18.3965 81.0503 18.791C80.7026 19.1855 80.5288 19.7812 80.5288 20.5781ZM86.5171 23.6895V17.4668H87.4663V18.3516C87.9233 17.668 88.5835 17.3262 89.4468 17.3262C89.8218 17.3262 90.1655 17.3945 90.478 17.5312C90.7944 17.6641 91.0308 17.8398 91.187 18.0586C91.3433 18.2773 91.4526 18.5371 91.5151 18.8379C91.5542 19.0332 91.5737 19.375 91.5737 19.8633V23.6895H90.519V19.9043C90.519 19.4746 90.478 19.1543 90.396 18.9434C90.314 18.7285 90.1675 18.5586 89.9565 18.4336C89.7495 18.3047 89.5054 18.2402 89.2241 18.2402C88.7749 18.2402 88.3862 18.3828 88.0581 18.668C87.7339 18.9531 87.5718 19.4941 87.5718 20.291V23.6895H86.5171ZM96.144 20.5781C96.144 19.4258 96.4644 18.5723 97.105 18.0176C97.6401 17.5566 98.2925 17.3262 99.062 17.3262C99.9175 17.3262 100.617 17.6074 101.16 18.1699C101.703 18.7285 101.974 19.502 101.974 20.4902C101.974 21.291 101.853 21.9219 101.611 22.3828C101.373 22.8398 101.023 23.1953 100.562 23.4492C100.105 23.7031 99.605 23.8301 99.062 23.8301C98.1909 23.8301 97.4858 23.5508 96.9468 22.9922C96.4116 22.4336 96.144 21.6289 96.144 20.5781ZM97.228 20.5781C97.228 21.375 97.4019 21.9727 97.7495 22.3711C98.0972 22.7656 98.5347 22.9629 99.062 22.9629C99.5854 22.9629 100.021 22.7637 100.369 22.3652C100.716 21.9668 100.89 21.3594 100.89 20.543C100.89 19.7734 100.714 19.1914 100.363 18.7969C100.015 18.3984 99.5815 18.1992 99.062 18.1992C98.5347 18.1992 98.0972 18.3965 97.7495 18.791C97.4019 19.1855 97.228 19.7812 97.228 20.5781ZM103.216 23.6895V17.4668H104.166V18.3516C104.623 17.668 105.283 17.3262 106.146 17.3262C106.521 17.3262 106.865 17.3945 107.177 17.5312C107.494 17.6641 107.73 17.8398 107.886 18.0586C108.042 18.2773 108.152 18.5371 108.214 18.8379C108.253 19.0332 108.273 19.375 108.273 19.8633V23.6895H107.218V19.9043C107.218 19.4746 107.177 19.1543 107.095 18.9434C107.013 18.7285 106.867 18.5586 106.656 18.4336C106.449 18.3047 106.205 18.2402 105.923 18.2402C105.474 18.2402 105.085 18.3828 104.757 18.668C104.433 18.9531 104.271 19.4941 104.271 20.291V23.6895H103.216Z" fill="#737373"/>
</svg>
