<svg width="36" height="31" viewBox="0 0 36 31" fill="none" xmlns="http://www.w3.org/2000/svg">
<g clip-path="url(#clip0_41_540)">
<path d="M19.8751 0.708984H19.481C18.8187 0.708984 18.1832 0.909077 17.6431 1.2879L7.78911 8.18575H3.85349C2.08649 8.18575 0.64917 9.62306 0.64917 11.3901V19.9349C0.64917 21.702 2.08649 23.1393 3.85349 23.1393H7.78911L17.6417 30.0368C18.1832 30.4159 18.8184 30.616 19.481 30.616H19.8751C21.6421 30.616 23.0794 29.1787 23.0794 27.4117V3.91331C23.0794 2.1463 21.6421 0.708984 19.8751 0.708984ZM7.05782 21.003H3.85349C3.26425 21.003 2.78539 20.5238 2.78539 19.9349V11.3901C2.78539 10.8012 3.26425 10.322 3.85349 10.322H7.05782V21.003ZM20.9432 27.4117C20.9432 28.0006 20.4643 28.4798 19.8751 28.4798H19.481C19.2599 28.4798 19.048 28.4129 18.8675 28.2868L9.19403 21.515V9.80998L18.8686 3.03782C19.048 2.91214 19.2595 2.8452 19.481 2.8452H19.8751C20.4643 2.8452 20.9432 3.32443 20.9432 3.91331V27.4117ZM34.5157 18.1117C34.9329 18.529 34.9329 19.2047 34.5157 19.622C34.307 19.8306 34.0339 19.9349 33.7605 19.9349C33.4871 19.9349 33.214 19.8306 33.0054 19.622L30.5562 17.1728L28.107 19.622C27.8984 19.8306 27.6253 19.9349 27.3519 19.9349C27.0784 19.9349 26.8053 19.8306 26.5967 19.622C26.1794 19.2047 26.1794 18.529 26.5967 18.1117L29.0459 15.6625L26.5967 13.2133C26.1794 12.7961 26.1794 12.1203 26.5967 11.703C27.014 11.2858 27.6897 11.2858 28.107 11.703L30.5562 14.1522L33.0054 11.703C33.4226 11.2858 34.0984 11.2858 34.5157 11.703C34.9329 12.1203 34.9329 12.7961 34.5157 13.2133L32.0665 15.6625L34.5157 18.1117Z" fill="#B2B2B2"/>
</g>
<defs>
<clipPath id="clip0_41_540">
<rect width="35" height="30" fill="white" transform="translate(0.64917 0.616211)"/>
</clipPath>
</defs>
</svg>
