<svg width="36" height="31" viewBox="0 0 36 31" fill="none" xmlns="http://www.w3.org/2000/svg">
<g clip-path="url(#clip0_41_569)">
<path d="M19.8448 0.616211H19.4499C18.789 0.616211 18.1538 0.816323 17.6122 1.19518L7.7576 8.09371H3.82159C2.0544 8.09371 0.616943 9.53117 0.616943 11.2984V19.8441C0.616943 21.6112 2.0544 23.0487 3.82159 23.0487H7.7576L17.6122 29.9472C18.1538 30.3261 18.789 30.5262 19.4499 30.5262H19.8448C21.612 30.5262 23.0494 29.0887 23.0494 27.3216V3.82085C23.0494 2.05367 21.612 0.616211 19.8448 0.616211ZM7.02623 20.9123H3.82159C3.23264 20.9123 2.75337 20.433 2.75337 19.8441V11.2984C2.75337 10.7094 3.23264 10.2301 3.82159 10.2301H7.02623V20.9123ZM20.913 27.3216C20.913 27.9105 20.4337 28.3898 19.8448 28.3898H19.4499C19.2292 28.3898 19.0176 28.3228 18.8371 28.1968L9.16266 21.4243V9.71811L18.8371 2.94563C19.0176 2.81958 19.2292 2.75264 19.4499 2.75264H19.8448C20.4337 2.75264 20.913 3.23191 20.913 3.82085V27.3216ZM26.2551 20.9123C25.8628 20.9123 25.4857 20.6965 25.2984 20.3219C25.0367 19.7981 25.2453 19.1625 25.7641 18.8948C25.8531 18.8464 27.3223 18.0042 27.3223 15.5712C27.3223 13.1161 25.8257 12.2811 25.7624 12.2466C25.2493 11.9695 25.0452 11.3276 25.3137 10.8102C25.5829 10.2921 26.2103 10.0827 26.7319 10.343C26.843 10.3986 29.4587 11.7502 29.4587 15.5712C29.4587 19.3922 26.843 20.7439 26.7319 20.7998C26.5785 20.8763 26.4154 20.9123 26.2551 20.9123ZM29.4598 25.1851C29.0674 25.1851 28.6903 24.9694 28.503 24.5948C28.2402 24.0689 28.4518 23.4301 28.9755 23.1644C29.1425 23.0776 32.6634 21.1751 32.6634 15.5712C32.6634 9.95312 29.1247 8.05561 28.9741 7.97728C28.4532 7.70773 28.2438 7.06538 28.5098 6.54231C28.7758 6.02031 29.411 5.80844 29.9362 6.0698C30.1353 6.1695 34.7998 8.58188 34.7998 15.5712C34.7998 22.5605 30.1353 24.9729 29.9366 25.0726C29.7831 25.1492 29.62 25.1851 29.4598 25.1851Z" fill="#B2B2B2"/>
</g>
<defs>
<clipPath id="clip0_41_569">
<rect width="35" height="30" fill="white" transform="translate(0.616943 0.616211)"/>
</clipPath>
</defs>
</svg>
